%TF.GenerationSoftware,KiCad,Pcbnew,(6.0.8)*%
%TF.CreationDate,2022-11-19T01:29:10-06:00*%
%TF.ProjectId,coleco-adam-ade-pro-embed-shield,636f6c65-636f-42d6-9164-616d2d616465,rev?*%
%TF.SameCoordinates,Original*%
%TF.FileFunction,Soldermask,Bot*%
%TF.FilePolarity,Negative*%
%FSLAX46Y46*%
G04 Gerber Fmt 4.6, Leading zero omitted, Abs format (unit mm)*
G04 Created by KiCad (PCBNEW (6.0.8)) date 2022-11-19 01:29:10*
%MOMM*%
%LPD*%
G01*
G04 APERTURE LIST*
G04 Aperture macros list*
%AMRoundRect*
0 Rectangle with rounded corners*
0 $1 Rounding radius*
0 $2 $3 $4 $5 $6 $7 $8 $9 X,Y pos of 4 corners*
0 Add a 4 corners polygon primitive as box body*
4,1,4,$2,$3,$4,$5,$6,$7,$8,$9,$2,$3,0*
0 Add four circle primitives for the rounded corners*
1,1,$1+$1,$2,$3*
1,1,$1+$1,$4,$5*
1,1,$1+$1,$6,$7*
1,1,$1+$1,$8,$9*
0 Add four rect primitives between the rounded corners*
20,1,$1+$1,$2,$3,$4,$5,0*
20,1,$1+$1,$4,$5,$6,$7,0*
20,1,$1+$1,$6,$7,$8,$9,0*
20,1,$1+$1,$8,$9,$2,$3,0*%
G04 Aperture macros list end*
%ADD10C,3.200000*%
%ADD11C,1.676400*%
%ADD12R,1.800000X1.800000*%
%ADD13C,1.800000*%
%ADD14C,1.524000*%
%ADD15RoundRect,0.250000X-0.350000X-0.450000X0.350000X-0.450000X0.350000X0.450000X-0.350000X0.450000X0*%
%ADD16RoundRect,0.250000X-0.450000X0.350000X-0.450000X-0.350000X0.450000X-0.350000X0.450000X0.350000X0*%
%ADD17RoundRect,0.250001X0.924999X-0.499999X0.924999X0.499999X-0.924999X0.499999X-0.924999X-0.499999X0*%
%ADD18RoundRect,0.250000X-0.337500X-0.475000X0.337500X-0.475000X0.337500X0.475000X-0.337500X0.475000X0*%
%ADD19C,3.250000*%
%ADD20R,1.520000X1.520000*%
%ADD21C,1.520000*%
%ADD22RoundRect,0.150000X-0.587500X-0.150000X0.587500X-0.150000X0.587500X0.150000X-0.587500X0.150000X0*%
%ADD23C,0.900000*%
%ADD24R,1.600000X0.700000*%
%ADD25R,1.600000X1.400000*%
%ADD26R,2.200000X1.400000*%
%ADD27R,1.400000X1.800000*%
%ADD28RoundRect,0.250000X0.550000X-1.250000X0.550000X1.250000X-0.550000X1.250000X-0.550000X-1.250000X0*%
%ADD29RoundRect,0.150000X0.825000X0.150000X-0.825000X0.150000X-0.825000X-0.150000X0.825000X-0.150000X0*%
G04 APERTURE END LIST*
D10*
%TO.C,U1*%
X122670000Y-88710000D03*
D11*
X164580000Y-67220000D03*
X164580000Y-69760000D03*
X167120000Y-67220000D03*
X167120000Y-69760000D03*
X121400000Y-85000000D03*
X159500000Y-102780000D03*
X159500000Y-100240000D03*
X156960000Y-102780000D03*
X156960000Y-100240000D03*
X154420000Y-102780000D03*
X154420000Y-100240000D03*
X151880000Y-102780000D03*
X151880000Y-100240000D03*
X149340000Y-102780000D03*
X149340000Y-100240000D03*
X146800000Y-102780000D03*
X146800000Y-100240000D03*
X144260000Y-102780000D03*
X144260000Y-100240000D03*
X141720000Y-102780000D03*
X141720000Y-100240000D03*
X162040000Y-69760000D03*
X156960000Y-69760000D03*
X156960000Y-67220000D03*
X154420000Y-69760000D03*
X154420000Y-67220000D03*
X151880000Y-69760000D03*
X151880000Y-67220000D03*
X149340000Y-69760000D03*
X149340000Y-67220000D03*
X146800000Y-69760000D03*
X146800000Y-67220000D03*
X144260000Y-69760000D03*
X144260000Y-67220000D03*
X141720000Y-69760000D03*
X141720000Y-67220000D03*
X139180000Y-69760000D03*
X139180000Y-67220000D03*
X136640000Y-69760000D03*
X136640000Y-67220000D03*
X134100000Y-69760000D03*
X134100000Y-67220000D03*
X131560000Y-69760000D03*
X131560000Y-67220000D03*
X129020000Y-69760000D03*
X129020000Y-67220000D03*
X126480000Y-69760000D03*
X126480000Y-67220000D03*
X123940000Y-69760000D03*
X123940000Y-67220000D03*
X121400000Y-69760000D03*
X121400000Y-67220000D03*
X139180000Y-102780000D03*
X139180000Y-100240000D03*
X136640000Y-102780000D03*
X136640000Y-100240000D03*
X134100000Y-102780000D03*
X134100000Y-100240000D03*
X131560000Y-102780000D03*
X131560000Y-100240000D03*
X129020000Y-102780000D03*
X129020000Y-100240000D03*
X126480000Y-102780000D03*
X126480000Y-100240000D03*
X123940000Y-102780000D03*
X123940000Y-100240000D03*
X121400000Y-102780000D03*
X121400000Y-100240000D03*
X121400000Y-97700000D03*
X123940000Y-97700000D03*
X121400000Y-95160000D03*
X123940000Y-95160000D03*
X121400000Y-92620000D03*
X123940000Y-92620000D03*
X169660000Y-67220000D03*
X169660000Y-69760000D03*
X121400000Y-79920000D03*
X123940000Y-85000000D03*
X121400000Y-82460000D03*
X123940000Y-79920000D03*
X162040000Y-67220000D03*
X159500000Y-69760000D03*
X123940000Y-82460000D03*
X159500000Y-67220000D03*
X172200000Y-67220000D03*
X172200000Y-69760000D03*
%TD*%
D12*
%TO.C,D1*%
X125272800Y-77221000D03*
D13*
X125272800Y-74681000D03*
%TD*%
D14*
%TO.C,U2*%
X131220000Y-73400000D03*
X131220000Y-75940000D03*
X131220000Y-78480000D03*
X131220000Y-81020000D03*
%TD*%
D15*
%TO.C,R3*%
X143653000Y-73507600D03*
X145653000Y-73507600D03*
%TD*%
D16*
%TO.C,R2*%
X150241000Y-77333600D03*
X150241000Y-79333600D03*
%TD*%
%TO.C,R4*%
X148082000Y-92599000D03*
X148082000Y-94599000D03*
%TD*%
D17*
%TO.C,C2*%
X154203400Y-87959600D03*
X154203400Y-84709600D03*
%TD*%
D16*
%TO.C,R6*%
X150088600Y-86909400D03*
X150088600Y-88909400D03*
%TD*%
D18*
%TO.C,C1*%
X133684100Y-85420200D03*
X135759100Y-85420200D03*
%TD*%
D19*
%TO.C,J2*%
X169115600Y-72999600D03*
X169115600Y-83159600D03*
D20*
X160225600Y-74909600D03*
D21*
X162765600Y-76179600D03*
X160225600Y-77449600D03*
X162765600Y-78719600D03*
X160225600Y-79989600D03*
X162765600Y-81259600D03*
%TD*%
D22*
%TO.C,Q1*%
X144858500Y-79309000D03*
X144858500Y-77409000D03*
X146733500Y-78359000D03*
%TD*%
D16*
%TO.C,R7*%
X147624800Y-86934800D03*
X147624800Y-88934800D03*
%TD*%
%TO.C,R8*%
X150495000Y-92599000D03*
X150495000Y-94599000D03*
%TD*%
D23*
%TO.C,P1*%
X172759200Y-90071400D03*
X172759200Y-98071400D03*
D24*
X162259200Y-97271400D03*
X162259200Y-96171400D03*
X162259200Y-95071400D03*
X162259200Y-93971400D03*
X162259200Y-92871400D03*
X162259200Y-91771400D03*
X162259200Y-90671400D03*
X162259200Y-89571400D03*
X162259200Y-88471400D03*
D25*
X162859200Y-87171400D03*
D26*
X172359200Y-87171400D03*
X172359200Y-102871400D03*
D27*
X162759200Y-101971400D03*
%TD*%
D28*
%TO.C,C3*%
X154863800Y-81651200D03*
X154863800Y-77251200D03*
%TD*%
D29*
%TO.C,U3*%
X135748800Y-87630000D03*
X135748800Y-88900000D03*
X135748800Y-90170000D03*
X135748800Y-91440000D03*
X135748800Y-92710000D03*
X135748800Y-93980000D03*
X135748800Y-95250000D03*
X135748800Y-96520000D03*
X130798800Y-96520000D03*
X130798800Y-95250000D03*
X130798800Y-93980000D03*
X130798800Y-92710000D03*
X130798800Y-91440000D03*
X130798800Y-90170000D03*
X130798800Y-88900000D03*
X130798800Y-87630000D03*
%TD*%
D16*
%TO.C,R1*%
X141401800Y-77308200D03*
X141401800Y-79308200D03*
%TD*%
%TO.C,R5*%
X145796000Y-92599000D03*
X145796000Y-94599000D03*
%TD*%
M02*
