%TF.GenerationSoftware,KiCad,Pcbnew,(6.0.8)*%
%TF.CreationDate,2022-11-19T01:29:10-06:00*%
%TF.ProjectId,coleco-adam-ade-pro-embed-shield,636f6c65-636f-42d6-9164-616d2d616465,rev?*%
%TF.SameCoordinates,Original*%
%TF.FileFunction,Legend,Top*%
%TF.FilePolarity,Positive*%
%FSLAX46Y46*%
G04 Gerber Fmt 4.6, Leading zero omitted, Abs format (unit mm)*
G04 Created by KiCad (PCBNEW (6.0.8)) date 2022-11-19 01:29:10*
%MOMM*%
%LPD*%
G01*
G04 APERTURE LIST*
%ADD10C,0.150000*%
%ADD11C,0.127000*%
%ADD12C,0.120000*%
G04 APERTURE END LIST*
D10*
X153434495Y-86990180D02*
X153434495Y-85990180D01*
X153815447Y-85990180D01*
X153910685Y-86037800D01*
X153958304Y-86085419D01*
X154005923Y-86180657D01*
X154005923Y-86323514D01*
X153958304Y-86418752D01*
X153910685Y-86466371D01*
X153815447Y-86513990D01*
X153434495Y-86513990D01*
X155005923Y-86894942D02*
X154958304Y-86942561D01*
X154815447Y-86990180D01*
X154720209Y-86990180D01*
X154577352Y-86942561D01*
X154482114Y-86847323D01*
X154434495Y-86752085D01*
X154386876Y-86561609D01*
X154386876Y-86418752D01*
X154434495Y-86228276D01*
X154482114Y-86133038D01*
X154577352Y-86037800D01*
X154720209Y-85990180D01*
X154815447Y-85990180D01*
X154958304Y-86037800D01*
X155005923Y-86085419D01*
X155767828Y-86466371D02*
X155910685Y-86513990D01*
X155958304Y-86561609D01*
X156005923Y-86656847D01*
X156005923Y-86799704D01*
X155958304Y-86894942D01*
X155910685Y-86942561D01*
X155815447Y-86990180D01*
X155434495Y-86990180D01*
X155434495Y-85990180D01*
X155767828Y-85990180D01*
X155863066Y-86037800D01*
X155910685Y-86085419D01*
X155958304Y-86180657D01*
X155958304Y-86275895D01*
X155910685Y-86371133D01*
X155863066Y-86418752D01*
X155767828Y-86466371D01*
X155434495Y-86466371D01*
X157196400Y-86990180D02*
X157196400Y-85990180D01*
X157196400Y-86371133D02*
X157291638Y-86323514D01*
X157482114Y-86323514D01*
X157577352Y-86371133D01*
X157624971Y-86418752D01*
X157672590Y-86513990D01*
X157672590Y-86799704D01*
X157624971Y-86894942D01*
X157577352Y-86942561D01*
X157482114Y-86990180D01*
X157291638Y-86990180D01*
X157196400Y-86942561D01*
X158005923Y-86323514D02*
X158244019Y-86990180D01*
X158482114Y-86323514D02*
X158244019Y-86990180D01*
X158148780Y-87228276D01*
X158101161Y-87275895D01*
X158005923Y-87323514D01*
X160196400Y-86894942D02*
X160148780Y-86942561D01*
X160005923Y-86990180D01*
X159910685Y-86990180D01*
X159767828Y-86942561D01*
X159672590Y-86847323D01*
X159624971Y-86752085D01*
X159577352Y-86561609D01*
X159577352Y-86418752D01*
X159624971Y-86228276D01*
X159672590Y-86133038D01*
X159767828Y-86037800D01*
X159910685Y-85990180D01*
X160005923Y-85990180D01*
X160148780Y-86037800D01*
X160196400Y-86085419D01*
X160624971Y-86990180D02*
X160624971Y-85990180D01*
X161053542Y-86990180D02*
X161053542Y-86466371D01*
X161005923Y-86371133D01*
X160910685Y-86323514D01*
X160767828Y-86323514D01*
X160672590Y-86371133D01*
X160624971Y-86418752D01*
X161529733Y-86990180D02*
X161529733Y-86323514D01*
X161529733Y-86513990D02*
X161577352Y-86418752D01*
X161624971Y-86371133D01*
X161720209Y-86323514D01*
X161815447Y-86323514D01*
X162148780Y-86990180D02*
X162148780Y-86323514D01*
X162148780Y-85990180D02*
X162101161Y-86037800D01*
X162148780Y-86085419D01*
X162196400Y-86037800D01*
X162148780Y-85990180D01*
X162148780Y-86085419D01*
X162577352Y-86942561D02*
X162672590Y-86990180D01*
X162863066Y-86990180D01*
X162958304Y-86942561D01*
X163005923Y-86847323D01*
X163005923Y-86799704D01*
X162958304Y-86704466D01*
X162863066Y-86656847D01*
X162720209Y-86656847D01*
X162624971Y-86609228D01*
X162577352Y-86513990D01*
X162577352Y-86466371D01*
X162624971Y-86371133D01*
X162720209Y-86323514D01*
X162863066Y-86323514D01*
X162958304Y-86371133D01*
X164053542Y-85990180D02*
X164624971Y-85990180D01*
X164339257Y-86990180D02*
X164339257Y-85990180D01*
X165339257Y-86942561D02*
X165244019Y-86990180D01*
X165053542Y-86990180D01*
X164958304Y-86942561D01*
X164910685Y-86847323D01*
X164910685Y-86466371D01*
X164958304Y-86371133D01*
X165053542Y-86323514D01*
X165244019Y-86323514D01*
X165339257Y-86371133D01*
X165386876Y-86466371D01*
X165386876Y-86561609D01*
X164910685Y-86656847D01*
X165815447Y-86990180D02*
X165815447Y-86323514D01*
X165815447Y-86513990D02*
X165863066Y-86418752D01*
X165910685Y-86371133D01*
X166005923Y-86323514D01*
X166101161Y-86323514D01*
X166386876Y-86942561D02*
X166482114Y-86990180D01*
X166672590Y-86990180D01*
X166767828Y-86942561D01*
X166815447Y-86847323D01*
X166815447Y-86799704D01*
X166767828Y-86704466D01*
X166672590Y-86656847D01*
X166529733Y-86656847D01*
X166434495Y-86609228D01*
X166386876Y-86513990D01*
X166386876Y-86466371D01*
X166434495Y-86371133D01*
X166529733Y-86323514D01*
X166672590Y-86323514D01*
X166767828Y-86371133D01*
X167101161Y-86323514D02*
X167482114Y-86323514D01*
X167244019Y-85990180D02*
X167244019Y-86847323D01*
X167291638Y-86942561D01*
X167386876Y-86990180D01*
X167482114Y-86990180D01*
X168196400Y-86942561D02*
X168101161Y-86990180D01*
X167910685Y-86990180D01*
X167815447Y-86942561D01*
X167767828Y-86847323D01*
X167767828Y-86466371D01*
X167815447Y-86371133D01*
X167910685Y-86323514D01*
X168101161Y-86323514D01*
X168196400Y-86371133D01*
X168244019Y-86466371D01*
X168244019Y-86561609D01*
X167767828Y-86656847D01*
X169053542Y-86942561D02*
X168958304Y-86990180D01*
X168767828Y-86990180D01*
X168672590Y-86942561D01*
X168624971Y-86847323D01*
X168624971Y-86466371D01*
X168672590Y-86371133D01*
X168767828Y-86323514D01*
X168958304Y-86323514D01*
X169053542Y-86371133D01*
X169101161Y-86466371D01*
X169101161Y-86561609D01*
X168624971Y-86656847D01*
X169958304Y-86323514D02*
X169958304Y-87133038D01*
X169910685Y-87228276D01*
X169863066Y-87275895D01*
X169767828Y-87323514D01*
X169624971Y-87323514D01*
X169529733Y-87275895D01*
X169958304Y-86942561D02*
X169863066Y-86990180D01*
X169672590Y-86990180D01*
X169577352Y-86942561D01*
X169529733Y-86894942D01*
X169482114Y-86799704D01*
X169482114Y-86513990D01*
X169529733Y-86418752D01*
X169577352Y-86371133D01*
X169672590Y-86323514D01*
X169863066Y-86323514D01*
X169958304Y-86371133D01*
X134123400Y-84469266D02*
X134599590Y-84469266D01*
X134028161Y-84754980D02*
X134361495Y-83754980D01*
X134694828Y-84754980D01*
X135456733Y-84754980D02*
X135456733Y-83754980D01*
X135456733Y-84707361D02*
X135361495Y-84754980D01*
X135171019Y-84754980D01*
X135075780Y-84707361D01*
X135028161Y-84659742D01*
X134980542Y-84564504D01*
X134980542Y-84278790D01*
X135028161Y-84183552D01*
X135075780Y-84135933D01*
X135171019Y-84088314D01*
X135361495Y-84088314D01*
X135456733Y-84135933D01*
X136361495Y-84754980D02*
X136361495Y-84231171D01*
X136313876Y-84135933D01*
X136218638Y-84088314D01*
X136028161Y-84088314D01*
X135932923Y-84135933D01*
X136361495Y-84707361D02*
X136266257Y-84754980D01*
X136028161Y-84754980D01*
X135932923Y-84707361D01*
X135885304Y-84612123D01*
X135885304Y-84516885D01*
X135932923Y-84421647D01*
X136028161Y-84374028D01*
X136266257Y-84374028D01*
X136361495Y-84326409D01*
X136837685Y-84754980D02*
X136837685Y-84088314D01*
X136837685Y-84183552D02*
X136885304Y-84135933D01*
X136980542Y-84088314D01*
X137123400Y-84088314D01*
X137218638Y-84135933D01*
X137266257Y-84231171D01*
X137266257Y-84754980D01*
X137266257Y-84231171D02*
X137313876Y-84135933D01*
X137409114Y-84088314D01*
X137551971Y-84088314D01*
X137647209Y-84135933D01*
X137694828Y-84231171D01*
X137694828Y-84754980D01*
X138171019Y-84754980D02*
X138171019Y-83754980D01*
X138742447Y-84754980D01*
X138742447Y-83754980D01*
X139218638Y-84231171D02*
X139551971Y-84231171D01*
X139694828Y-84754980D02*
X139218638Y-84754980D01*
X139218638Y-83754980D01*
X139694828Y-83754980D01*
X139980542Y-83754980D02*
X140551971Y-83754980D01*
X140266257Y-84754980D02*
X140266257Y-83754980D01*
X141647209Y-84754980D02*
X141647209Y-83754980D01*
X141885304Y-83754980D01*
X142028161Y-83802600D01*
X142123400Y-83897838D01*
X142171019Y-83993076D01*
X142218638Y-84183552D01*
X142218638Y-84326409D01*
X142171019Y-84516885D01*
X142123400Y-84612123D01*
X142028161Y-84707361D01*
X141885304Y-84754980D01*
X141647209Y-84754980D01*
X142647209Y-84754980D02*
X142647209Y-84088314D01*
X142647209Y-84278790D02*
X142694828Y-84183552D01*
X142742447Y-84135933D01*
X142837685Y-84088314D01*
X142932923Y-84088314D01*
X143266257Y-84754980D02*
X143266257Y-84088314D01*
X143266257Y-83754980D02*
X143218638Y-83802600D01*
X143266257Y-83850219D01*
X143313876Y-83802600D01*
X143266257Y-83754980D01*
X143266257Y-83850219D01*
X143647209Y-84088314D02*
X143885304Y-84754980D01*
X144123400Y-84088314D01*
X144885304Y-84707361D02*
X144790066Y-84754980D01*
X144599590Y-84754980D01*
X144504352Y-84707361D01*
X144456733Y-84612123D01*
X144456733Y-84231171D01*
X144504352Y-84135933D01*
X144599590Y-84088314D01*
X144790066Y-84088314D01*
X144885304Y-84135933D01*
X144932923Y-84231171D01*
X144932923Y-84326409D01*
X144456733Y-84421647D01*
X146123400Y-84231171D02*
X146456733Y-84231171D01*
X146599590Y-84754980D02*
X146123400Y-84754980D01*
X146123400Y-83754980D01*
X146599590Y-83754980D01*
X147028161Y-84754980D02*
X147028161Y-84088314D01*
X147028161Y-84183552D02*
X147075780Y-84135933D01*
X147171019Y-84088314D01*
X147313876Y-84088314D01*
X147409114Y-84135933D01*
X147456733Y-84231171D01*
X147456733Y-84754980D01*
X147456733Y-84231171D02*
X147504352Y-84135933D01*
X147599590Y-84088314D01*
X147742447Y-84088314D01*
X147837685Y-84135933D01*
X147885304Y-84231171D01*
X147885304Y-84754980D01*
X148790066Y-84088314D02*
X148790066Y-84754980D01*
X148361495Y-84088314D02*
X148361495Y-84612123D01*
X148409114Y-84707361D01*
X148504352Y-84754980D01*
X148647209Y-84754980D01*
X148742447Y-84707361D01*
X148790066Y-84659742D01*
X149409114Y-84754980D02*
X149313876Y-84707361D01*
X149266257Y-84612123D01*
X149266257Y-83754980D01*
X150218638Y-84754980D02*
X150218638Y-84231171D01*
X150171019Y-84135933D01*
X150075780Y-84088314D01*
X149885304Y-84088314D01*
X149790066Y-84135933D01*
X150218638Y-84707361D02*
X150123400Y-84754980D01*
X149885304Y-84754980D01*
X149790066Y-84707361D01*
X149742447Y-84612123D01*
X149742447Y-84516885D01*
X149790066Y-84421647D01*
X149885304Y-84374028D01*
X150123400Y-84374028D01*
X150218638Y-84326409D01*
X150551971Y-84088314D02*
X150932923Y-84088314D01*
X150694828Y-83754980D02*
X150694828Y-84612123D01*
X150742447Y-84707361D01*
X150837685Y-84754980D01*
X150932923Y-84754980D01*
X151409114Y-84754980D02*
X151313876Y-84707361D01*
X151266257Y-84659742D01*
X151218638Y-84564504D01*
X151218638Y-84278790D01*
X151266257Y-84183552D01*
X151313876Y-84135933D01*
X151409114Y-84088314D01*
X151551971Y-84088314D01*
X151647209Y-84135933D01*
X151694828Y-84183552D01*
X151742447Y-84278790D01*
X151742447Y-84564504D01*
X151694828Y-84659742D01*
X151647209Y-84707361D01*
X151551971Y-84754980D01*
X151409114Y-84754980D01*
X152171019Y-84754980D02*
X152171019Y-84088314D01*
X152171019Y-84278790D02*
X152218638Y-84183552D01*
X152266257Y-84135933D01*
X152361495Y-84088314D01*
X152456733Y-84088314D01*
X153551971Y-84754980D02*
X153551971Y-83754980D01*
X153551971Y-84135933D02*
X153647209Y-84088314D01*
X153837685Y-84088314D01*
X153932923Y-84135933D01*
X153980542Y-84183552D01*
X154028161Y-84278790D01*
X154028161Y-84564504D01*
X153980542Y-84659742D01*
X153932923Y-84707361D01*
X153837685Y-84754980D01*
X153647209Y-84754980D01*
X153551971Y-84707361D01*
X154361495Y-84088314D02*
X154599590Y-84754980D01*
X154837685Y-84088314D02*
X154599590Y-84754980D01*
X154504352Y-84993076D01*
X154456733Y-85040695D01*
X154361495Y-85088314D01*
X155932923Y-84707361D02*
X156075780Y-84754980D01*
X156313876Y-84754980D01*
X156409114Y-84707361D01*
X156456733Y-84659742D01*
X156504352Y-84564504D01*
X156504352Y-84469266D01*
X156456733Y-84374028D01*
X156409114Y-84326409D01*
X156313876Y-84278790D01*
X156123400Y-84231171D01*
X156028161Y-84183552D01*
X155980542Y-84135933D01*
X155932923Y-84040695D01*
X155932923Y-83945457D01*
X155980542Y-83850219D01*
X156028161Y-83802600D01*
X156123400Y-83754980D01*
X156361495Y-83754980D01*
X156504352Y-83802600D01*
X157313876Y-84707361D02*
X157218638Y-84754980D01*
X157028161Y-84754980D01*
X156932923Y-84707361D01*
X156885304Y-84612123D01*
X156885304Y-84231171D01*
X156932923Y-84135933D01*
X157028161Y-84088314D01*
X157218638Y-84088314D01*
X157313876Y-84135933D01*
X157361495Y-84231171D01*
X157361495Y-84326409D01*
X156885304Y-84421647D01*
X158218638Y-84754980D02*
X158218638Y-84231171D01*
X158171019Y-84135933D01*
X158075780Y-84088314D01*
X157885304Y-84088314D01*
X157790066Y-84135933D01*
X158218638Y-84707361D02*
X158123400Y-84754980D01*
X157885304Y-84754980D01*
X157790066Y-84707361D01*
X157742447Y-84612123D01*
X157742447Y-84516885D01*
X157790066Y-84421647D01*
X157885304Y-84374028D01*
X158123400Y-84374028D01*
X158218638Y-84326409D01*
X158694828Y-84088314D02*
X158694828Y-84754980D01*
X158694828Y-84183552D02*
X158742447Y-84135933D01*
X158837685Y-84088314D01*
X158980542Y-84088314D01*
X159075780Y-84135933D01*
X159123400Y-84231171D01*
X159123400Y-84754980D01*
X160361495Y-84754980D02*
X160361495Y-83754980D01*
X160694828Y-84469266D01*
X161028161Y-83754980D01*
X161028161Y-84754980D01*
X161409114Y-84088314D02*
X161647209Y-84754980D01*
X161885304Y-84088314D02*
X161647209Y-84754980D01*
X161551971Y-84993076D01*
X161504352Y-85040695D01*
X161409114Y-85088314D01*
X162647209Y-84707361D02*
X162551971Y-84754980D01*
X162361495Y-84754980D01*
X162266257Y-84707361D01*
X162218638Y-84612123D01*
X162218638Y-84231171D01*
X162266257Y-84135933D01*
X162361495Y-84088314D01*
X162551971Y-84088314D01*
X162647209Y-84135933D01*
X162694828Y-84231171D01*
X162694828Y-84326409D01*
X162218638Y-84421647D01*
X163123400Y-84754980D02*
X163123400Y-84088314D01*
X163123400Y-84278790D02*
X163171019Y-84183552D01*
X163218638Y-84135933D01*
X163313876Y-84088314D01*
X163409114Y-84088314D01*
X163694828Y-84707361D02*
X163790066Y-84754980D01*
X163980542Y-84754980D01*
X164075780Y-84707361D01*
X164123400Y-84612123D01*
X164123400Y-84564504D01*
X164075780Y-84469266D01*
X163980542Y-84421647D01*
X163837685Y-84421647D01*
X163742447Y-84374028D01*
X163694828Y-84278790D01*
X163694828Y-84231171D01*
X163742447Y-84135933D01*
X163837685Y-84088314D01*
X163980542Y-84088314D01*
X164075780Y-84135933D01*
X163179714Y-100860066D02*
X163655904Y-100860066D01*
X163084476Y-101145780D02*
X163417809Y-100145780D01*
X163751142Y-101145780D01*
X164084476Y-101145780D02*
X164084476Y-100145780D01*
X164322571Y-100145780D01*
X164465428Y-100193400D01*
X164560666Y-100288638D01*
X164608285Y-100383876D01*
X164655904Y-100574352D01*
X164655904Y-100717209D01*
X164608285Y-100907685D01*
X164560666Y-101002923D01*
X164465428Y-101098161D01*
X164322571Y-101145780D01*
X164084476Y-101145780D01*
X165084476Y-100621971D02*
X165417809Y-100621971D01*
X165560666Y-101145780D02*
X165084476Y-101145780D01*
X165084476Y-100145780D01*
X165560666Y-100145780D01*
X166751142Y-101145780D02*
X166751142Y-100145780D01*
X167132095Y-100145780D01*
X167227333Y-100193400D01*
X167274952Y-100241019D01*
X167322571Y-100336257D01*
X167322571Y-100479114D01*
X167274952Y-100574352D01*
X167227333Y-100621971D01*
X167132095Y-100669590D01*
X166751142Y-100669590D01*
X167751142Y-101145780D02*
X167751142Y-100479114D01*
X167751142Y-100669590D02*
X167798761Y-100574352D01*
X167846380Y-100526733D01*
X167941619Y-100479114D01*
X168036857Y-100479114D01*
X168513047Y-101145780D02*
X168417809Y-101098161D01*
X168370190Y-101050542D01*
X168322571Y-100955304D01*
X168322571Y-100669590D01*
X168370190Y-100574352D01*
X168417809Y-100526733D01*
X168513047Y-100479114D01*
X168655904Y-100479114D01*
X168751142Y-100526733D01*
X168798761Y-100574352D01*
X168846380Y-100669590D01*
X168846380Y-100955304D01*
X168798761Y-101050542D01*
X168751142Y-101098161D01*
X168655904Y-101145780D01*
X168513047Y-101145780D01*
X170036857Y-101145780D02*
X170036857Y-100145780D01*
X170370190Y-100860066D01*
X170703523Y-100145780D01*
X170703523Y-101145780D01*
X171179714Y-101145780D02*
X171179714Y-100479114D01*
X171179714Y-100145780D02*
X171132095Y-100193400D01*
X171179714Y-100241019D01*
X171227333Y-100193400D01*
X171179714Y-100145780D01*
X171179714Y-100241019D01*
X171655904Y-100479114D02*
X171655904Y-101145780D01*
X171655904Y-100574352D02*
X171703523Y-100526733D01*
X171798761Y-100479114D01*
X171941619Y-100479114D01*
X172036857Y-100526733D01*
X172084476Y-100621971D01*
X172084476Y-101145780D01*
X172560666Y-101145780D02*
X172560666Y-100479114D01*
X172560666Y-100145780D02*
X172513047Y-100193400D01*
X172560666Y-100241019D01*
X172608285Y-100193400D01*
X172560666Y-100145780D01*
X172560666Y-100241019D01*
X166465428Y-102089114D02*
X166703523Y-102755780D01*
X166941619Y-102089114D01*
X167846380Y-102755780D02*
X167274952Y-102755780D01*
X167560666Y-102755780D02*
X167560666Y-101755780D01*
X167465428Y-101898638D01*
X167370190Y-101993876D01*
X167274952Y-102041495D01*
X168274952Y-102660542D02*
X168322571Y-102708161D01*
X168274952Y-102755780D01*
X168227333Y-102708161D01*
X168274952Y-102660542D01*
X168274952Y-102755780D01*
X168941619Y-101755780D02*
X169036857Y-101755780D01*
X169132095Y-101803400D01*
X169179714Y-101851019D01*
X169227333Y-101946257D01*
X169274952Y-102136733D01*
X169274952Y-102374828D01*
X169227333Y-102565304D01*
X169179714Y-102660542D01*
X169132095Y-102708161D01*
X169036857Y-102755780D01*
X168941619Y-102755780D01*
X168846380Y-102708161D01*
X168798761Y-102660542D01*
X168751142Y-102565304D01*
X168703523Y-102374828D01*
X168703523Y-102136733D01*
X168751142Y-101946257D01*
X168798761Y-101851019D01*
X168846380Y-101803400D01*
X168941619Y-101755780D01*
%TO.C,U1*%
X124358495Y-71308980D02*
X124358495Y-72118504D01*
X124406114Y-72213742D01*
X124453733Y-72261361D01*
X124548971Y-72308980D01*
X124739447Y-72308980D01*
X124834685Y-72261361D01*
X124882304Y-72213742D01*
X124929923Y-72118504D01*
X124929923Y-71308980D01*
X125929923Y-72308980D02*
X125358495Y-72308980D01*
X125644209Y-72308980D02*
X125644209Y-71308980D01*
X125548971Y-71451838D01*
X125453733Y-71547076D01*
X125358495Y-71594695D01*
%TO.C,SW2*%
X135151761Y-93992533D02*
X135199380Y-93849676D01*
X135199380Y-93611580D01*
X135151761Y-93516342D01*
X135104142Y-93468723D01*
X135008904Y-93421104D01*
X134913666Y-93421104D01*
X134818428Y-93468723D01*
X134770809Y-93516342D01*
X134723190Y-93611580D01*
X134675571Y-93802057D01*
X134627952Y-93897295D01*
X134580333Y-93944914D01*
X134485095Y-93992533D01*
X134389857Y-93992533D01*
X134294619Y-93944914D01*
X134247000Y-93897295D01*
X134199380Y-93802057D01*
X134199380Y-93563961D01*
X134247000Y-93421104D01*
X134199380Y-93087771D02*
X135199380Y-92849676D01*
X134485095Y-92659200D01*
X135199380Y-92468723D01*
X134199380Y-92230628D01*
X134294619Y-91897295D02*
X134247000Y-91849676D01*
X134199380Y-91754438D01*
X134199380Y-91516342D01*
X134247000Y-91421104D01*
X134294619Y-91373485D01*
X134389857Y-91325866D01*
X134485095Y-91325866D01*
X134627952Y-91373485D01*
X135199380Y-91944914D01*
X135199380Y-91325866D01*
X132937476Y-97178714D02*
X132699380Y-97178714D01*
X132699380Y-95750142D01*
X132937476Y-95750142D01*
X133318428Y-96750142D02*
X133366047Y-96797761D01*
X133318428Y-96845380D01*
X133270809Y-96797761D01*
X133318428Y-96750142D01*
X133318428Y-96845380D01*
X133794619Y-96750142D02*
X133842238Y-96797761D01*
X133794619Y-96845380D01*
X133747000Y-96797761D01*
X133794619Y-96750142D01*
X133794619Y-96845380D01*
X134175571Y-97178714D02*
X134413666Y-97178714D01*
X134413666Y-95750142D01*
X134175571Y-95750142D01*
X135223190Y-97178714D02*
X134985095Y-97178714D01*
X134985095Y-95750142D01*
X135223190Y-95750142D01*
X136318428Y-95797761D02*
X135461285Y-97083476D01*
X136556523Y-97178714D02*
X136794619Y-97178714D01*
X136794619Y-95750142D01*
X136556523Y-95750142D01*
%TO.C,SW3*%
X141061666Y-89304761D02*
X141204523Y-89352380D01*
X141442619Y-89352380D01*
X141537857Y-89304761D01*
X141585476Y-89257142D01*
X141633095Y-89161904D01*
X141633095Y-89066666D01*
X141585476Y-88971428D01*
X141537857Y-88923809D01*
X141442619Y-88876190D01*
X141252142Y-88828571D01*
X141156904Y-88780952D01*
X141109285Y-88733333D01*
X141061666Y-88638095D01*
X141061666Y-88542857D01*
X141109285Y-88447619D01*
X141156904Y-88400000D01*
X141252142Y-88352380D01*
X141490238Y-88352380D01*
X141633095Y-88400000D01*
X141966428Y-88352380D02*
X142204523Y-89352380D01*
X142395000Y-88638095D01*
X142585476Y-89352380D01*
X142823571Y-88352380D01*
X143109285Y-88352380D02*
X143728333Y-88352380D01*
X143395000Y-88733333D01*
X143537857Y-88733333D01*
X143633095Y-88780952D01*
X143680714Y-88828571D01*
X143728333Y-88923809D01*
X143728333Y-89161904D01*
X143680714Y-89257142D01*
X143633095Y-89304761D01*
X143537857Y-89352380D01*
X143252142Y-89352380D01*
X143156904Y-89304761D01*
X143109285Y-89257142D01*
X141609285Y-85939380D02*
X141609285Y-86748904D01*
X141656904Y-86844142D01*
X141704523Y-86891761D01*
X141799761Y-86939380D01*
X141990238Y-86939380D01*
X142085476Y-86891761D01*
X142133095Y-86844142D01*
X142180714Y-86748904D01*
X142180714Y-85939380D01*
X142656904Y-86939380D02*
X142656904Y-85939380D01*
X143037857Y-85939380D01*
X143133095Y-85987000D01*
X143180714Y-86034619D01*
X143228333Y-86129857D01*
X143228333Y-86272714D01*
X143180714Y-86367952D01*
X143133095Y-86415571D01*
X143037857Y-86463190D01*
X142656904Y-86463190D01*
%TO.C,SW6*%
X158011761Y-93992533D02*
X158059380Y-93849676D01*
X158059380Y-93611580D01*
X158011761Y-93516342D01*
X157964142Y-93468723D01*
X157868904Y-93421104D01*
X157773666Y-93421104D01*
X157678428Y-93468723D01*
X157630809Y-93516342D01*
X157583190Y-93611580D01*
X157535571Y-93802057D01*
X157487952Y-93897295D01*
X157440333Y-93944914D01*
X157345095Y-93992533D01*
X157249857Y-93992533D01*
X157154619Y-93944914D01*
X157107000Y-93897295D01*
X157059380Y-93802057D01*
X157059380Y-93563961D01*
X157107000Y-93421104D01*
X157059380Y-93087771D02*
X158059380Y-92849676D01*
X157345095Y-92659200D01*
X158059380Y-92468723D01*
X157059380Y-92230628D01*
X157059380Y-91421104D02*
X157059380Y-91611580D01*
X157107000Y-91706819D01*
X157154619Y-91754438D01*
X157297476Y-91849676D01*
X157487952Y-91897295D01*
X157868904Y-91897295D01*
X157964142Y-91849676D01*
X158011761Y-91802057D01*
X158059380Y-91706819D01*
X158059380Y-91516342D01*
X158011761Y-91421104D01*
X157964142Y-91373485D01*
X157868904Y-91325866D01*
X157630809Y-91325866D01*
X157535571Y-91373485D01*
X157487952Y-91421104D01*
X157440333Y-91516342D01*
X157440333Y-91706819D01*
X157487952Y-91802057D01*
X157535571Y-91849676D01*
X157630809Y-91897295D01*
X155821285Y-96670761D02*
X155964142Y-96718380D01*
X156202238Y-96718380D01*
X156297476Y-96670761D01*
X156345095Y-96623142D01*
X156392714Y-96527904D01*
X156392714Y-96432666D01*
X156345095Y-96337428D01*
X156297476Y-96289809D01*
X156202238Y-96242190D01*
X156011761Y-96194571D01*
X155916523Y-96146952D01*
X155868904Y-96099333D01*
X155821285Y-96004095D01*
X155821285Y-95908857D01*
X155868904Y-95813619D01*
X155916523Y-95766000D01*
X156011761Y-95718380D01*
X156249857Y-95718380D01*
X156392714Y-95766000D01*
X156726047Y-95718380D02*
X156964142Y-96718380D01*
X157154619Y-96004095D01*
X157345095Y-96718380D01*
X157583190Y-95718380D01*
X157916523Y-96432666D02*
X158392714Y-96432666D01*
X157821285Y-96718380D02*
X158154619Y-95718380D01*
X158487952Y-96718380D01*
X158821285Y-96718380D02*
X158821285Y-95718380D01*
X159202238Y-95718380D01*
X159297476Y-95766000D01*
X159345095Y-95813619D01*
X159392714Y-95908857D01*
X159392714Y-96051714D01*
X159345095Y-96146952D01*
X159297476Y-96194571D01*
X159202238Y-96242190D01*
X158821285Y-96242190D01*
%TO.C,D1*%
X122765180Y-76689095D02*
X121765180Y-76689095D01*
X121765180Y-76451000D01*
X121812800Y-76308142D01*
X121908038Y-76212904D01*
X122003276Y-76165285D01*
X122193752Y-76117666D01*
X122336609Y-76117666D01*
X122527085Y-76165285D01*
X122622323Y-76212904D01*
X122717561Y-76308142D01*
X122765180Y-76451000D01*
X122765180Y-76689095D01*
X122765180Y-75165285D02*
X122765180Y-75736714D01*
X122765180Y-75451000D02*
X121765180Y-75451000D01*
X121908038Y-75546238D01*
X122003276Y-75641476D01*
X122050895Y-75736714D01*
%TO.C,SW7*%
X168171761Y-93992533D02*
X168219380Y-93849676D01*
X168219380Y-93611580D01*
X168171761Y-93516342D01*
X168124142Y-93468723D01*
X168028904Y-93421104D01*
X167933666Y-93421104D01*
X167838428Y-93468723D01*
X167790809Y-93516342D01*
X167743190Y-93611580D01*
X167695571Y-93802057D01*
X167647952Y-93897295D01*
X167600333Y-93944914D01*
X167505095Y-93992533D01*
X167409857Y-93992533D01*
X167314619Y-93944914D01*
X167267000Y-93897295D01*
X167219380Y-93802057D01*
X167219380Y-93563961D01*
X167267000Y-93421104D01*
X167219380Y-93087771D02*
X168219380Y-92849676D01*
X167505095Y-92659200D01*
X168219380Y-92468723D01*
X167219380Y-92230628D01*
X167219380Y-91944914D02*
X167219380Y-91278247D01*
X168219380Y-91706819D01*
X166314619Y-96718380D02*
X165981285Y-96242190D01*
X165743190Y-96718380D02*
X165743190Y-95718380D01*
X166124142Y-95718380D01*
X166219380Y-95766000D01*
X166267000Y-95813619D01*
X166314619Y-95908857D01*
X166314619Y-96051714D01*
X166267000Y-96146952D01*
X166219380Y-96194571D01*
X166124142Y-96242190D01*
X165743190Y-96242190D01*
X166743190Y-96194571D02*
X167076523Y-96194571D01*
X167219380Y-96718380D02*
X166743190Y-96718380D01*
X166743190Y-95718380D01*
X167219380Y-95718380D01*
X167600333Y-96670761D02*
X167743190Y-96718380D01*
X167981285Y-96718380D01*
X168076523Y-96670761D01*
X168124142Y-96623142D01*
X168171761Y-96527904D01*
X168171761Y-96432666D01*
X168124142Y-96337428D01*
X168076523Y-96289809D01*
X167981285Y-96242190D01*
X167790809Y-96194571D01*
X167695571Y-96146952D01*
X167647952Y-96099333D01*
X167600333Y-96004095D01*
X167600333Y-95908857D01*
X167647952Y-95813619D01*
X167695571Y-95766000D01*
X167790809Y-95718380D01*
X168028904Y-95718380D01*
X168171761Y-95766000D01*
X168600333Y-96194571D02*
X168933666Y-96194571D01*
X169076523Y-96718380D02*
X168600333Y-96718380D01*
X168600333Y-95718380D01*
X169076523Y-95718380D01*
X169362238Y-95718380D02*
X169933666Y-95718380D01*
X169647952Y-96718380D02*
X169647952Y-95718380D01*
%TO.C,SW5*%
X150391761Y-93992533D02*
X150439380Y-93849676D01*
X150439380Y-93611580D01*
X150391761Y-93516342D01*
X150344142Y-93468723D01*
X150248904Y-93421104D01*
X150153666Y-93421104D01*
X150058428Y-93468723D01*
X150010809Y-93516342D01*
X149963190Y-93611580D01*
X149915571Y-93802057D01*
X149867952Y-93897295D01*
X149820333Y-93944914D01*
X149725095Y-93992533D01*
X149629857Y-93992533D01*
X149534619Y-93944914D01*
X149487000Y-93897295D01*
X149439380Y-93802057D01*
X149439380Y-93563961D01*
X149487000Y-93421104D01*
X149439380Y-93087771D02*
X150439380Y-92849676D01*
X149725095Y-92659200D01*
X150439380Y-92468723D01*
X149439380Y-92230628D01*
X149439380Y-91373485D02*
X149439380Y-91849676D01*
X149915571Y-91897295D01*
X149867952Y-91849676D01*
X149820333Y-91754438D01*
X149820333Y-91516342D01*
X149867952Y-91421104D01*
X149915571Y-91373485D01*
X150010809Y-91325866D01*
X150248904Y-91325866D01*
X150344142Y-91373485D01*
X150391761Y-91421104D01*
X150439380Y-91516342D01*
X150439380Y-91754438D01*
X150391761Y-91849676D01*
X150344142Y-91897295D01*
X146129857Y-95718380D02*
X146129857Y-96527904D01*
X146177476Y-96623142D01*
X146225095Y-96670761D01*
X146320333Y-96718380D01*
X146510809Y-96718380D01*
X146606047Y-96670761D01*
X146653666Y-96623142D01*
X146701285Y-96527904D01*
X146701285Y-95718380D01*
X147177476Y-96718380D02*
X147177476Y-95718380D01*
X147748904Y-96718380D01*
X147748904Y-95718380D01*
X148939380Y-95670761D02*
X148082238Y-96956476D01*
X149272714Y-96718380D02*
X149272714Y-95718380D01*
X149606047Y-96432666D01*
X149939380Y-95718380D01*
X149939380Y-96718380D01*
X150606047Y-95718380D02*
X150796523Y-95718380D01*
X150891761Y-95766000D01*
X150987000Y-95861238D01*
X151034619Y-96051714D01*
X151034619Y-96385047D01*
X150987000Y-96575523D01*
X150891761Y-96670761D01*
X150796523Y-96718380D01*
X150606047Y-96718380D01*
X150510809Y-96670761D01*
X150415571Y-96575523D01*
X150367952Y-96385047D01*
X150367952Y-96051714D01*
X150415571Y-95861238D01*
X150510809Y-95766000D01*
X150606047Y-95718380D01*
X151463190Y-95718380D02*
X151463190Y-96527904D01*
X151510809Y-96623142D01*
X151558428Y-96670761D01*
X151653666Y-96718380D01*
X151844142Y-96718380D01*
X151939380Y-96670761D01*
X151987000Y-96623142D01*
X152034619Y-96527904D01*
X152034619Y-95718380D01*
X152510809Y-96718380D02*
X152510809Y-95718380D01*
X153082238Y-96718380D01*
X153082238Y-95718380D01*
X153415571Y-95718380D02*
X153987000Y-95718380D01*
X153701285Y-96718380D02*
X153701285Y-95718380D01*
%TO.C,SW1*%
X127531761Y-93992533D02*
X127579380Y-93849676D01*
X127579380Y-93611580D01*
X127531761Y-93516342D01*
X127484142Y-93468723D01*
X127388904Y-93421104D01*
X127293666Y-93421104D01*
X127198428Y-93468723D01*
X127150809Y-93516342D01*
X127103190Y-93611580D01*
X127055571Y-93802057D01*
X127007952Y-93897295D01*
X126960333Y-93944914D01*
X126865095Y-93992533D01*
X126769857Y-93992533D01*
X126674619Y-93944914D01*
X126627000Y-93897295D01*
X126579380Y-93802057D01*
X126579380Y-93563961D01*
X126627000Y-93421104D01*
X126579380Y-93087771D02*
X127579380Y-92849676D01*
X126865095Y-92659200D01*
X127579380Y-92468723D01*
X126579380Y-92230628D01*
X127579380Y-91325866D02*
X127579380Y-91897295D01*
X127579380Y-91611580D02*
X126579380Y-91611580D01*
X126722238Y-91706819D01*
X126817476Y-91802057D01*
X126865095Y-91897295D01*
X125246047Y-96718380D02*
X125246047Y-95718380D01*
X125484142Y-95718380D01*
X125627000Y-95766000D01*
X125722238Y-95861238D01*
X125769857Y-95956476D01*
X125817476Y-96146952D01*
X125817476Y-96289809D01*
X125769857Y-96480285D01*
X125722238Y-96575523D01*
X125627000Y-96670761D01*
X125484142Y-96718380D01*
X125246047Y-96718380D01*
X126817476Y-96718380D02*
X126484142Y-96242190D01*
X126246047Y-96718380D02*
X126246047Y-95718380D01*
X126627000Y-95718380D01*
X126722238Y-95766000D01*
X126769857Y-95813619D01*
X126817476Y-95908857D01*
X126817476Y-96051714D01*
X126769857Y-96146952D01*
X126722238Y-96194571D01*
X126627000Y-96242190D01*
X126246047Y-96242190D01*
X127246047Y-96718380D02*
X127246047Y-95718380D01*
X127579380Y-95718380D02*
X127912714Y-96718380D01*
X128246047Y-95718380D01*
X128579380Y-96194571D02*
X128912714Y-96194571D01*
X129055571Y-96718380D02*
X128579380Y-96718380D01*
X128579380Y-95718380D01*
X129055571Y-95718380D01*
%TO.C,U2*%
X165455695Y-81773780D02*
X165455695Y-82583304D01*
X165503314Y-82678542D01*
X165550933Y-82726161D01*
X165646171Y-82773780D01*
X165836647Y-82773780D01*
X165931885Y-82726161D01*
X165979504Y-82678542D01*
X166027123Y-82583304D01*
X166027123Y-81773780D01*
X166455695Y-81869019D02*
X166503314Y-81821400D01*
X166598552Y-81773780D01*
X166836647Y-81773780D01*
X166931885Y-81821400D01*
X166979504Y-81869019D01*
X167027123Y-81964257D01*
X167027123Y-82059495D01*
X166979504Y-82202352D01*
X166408076Y-82773780D01*
X167027123Y-82773780D01*
X132777976Y-76344761D02*
X132920833Y-76392380D01*
X133158928Y-76392380D01*
X133254166Y-76344761D01*
X133301785Y-76297142D01*
X133349404Y-76201904D01*
X133349404Y-76106666D01*
X133301785Y-76011428D01*
X133254166Y-75963809D01*
X133158928Y-75916190D01*
X132968452Y-75868571D01*
X132873214Y-75820952D01*
X132825595Y-75773333D01*
X132777976Y-75678095D01*
X132777976Y-75582857D01*
X132825595Y-75487619D01*
X132873214Y-75440000D01*
X132968452Y-75392380D01*
X133206547Y-75392380D01*
X133349404Y-75440000D01*
X134349404Y-76297142D02*
X134301785Y-76344761D01*
X134158928Y-76392380D01*
X134063690Y-76392380D01*
X133920833Y-76344761D01*
X133825595Y-76249523D01*
X133777976Y-76154285D01*
X133730357Y-75963809D01*
X133730357Y-75820952D01*
X133777976Y-75630476D01*
X133825595Y-75535238D01*
X133920833Y-75440000D01*
X134063690Y-75392380D01*
X134158928Y-75392380D01*
X134301785Y-75440000D01*
X134349404Y-75487619D01*
X135254166Y-76392380D02*
X134777976Y-76392380D01*
X134777976Y-75392380D01*
X132682738Y-77932380D02*
X133016071Y-78932380D01*
X133349404Y-77932380D01*
X134254166Y-78837142D02*
X134206547Y-78884761D01*
X134063690Y-78932380D01*
X133968452Y-78932380D01*
X133825595Y-78884761D01*
X133730357Y-78789523D01*
X133682738Y-78694285D01*
X133635119Y-78503809D01*
X133635119Y-78360952D01*
X133682738Y-78170476D01*
X133730357Y-78075238D01*
X133825595Y-77980000D01*
X133968452Y-77932380D01*
X134063690Y-77932380D01*
X134206547Y-77980000D01*
X134254166Y-78027619D01*
X135254166Y-78837142D02*
X135206547Y-78884761D01*
X135063690Y-78932380D01*
X134968452Y-78932380D01*
X134825595Y-78884761D01*
X134730357Y-78789523D01*
X134682738Y-78694285D01*
X134635119Y-78503809D01*
X134635119Y-78360952D01*
X134682738Y-78170476D01*
X134730357Y-78075238D01*
X134825595Y-77980000D01*
X134968452Y-77932380D01*
X135063690Y-77932380D01*
X135206547Y-77980000D01*
X135254166Y-78027619D01*
X132777976Y-73804761D02*
X132920833Y-73852380D01*
X133158928Y-73852380D01*
X133254166Y-73804761D01*
X133301785Y-73757142D01*
X133349404Y-73661904D01*
X133349404Y-73566666D01*
X133301785Y-73471428D01*
X133254166Y-73423809D01*
X133158928Y-73376190D01*
X132968452Y-73328571D01*
X132873214Y-73280952D01*
X132825595Y-73233333D01*
X132777976Y-73138095D01*
X132777976Y-73042857D01*
X132825595Y-72947619D01*
X132873214Y-72900000D01*
X132968452Y-72852380D01*
X133206547Y-72852380D01*
X133349404Y-72900000D01*
X133777976Y-73852380D02*
X133777976Y-72852380D01*
X134016071Y-72852380D01*
X134158928Y-72900000D01*
X134254166Y-72995238D01*
X134301785Y-73090476D01*
X134349404Y-73280952D01*
X134349404Y-73423809D01*
X134301785Y-73614285D01*
X134254166Y-73709523D01*
X134158928Y-73804761D01*
X134016071Y-73852380D01*
X133777976Y-73852380D01*
X134730357Y-73566666D02*
X135206547Y-73566666D01*
X134635119Y-73852380D02*
X134968452Y-72852380D01*
X135301785Y-73852380D01*
X133349404Y-80520000D02*
X133254166Y-80472380D01*
X133111309Y-80472380D01*
X132968452Y-80520000D01*
X132873214Y-80615238D01*
X132825595Y-80710476D01*
X132777976Y-80900952D01*
X132777976Y-81043809D01*
X132825595Y-81234285D01*
X132873214Y-81329523D01*
X132968452Y-81424761D01*
X133111309Y-81472380D01*
X133206547Y-81472380D01*
X133349404Y-81424761D01*
X133397023Y-81377142D01*
X133397023Y-81043809D01*
X133206547Y-81043809D01*
X133825595Y-81472380D02*
X133825595Y-80472380D01*
X134397023Y-81472380D01*
X134397023Y-80472380D01*
X134873214Y-81472380D02*
X134873214Y-80472380D01*
X135111309Y-80472380D01*
X135254166Y-80520000D01*
X135349404Y-80615238D01*
X135397023Y-80710476D01*
X135444642Y-80900952D01*
X135444642Y-81043809D01*
X135397023Y-81234285D01*
X135349404Y-81329523D01*
X135254166Y-81424761D01*
X135111309Y-81472380D01*
X134873214Y-81472380D01*
%TO.C,SW4*%
X141061666Y-96924761D02*
X141204523Y-96972380D01*
X141442619Y-96972380D01*
X141537857Y-96924761D01*
X141585476Y-96877142D01*
X141633095Y-96781904D01*
X141633095Y-96686666D01*
X141585476Y-96591428D01*
X141537857Y-96543809D01*
X141442619Y-96496190D01*
X141252142Y-96448571D01*
X141156904Y-96400952D01*
X141109285Y-96353333D01*
X141061666Y-96258095D01*
X141061666Y-96162857D01*
X141109285Y-96067619D01*
X141156904Y-96020000D01*
X141252142Y-95972380D01*
X141490238Y-95972380D01*
X141633095Y-96020000D01*
X141966428Y-95972380D02*
X142204523Y-96972380D01*
X142395000Y-96258095D01*
X142585476Y-96972380D01*
X142823571Y-95972380D01*
X143633095Y-96305714D02*
X143633095Y-96972380D01*
X143395000Y-95924761D02*
X143156904Y-96639047D01*
X143775952Y-96639047D01*
X140514047Y-94559380D02*
X140514047Y-93559380D01*
X140752142Y-93559380D01*
X140895000Y-93607000D01*
X140990238Y-93702238D01*
X141037857Y-93797476D01*
X141085476Y-93987952D01*
X141085476Y-94130809D01*
X141037857Y-94321285D01*
X140990238Y-94416523D01*
X140895000Y-94511761D01*
X140752142Y-94559380D01*
X140514047Y-94559380D01*
X141704523Y-93559380D02*
X141895000Y-93559380D01*
X141990238Y-93607000D01*
X142085476Y-93702238D01*
X142133095Y-93892714D01*
X142133095Y-94226047D01*
X142085476Y-94416523D01*
X141990238Y-94511761D01*
X141895000Y-94559380D01*
X141704523Y-94559380D01*
X141609285Y-94511761D01*
X141514047Y-94416523D01*
X141466428Y-94226047D01*
X141466428Y-93892714D01*
X141514047Y-93702238D01*
X141609285Y-93607000D01*
X141704523Y-93559380D01*
X142466428Y-93559380D02*
X142704523Y-94559380D01*
X142895000Y-93845095D01*
X143085476Y-94559380D01*
X143323571Y-93559380D01*
X143704523Y-94559380D02*
X143704523Y-93559380D01*
X144275952Y-94559380D01*
X144275952Y-93559380D01*
D11*
%TO.C,U1*%
X174000000Y-66000000D02*
X174000000Y-104000000D01*
X174000000Y-66000000D02*
X120000000Y-66000000D01*
X174000000Y-104000000D02*
X120000000Y-104000000D01*
X120000000Y-66000000D02*
X120000000Y-104000000D01*
D12*
%TO.C,SW2*%
X133505000Y-94729200D02*
X133205000Y-94729200D01*
X133205000Y-94729200D02*
X133205000Y-90589200D01*
X133205000Y-90589200D02*
X133505000Y-90589200D01*
X136045000Y-90589200D02*
X136345000Y-90589200D01*
X136345000Y-90589200D02*
X136345000Y-94729200D01*
X136345000Y-94729200D02*
X136045000Y-94729200D01*
%TO.C,SW3*%
X144465000Y-90119200D02*
X144465000Y-90419200D01*
X140325000Y-87279200D02*
X144465000Y-87279200D01*
X144465000Y-87279200D02*
X144465000Y-87579200D01*
X144465000Y-90419200D02*
X140325000Y-90419200D01*
X140325000Y-87579200D02*
X140325000Y-87279200D01*
X140325000Y-90419200D02*
X140325000Y-90119200D01*
%TO.C,SW6*%
X156365000Y-94729200D02*
X156065000Y-94729200D01*
X158905000Y-90589200D02*
X159205000Y-90589200D01*
X159205000Y-94729200D02*
X158905000Y-94729200D01*
X156065000Y-90589200D02*
X156365000Y-90589200D01*
X156065000Y-94729200D02*
X156065000Y-90589200D01*
X159205000Y-90589200D02*
X159205000Y-94729200D01*
%TO.C,D1*%
X124036800Y-77511000D02*
X124192800Y-77511000D01*
X126352800Y-77511000D02*
X126508800Y-77511000D01*
X124192963Y-74909870D02*
G75*
G03*
X124192800Y-76991961I1079837J-1041130D01*
G01*
X126352800Y-76991961D02*
G75*
G03*
X126352637Y-74909870I-1080000J1040961D01*
G01*
X124194192Y-74278665D02*
G75*
G03*
X124037284Y-77511000I1078608J-1672335D01*
G01*
X126508316Y-77511000D02*
G75*
G03*
X126351408Y-74278665I-1235516J1560000D01*
G01*
%TO.C,SW7*%
X166525000Y-94729200D02*
X166225000Y-94729200D01*
X169065000Y-90589200D02*
X169365000Y-90589200D01*
X169365000Y-94729200D02*
X169065000Y-94729200D01*
X166225000Y-90589200D02*
X166525000Y-90589200D01*
X166225000Y-94729200D02*
X166225000Y-90589200D01*
X169365000Y-90589200D02*
X169365000Y-94729200D01*
%TO.C,SW5*%
X151585000Y-94729200D02*
X151285000Y-94729200D01*
X148445000Y-94729200D02*
X148445000Y-90589200D01*
X148445000Y-90589200D02*
X148745000Y-90589200D01*
X151585000Y-90589200D02*
X151585000Y-94729200D01*
X148745000Y-94729200D02*
X148445000Y-94729200D01*
X151285000Y-90589200D02*
X151585000Y-90589200D01*
%TO.C,SW1*%
X125885000Y-94729200D02*
X125585000Y-94729200D01*
X128725000Y-90589200D02*
X128725000Y-94729200D01*
X128725000Y-94729200D02*
X128425000Y-94729200D01*
X128425000Y-90589200D02*
X128725000Y-90589200D01*
X125585000Y-90589200D02*
X125885000Y-90589200D01*
X125585000Y-94729200D02*
X125585000Y-90589200D01*
%TO.C,U2*%
X129950000Y-71210000D02*
X167950000Y-71210000D01*
X167950000Y-71210000D02*
X167950000Y-83210000D01*
X167950000Y-83210000D02*
X129950000Y-83210000D01*
X129950000Y-83210000D02*
X129950000Y-71210000D01*
%TO.C,SW4*%
X144465000Y-98039200D02*
X140325000Y-98039200D01*
X140325000Y-98039200D02*
X140325000Y-97739200D01*
X140325000Y-95199200D02*
X140325000Y-94899200D01*
X144465000Y-97739200D02*
X144465000Y-98039200D01*
X144465000Y-94899200D02*
X144465000Y-95199200D01*
X140325000Y-94899200D02*
X144465000Y-94899200D01*
%TD*%
M02*
