%TF.GenerationSoftware,KiCad,Pcbnew,(6.0.8)*%
%TF.CreationDate,2022-11-19T01:29:10-06:00*%
%TF.ProjectId,coleco-adam-ade-pro-embed-shield,636f6c65-636f-42d6-9164-616d2d616465,rev?*%
%TF.SameCoordinates,Original*%
%TF.FileFunction,Paste,Bot*%
%TF.FilePolarity,Positive*%
%FSLAX46Y46*%
G04 Gerber Fmt 4.6, Leading zero omitted, Abs format (unit mm)*
G04 Created by KiCad (PCBNEW (6.0.8)) date 2022-11-19 01:29:10*
%MOMM*%
%LPD*%
G01*
G04 APERTURE LIST*
G04 Aperture macros list*
%AMRoundRect*
0 Rectangle with rounded corners*
0 $1 Rounding radius*
0 $2 $3 $4 $5 $6 $7 $8 $9 X,Y pos of 4 corners*
0 Add a 4 corners polygon primitive as box body*
4,1,4,$2,$3,$4,$5,$6,$7,$8,$9,$2,$3,0*
0 Add four circle primitives for the rounded corners*
1,1,$1+$1,$2,$3*
1,1,$1+$1,$4,$5*
1,1,$1+$1,$6,$7*
1,1,$1+$1,$8,$9*
0 Add four rect primitives between the rounded corners*
20,1,$1+$1,$2,$3,$4,$5,0*
20,1,$1+$1,$4,$5,$6,$7,0*
20,1,$1+$1,$6,$7,$8,$9,0*
20,1,$1+$1,$8,$9,$2,$3,0*%
G04 Aperture macros list end*
%ADD10RoundRect,0.250000X-0.350000X-0.450000X0.350000X-0.450000X0.350000X0.450000X-0.350000X0.450000X0*%
%ADD11RoundRect,0.250000X-0.450000X0.350000X-0.450000X-0.350000X0.450000X-0.350000X0.450000X0.350000X0*%
%ADD12RoundRect,0.250001X0.924999X-0.499999X0.924999X0.499999X-0.924999X0.499999X-0.924999X-0.499999X0*%
%ADD13RoundRect,0.250000X-0.337500X-0.475000X0.337500X-0.475000X0.337500X0.475000X-0.337500X0.475000X0*%
%ADD14RoundRect,0.150000X-0.587500X-0.150000X0.587500X-0.150000X0.587500X0.150000X-0.587500X0.150000X0*%
%ADD15R,1.600000X0.700000*%
%ADD16R,1.600000X1.400000*%
%ADD17R,2.200000X1.400000*%
%ADD18R,1.400000X1.800000*%
%ADD19RoundRect,0.250000X0.550000X-1.250000X0.550000X1.250000X-0.550000X1.250000X-0.550000X-1.250000X0*%
%ADD20RoundRect,0.150000X0.825000X0.150000X-0.825000X0.150000X-0.825000X-0.150000X0.825000X-0.150000X0*%
G04 APERTURE END LIST*
D10*
%TO.C,R3*%
X143653000Y-73507600D03*
X145653000Y-73507600D03*
%TD*%
D11*
%TO.C,R2*%
X150241000Y-77333600D03*
X150241000Y-79333600D03*
%TD*%
%TO.C,R4*%
X148082000Y-92599000D03*
X148082000Y-94599000D03*
%TD*%
D12*
%TO.C,C2*%
X154203400Y-87959600D03*
X154203400Y-84709600D03*
%TD*%
D11*
%TO.C,R6*%
X150088600Y-86909400D03*
X150088600Y-88909400D03*
%TD*%
D13*
%TO.C,C1*%
X133684100Y-85420200D03*
X135759100Y-85420200D03*
%TD*%
D14*
%TO.C,Q1*%
X144858500Y-79309000D03*
X144858500Y-77409000D03*
X146733500Y-78359000D03*
%TD*%
D11*
%TO.C,R7*%
X147624800Y-86934800D03*
X147624800Y-88934800D03*
%TD*%
%TO.C,R8*%
X150495000Y-92599000D03*
X150495000Y-94599000D03*
%TD*%
D15*
%TO.C,P1*%
X162259200Y-97271400D03*
X162259200Y-96171400D03*
X162259200Y-95071400D03*
X162259200Y-93971400D03*
X162259200Y-92871400D03*
X162259200Y-91771400D03*
X162259200Y-90671400D03*
X162259200Y-89571400D03*
X162259200Y-88471400D03*
D16*
X162859200Y-87171400D03*
D17*
X172359200Y-87171400D03*
X172359200Y-102871400D03*
D18*
X162759200Y-101971400D03*
%TD*%
D19*
%TO.C,C3*%
X154863800Y-81651200D03*
X154863800Y-77251200D03*
%TD*%
D20*
%TO.C,U3*%
X135748800Y-87630000D03*
X135748800Y-88900000D03*
X135748800Y-90170000D03*
X135748800Y-91440000D03*
X135748800Y-92710000D03*
X135748800Y-93980000D03*
X135748800Y-95250000D03*
X135748800Y-96520000D03*
X130798800Y-96520000D03*
X130798800Y-95250000D03*
X130798800Y-93980000D03*
X130798800Y-92710000D03*
X130798800Y-91440000D03*
X130798800Y-90170000D03*
X130798800Y-88900000D03*
X130798800Y-87630000D03*
%TD*%
D11*
%TO.C,R1*%
X141401800Y-77308200D03*
X141401800Y-79308200D03*
%TD*%
%TO.C,R5*%
X145796000Y-92599000D03*
X145796000Y-94599000D03*
%TD*%
M02*
