%TF.GenerationSoftware,KiCad,Pcbnew,(6.0.8)*%
%TF.CreationDate,2022-11-19T01:29:10-06:00*%
%TF.ProjectId,coleco-adam-ade-pro-embed-shield,636f6c65-636f-42d6-9164-616d2d616465,rev?*%
%TF.SameCoordinates,Original*%
%TF.FileFunction,Soldermask,Top*%
%TF.FilePolarity,Negative*%
%FSLAX46Y46*%
G04 Gerber Fmt 4.6, Leading zero omitted, Abs format (unit mm)*
G04 Created by KiCad (PCBNEW (6.0.8)) date 2022-11-19 01:29:10*
%MOMM*%
%LPD*%
G01*
G04 APERTURE LIST*
G04 Aperture macros list*
%AMRoundRect*
0 Rectangle with rounded corners*
0 $1 Rounding radius*
0 $2 $3 $4 $5 $6 $7 $8 $9 X,Y pos of 4 corners*
0 Add a 4 corners polygon primitive as box body*
4,1,4,$2,$3,$4,$5,$6,$7,$8,$9,$2,$3,0*
0 Add four circle primitives for the rounded corners*
1,1,$1+$1,$2,$3*
1,1,$1+$1,$4,$5*
1,1,$1+$1,$6,$7*
1,1,$1+$1,$8,$9*
0 Add four rect primitives between the rounded corners*
20,1,$1+$1,$2,$3,$4,$5,0*
20,1,$1+$1,$4,$5,$6,$7,0*
20,1,$1+$1,$6,$7,$8,$9,0*
20,1,$1+$1,$8,$9,$2,$3,0*%
G04 Aperture macros list end*
%ADD10C,3.200000*%
%ADD11C,1.676400*%
%ADD12RoundRect,0.200000X0.800000X-0.200000X0.800000X0.200000X-0.800000X0.200000X-0.800000X-0.200000X0*%
%ADD13RoundRect,0.200000X-0.200000X-0.800000X0.200000X-0.800000X0.200000X0.800000X-0.200000X0.800000X0*%
%ADD14R,1.800000X1.800000*%
%ADD15C,1.800000*%
%ADD16C,1.524000*%
%ADD17C,3.250000*%
%ADD18R,1.520000X1.520000*%
%ADD19C,1.520000*%
%ADD20C,0.900000*%
G04 APERTURE END LIST*
D10*
%TO.C,U1*%
X122670000Y-88710000D03*
D11*
X164580000Y-67220000D03*
X164580000Y-69760000D03*
X167120000Y-67220000D03*
X167120000Y-69760000D03*
X121400000Y-85000000D03*
X159500000Y-102780000D03*
X159500000Y-100240000D03*
X156960000Y-102780000D03*
X156960000Y-100240000D03*
X154420000Y-102780000D03*
X154420000Y-100240000D03*
X151880000Y-102780000D03*
X151880000Y-100240000D03*
X149340000Y-102780000D03*
X149340000Y-100240000D03*
X146800000Y-102780000D03*
X146800000Y-100240000D03*
X144260000Y-102780000D03*
X144260000Y-100240000D03*
X141720000Y-102780000D03*
X141720000Y-100240000D03*
X162040000Y-69760000D03*
X156960000Y-69760000D03*
X156960000Y-67220000D03*
X154420000Y-69760000D03*
X154420000Y-67220000D03*
X151880000Y-69760000D03*
X151880000Y-67220000D03*
X149340000Y-69760000D03*
X149340000Y-67220000D03*
X146800000Y-69760000D03*
X146800000Y-67220000D03*
X144260000Y-69760000D03*
X144260000Y-67220000D03*
X141720000Y-69760000D03*
X141720000Y-67220000D03*
X139180000Y-69760000D03*
X139180000Y-67220000D03*
X136640000Y-69760000D03*
X136640000Y-67220000D03*
X134100000Y-69760000D03*
X134100000Y-67220000D03*
X131560000Y-69760000D03*
X131560000Y-67220000D03*
X129020000Y-69760000D03*
X129020000Y-67220000D03*
X126480000Y-69760000D03*
X126480000Y-67220000D03*
X123940000Y-69760000D03*
X123940000Y-67220000D03*
X121400000Y-69760000D03*
X121400000Y-67220000D03*
X139180000Y-102780000D03*
X139180000Y-100240000D03*
X136640000Y-102780000D03*
X136640000Y-100240000D03*
X134100000Y-102780000D03*
X134100000Y-100240000D03*
X131560000Y-102780000D03*
X131560000Y-100240000D03*
X129020000Y-102780000D03*
X129020000Y-100240000D03*
X126480000Y-102780000D03*
X126480000Y-100240000D03*
X123940000Y-102780000D03*
X123940000Y-100240000D03*
X121400000Y-102780000D03*
X121400000Y-100240000D03*
X121400000Y-97700000D03*
X123940000Y-97700000D03*
X121400000Y-95160000D03*
X123940000Y-95160000D03*
X121400000Y-92620000D03*
X123940000Y-92620000D03*
X169660000Y-67220000D03*
X169660000Y-69760000D03*
X121400000Y-79920000D03*
X123940000Y-85000000D03*
X121400000Y-82460000D03*
X123940000Y-79920000D03*
X162040000Y-67220000D03*
X159500000Y-69760000D03*
X123940000Y-82460000D03*
X159500000Y-67220000D03*
X172200000Y-67220000D03*
X172200000Y-69760000D03*
%TD*%
D12*
%TO.C,SW2*%
X134775000Y-94759200D03*
X134775000Y-90559200D03*
%TD*%
D13*
%TO.C,SW3*%
X140295000Y-88849200D03*
X144495000Y-88849200D03*
%TD*%
D12*
%TO.C,SW6*%
X157635000Y-94759200D03*
X157635000Y-90559200D03*
%TD*%
D14*
%TO.C,D1*%
X125272800Y-77221000D03*
D15*
X125272800Y-74681000D03*
%TD*%
D12*
%TO.C,SW7*%
X167795000Y-94759200D03*
X167795000Y-90559200D03*
%TD*%
%TO.C,SW5*%
X150015000Y-94759200D03*
X150015000Y-90559200D03*
%TD*%
%TO.C,SW1*%
X127155000Y-94759200D03*
X127155000Y-90559200D03*
%TD*%
D16*
%TO.C,U2*%
X131220000Y-73400000D03*
X131220000Y-75940000D03*
X131220000Y-78480000D03*
X131220000Y-81020000D03*
%TD*%
D13*
%TO.C,SW4*%
X140295000Y-96469200D03*
X144495000Y-96469200D03*
%TD*%
D17*
%TO.C,J2*%
X169115600Y-72999600D03*
X169115600Y-83159600D03*
D18*
X160225600Y-74909600D03*
D19*
X162765600Y-76179600D03*
X160225600Y-77449600D03*
X162765600Y-78719600D03*
X160225600Y-79989600D03*
X162765600Y-81259600D03*
%TD*%
D20*
%TO.C,P1*%
X172759200Y-90071400D03*
X172759200Y-98071400D03*
%TD*%
M02*
