%TF.GenerationSoftware,KiCad,Pcbnew,(6.0.8)*%
%TF.CreationDate,2022-11-19T01:29:10-06:00*%
%TF.ProjectId,coleco-adam-ade-pro-embed-shield,636f6c65-636f-42d6-9164-616d2d616465,rev?*%
%TF.SameCoordinates,Original*%
%TF.FileFunction,Copper,L1,Top*%
%TF.FilePolarity,Positive*%
%FSLAX46Y46*%
G04 Gerber Fmt 4.6, Leading zero omitted, Abs format (unit mm)*
G04 Created by KiCad (PCBNEW (6.0.8)) date 2022-11-19 01:29:10*
%MOMM*%
%LPD*%
G01*
G04 APERTURE LIST*
G04 Aperture macros list*
%AMRoundRect*
0 Rectangle with rounded corners*
0 $1 Rounding radius*
0 $2 $3 $4 $5 $6 $7 $8 $9 X,Y pos of 4 corners*
0 Add a 4 corners polygon primitive as box body*
4,1,4,$2,$3,$4,$5,$6,$7,$8,$9,$2,$3,0*
0 Add four circle primitives for the rounded corners*
1,1,$1+$1,$2,$3*
1,1,$1+$1,$4,$5*
1,1,$1+$1,$6,$7*
1,1,$1+$1,$8,$9*
0 Add four rect primitives between the rounded corners*
20,1,$1+$1,$2,$3,$4,$5,0*
20,1,$1+$1,$4,$5,$6,$7,0*
20,1,$1+$1,$6,$7,$8,$9,0*
20,1,$1+$1,$8,$9,$2,$3,0*%
G04 Aperture macros list end*
%TA.AperFunction,ComponentPad*%
%ADD10C,1.676400*%
%TD*%
%TA.AperFunction,SMDPad,CuDef*%
%ADD11RoundRect,0.200000X0.800000X-0.200000X0.800000X0.200000X-0.800000X0.200000X-0.800000X-0.200000X0*%
%TD*%
%TA.AperFunction,SMDPad,CuDef*%
%ADD12RoundRect,0.200000X-0.200000X-0.800000X0.200000X-0.800000X0.200000X0.800000X-0.200000X0.800000X0*%
%TD*%
%TA.AperFunction,ComponentPad*%
%ADD13R,1.800000X1.800000*%
%TD*%
%TA.AperFunction,ComponentPad*%
%ADD14C,1.800000*%
%TD*%
%TA.AperFunction,ComponentPad*%
%ADD15C,1.524000*%
%TD*%
%TA.AperFunction,ComponentPad*%
%ADD16R,1.520000X1.520000*%
%TD*%
%TA.AperFunction,ComponentPad*%
%ADD17C,1.520000*%
%TD*%
%TA.AperFunction,ViaPad*%
%ADD18C,0.800000*%
%TD*%
%TA.AperFunction,Conductor*%
%ADD19C,0.250000*%
%TD*%
%TA.AperFunction,Conductor*%
%ADD20C,0.700000*%
%TD*%
G04 APERTURE END LIST*
D10*
%TO.P,U1,3V3_1,3V3*%
%TO.N,+3.3V*%
X164580000Y-67220000D03*
%TO.P,U1,3V3_2,3V3*%
X164580000Y-69760000D03*
%TO.P,U1,5V_1,5V*%
%TO.N,+5V*%
X167120000Y-67220000D03*
%TO.P,U1,5V_2,5V*%
X167120000Y-69760000D03*
%TO.P,U1,5V_3,5V*%
X121400000Y-85000000D03*
%TO.P,U1,A0,A0*%
%TO.N,unconnected-(U1-PadA0)*%
X159500000Y-102780000D03*
%TO.P,U1,A1,A1*%
%TO.N,unconnected-(U1-PadA1)*%
X159500000Y-100240000D03*
%TO.P,U1,A2,A2*%
%TO.N,unconnected-(U1-PadA2)*%
X156960000Y-102780000D03*
%TO.P,U1,A3,A3*%
%TO.N,unconnected-(U1-PadA3)*%
X156960000Y-100240000D03*
%TO.P,U1,A4,A4*%
%TO.N,unconnected-(U1-PadA4)*%
X154420000Y-102780000D03*
%TO.P,U1,A5,A5*%
%TO.N,unconnected-(U1-PadA5)*%
X154420000Y-100240000D03*
%TO.P,U1,A6,A6*%
%TO.N,unconnected-(U1-PadA6)*%
X151880000Y-102780000D03*
%TO.P,U1,A7,A7*%
%TO.N,unconnected-(U1-PadA7)*%
X151880000Y-100240000D03*
%TO.P,U1,A8,A8*%
%TO.N,unconnected-(U1-PadA8)*%
X149340000Y-102780000D03*
%TO.P,U1,A9,A9*%
%TO.N,unconnected-(U1-PadA9)*%
X149340000Y-100240000D03*
%TO.P,U1,A10,A10*%
%TO.N,unconnected-(U1-PadA10)*%
X146800000Y-102780000D03*
%TO.P,U1,A11,A11*%
%TO.N,unconnected-(U1-PadA11)*%
X146800000Y-100240000D03*
%TO.P,U1,A12,A12*%
%TO.N,unconnected-(U1-PadA12)*%
X144260000Y-102780000D03*
%TO.P,U1,A13,A13*%
%TO.N,unconnected-(U1-PadA13)*%
X144260000Y-100240000D03*
%TO.P,U1,A14,A14*%
%TO.N,unconnected-(U1-PadA14)*%
X141720000Y-102780000D03*
%TO.P,U1,A15,A15*%
%TO.N,unconnected-(U1-PadA15)*%
X141720000Y-100240000D03*
%TO.P,U1,AREF,AREF*%
%TO.N,unconnected-(U1-PadAREF)*%
X162040000Y-69760000D03*
%TO.P,U1,D2,D2*%
%TO.N,/AdamNetReset*%
X156960000Y-69760000D03*
%TO.P,U1,D3,D3*%
%TO.N,/AdamNetRx*%
X156960000Y-67220000D03*
%TO.P,U1,D4,D4*%
%TO.N,unconnected-(U1-PadD4)*%
X154420000Y-69760000D03*
%TO.P,U1,D5,D5*%
%TO.N,unconnected-(U1-PadD5)*%
X154420000Y-67220000D03*
%TO.P,U1,D6,D6*%
%TO.N,unconnected-(U1-PadD6)*%
X151880000Y-69760000D03*
%TO.P,U1,D7,D7*%
%TO.N,unconnected-(U1-PadD7)*%
X151880000Y-67220000D03*
%TO.P,U1,D8,D8*%
%TO.N,unconnected-(U1-PadD8)*%
X149340000Y-69760000D03*
%TO.P,U1,D9,D9*%
%TO.N,unconnected-(U1-PadD9)*%
X149340000Y-67220000D03*
%TO.P,U1,D10,D10*%
%TO.N,unconnected-(U1-PadD10)*%
X146800000Y-69760000D03*
%TO.P,U1,D11,D11*%
%TO.N,unconnected-(U1-PadD11)*%
X146800000Y-67220000D03*
%TO.P,U1,D12,D12*%
%TO.N,unconnected-(U1-PadD12)*%
X144260000Y-69760000D03*
%TO.P,U1,D13,D13*%
%TO.N,/D13*%
X144260000Y-67220000D03*
%TO.P,U1,D14,D14*%
%TO.N,unconnected-(U1-PadD14)*%
X141720000Y-69760000D03*
%TO.P,U1,D15,D15*%
%TO.N,unconnected-(U1-PadD15)*%
X141720000Y-67220000D03*
%TO.P,U1,D16,D16*%
%TO.N,unconnected-(U1-PadD16)*%
X139180000Y-69760000D03*
%TO.P,U1,D17,D17*%
%TO.N,unconnected-(U1-PadD17)*%
X139180000Y-67220000D03*
%TO.P,U1,D18,D18*%
%TO.N,unconnected-(U1-PadD18)*%
X136640000Y-69760000D03*
%TO.P,U1,D19,D19*%
%TO.N,/AdamNetTx*%
X136640000Y-67220000D03*
%TO.P,U1,D20,D20*%
%TO.N,/D20*%
X134100000Y-69760000D03*
%TO.P,U1,D21,D21*%
%TO.N,/D21*%
X134100000Y-67220000D03*
%TO.P,U1,D22,D22*%
%TO.N,unconnected-(U1-PadD22)*%
X131560000Y-69760000D03*
%TO.P,U1,D23,D23*%
%TO.N,unconnected-(U1-PadD23)*%
X131560000Y-67220000D03*
%TO.P,U1,D24,D24*%
%TO.N,unconnected-(U1-PadD24)*%
X129020000Y-69760000D03*
%TO.P,U1,D25,D25*%
%TO.N,unconnected-(U1-PadD25)*%
X129020000Y-67220000D03*
%TO.P,U1,D26,D26*%
%TO.N,unconnected-(U1-PadD26)*%
X126480000Y-69760000D03*
%TO.P,U1,D27,D27*%
%TO.N,unconnected-(U1-PadD27)*%
X126480000Y-67220000D03*
%TO.P,U1,D28,D28*%
%TO.N,unconnected-(U1-PadD28)*%
X123940000Y-69760000D03*
%TO.P,U1,D29,D29*%
%TO.N,unconnected-(U1-PadD29)*%
X123940000Y-67220000D03*
%TO.P,U1,D30,D30*%
%TO.N,unconnected-(U1-PadD30)*%
X121400000Y-69760000D03*
%TO.P,U1,D31,D31*%
%TO.N,unconnected-(U1-PadD31)*%
X121400000Y-67220000D03*
%TO.P,U1,D32,D32*%
%TO.N,unconnected-(U1-PadD32)*%
X139180000Y-102780000D03*
%TO.P,U1,D33,D33*%
%TO.N,/D33*%
X139180000Y-100240000D03*
%TO.P,U1,D34,D34*%
%TO.N,unconnected-(U1-PadD34)*%
X136640000Y-102780000D03*
%TO.P,U1,D35,D35*%
%TO.N,/D35*%
X136640000Y-100240000D03*
%TO.P,U1,D36,D36*%
%TO.N,unconnected-(U1-PadD36)*%
X134100000Y-102780000D03*
%TO.P,U1,D37,D37*%
%TO.N,/D37*%
X134100000Y-100240000D03*
%TO.P,U1,D38,D38*%
%TO.N,unconnected-(U1-PadD38)*%
X131560000Y-102780000D03*
%TO.P,U1,D39,D39*%
%TO.N,/D39*%
X131560000Y-100240000D03*
%TO.P,U1,D40,D40*%
%TO.N,unconnected-(U1-PadD40)*%
X129020000Y-102780000D03*
%TO.P,U1,D41,D41*%
%TO.N,/D41*%
X129020000Y-100240000D03*
%TO.P,U1,D42,D42*%
%TO.N,unconnected-(U1-PadD42)*%
X126480000Y-102780000D03*
%TO.P,U1,D43,D43*%
%TO.N,/D43*%
X126480000Y-100240000D03*
%TO.P,U1,D44,D44*%
%TO.N,unconnected-(U1-PadD44)*%
X123940000Y-102780000D03*
%TO.P,U1,D45,D45*%
%TO.N,unconnected-(U1-PadD45)*%
X123940000Y-100240000D03*
%TO.P,U1,D46,D46*%
%TO.N,unconnected-(U1-PadD46)*%
X121400000Y-102780000D03*
%TO.P,U1,D47,D47*%
%TO.N,unconnected-(U1-PadD47)*%
X121400000Y-100240000D03*
%TO.P,U1,D48,D48*%
%TO.N,unconnected-(U1-PadD48)*%
X121400000Y-97700000D03*
%TO.P,U1,D49,D49*%
%TO.N,unconnected-(U1-PadD49)*%
X123940000Y-97700000D03*
%TO.P,U1,D50,D50*%
%TO.N,/MISO*%
X121400000Y-95160000D03*
%TO.P,U1,D51,D51*%
%TO.N,/MOSI*%
X123940000Y-95160000D03*
%TO.P,U1,D52,D52*%
%TO.N,/SCK*%
X121400000Y-92620000D03*
%TO.P,U1,D53,D53*%
%TO.N,/CS*%
X123940000Y-92620000D03*
%TO.P,U1,GND_1,GND*%
%TO.N,GND*%
X169660000Y-67220000D03*
%TO.P,U1,GND_2,GND*%
X169660000Y-69760000D03*
%TO.P,U1,GND_3,GND*%
X121400000Y-79920000D03*
%TO.P,U1,MISO,MISO*%
%TO.N,unconnected-(U1-PadMISO)*%
X123940000Y-85000000D03*
%TO.P,U1,MOSI,MOSI*%
%TO.N,unconnected-(U1-PadMOSI)*%
X121400000Y-82460000D03*
%TO.P,U1,RESET,RESET*%
%TO.N,/RESET*%
X123940000Y-79920000D03*
%TO.P,U1,RST,RST*%
%TO.N,unconnected-(U1-PadRST)*%
X162040000Y-67220000D03*
%TO.P,U1,RX,RX*%
%TO.N,unconnected-(U1-PadRX)*%
X159500000Y-69760000D03*
%TO.P,U1,SCK,SCK*%
%TO.N,unconnected-(U1-PadSCK)*%
X123940000Y-82460000D03*
%TO.P,U1,TX,TX*%
%TO.N,unconnected-(U1-PadTX)*%
X159500000Y-67220000D03*
%TO.P,U1,VIN_1,VIN*%
%TO.N,Net-(U1-PadVIN_1)*%
X172200000Y-67220000D03*
%TO.P,U1,VIN_2,VIN*%
X172200000Y-69760000D03*
%TD*%
D11*
%TO.P,SW2,1,1*%
%TO.N,/D41*%
X134775000Y-94759200D03*
%TO.P,SW2,2,2*%
%TO.N,GND*%
X134775000Y-90559200D03*
%TD*%
D12*
%TO.P,SW3,1,1*%
%TO.N,/D39*%
X140295000Y-88849200D03*
%TO.P,SW3,2,2*%
%TO.N,GND*%
X144495000Y-88849200D03*
%TD*%
D11*
%TO.P,SW6,1,1*%
%TO.N,/D37*%
X157635000Y-94759200D03*
%TO.P,SW6,2,2*%
%TO.N,GND*%
X157635000Y-90559200D03*
%TD*%
D13*
%TO.P,D1,1,K*%
%TO.N,GND*%
X125272800Y-77221000D03*
D14*
%TO.P,D1,2,A*%
%TO.N,Net-(D1-Pad2)*%
X125272800Y-74681000D03*
%TD*%
D11*
%TO.P,SW7,1,1*%
%TO.N,/RESET*%
X167795000Y-94759200D03*
%TO.P,SW7,2,2*%
%TO.N,GND*%
X167795000Y-90559200D03*
%TD*%
%TO.P,SW5,1,1*%
%TO.N,/D35*%
X150015000Y-94759200D03*
%TO.P,SW5,2,2*%
%TO.N,GND*%
X150015000Y-90559200D03*
%TD*%
%TO.P,SW1,1,1*%
%TO.N,/D43*%
X127155000Y-94759200D03*
%TO.P,SW1,2,2*%
%TO.N,GND*%
X127155000Y-90559200D03*
%TD*%
D15*
%TO.P,U2,4,SDA*%
%TO.N,/D20*%
X131220000Y-73400000D03*
%TO.P,U2,3,SCL*%
%TO.N,/D21*%
X131220000Y-75940000D03*
%TO.P,U2,2,VCC*%
%TO.N,+5V*%
X131220000Y-78480000D03*
%TO.P,U2,1,GND*%
%TO.N,GND*%
X131220000Y-81020000D03*
%TD*%
D12*
%TO.P,SW4,1,1*%
%TO.N,/D33*%
X140295000Y-96469200D03*
%TO.P,SW4,2,2*%
%TO.N,GND*%
X144495000Y-96469200D03*
%TD*%
D16*
%TO.P,J2,1*%
%TO.N,/AdamNetRx*%
X160225600Y-74909600D03*
D17*
%TO.P,J2,2*%
%TO.N,/AdamNetReset*%
X162765600Y-76179600D03*
%TO.P,J2,3*%
%TO.N,GND*%
X160225600Y-77449600D03*
%TO.P,J2,4*%
X162765600Y-78719600D03*
%TO.P,J2,5*%
X160225600Y-79989600D03*
%TO.P,J2,6*%
%TO.N,+5V*%
X162765600Y-81259600D03*
%TD*%
D18*
%TO.N,GND*%
X127254000Y-92710000D03*
X127254000Y-96139000D03*
X138303000Y-90678000D03*
%TO.N,+5V*%
X144881600Y-75717400D03*
%TO.N,Net-(D1-Pad2)*%
X136931400Y-71932800D03*
X139065000Y-71932800D03*
%TO.N,Net-(P1-Pad2)*%
X146812000Y-97155000D03*
X148082000Y-95758000D03*
%TO.N,Net-(P1-Pad5)*%
X142875000Y-91567000D03*
X160147000Y-92329000D03*
%TO.N,/MISO*%
X145161000Y-85344000D03*
X155448000Y-90652600D03*
X152654000Y-90652600D03*
%TO.N,Net-(P1-Pad8)*%
X152679400Y-89560400D03*
X155422600Y-89560400D03*
%TD*%
D19*
%TO.N,/MISO*%
X129413000Y-85344000D02*
X145161000Y-85344000D01*
X122656600Y-92100400D02*
X129413000Y-85344000D01*
X122656600Y-93903400D02*
X122656600Y-92100400D01*
X121400000Y-95160000D02*
X122656600Y-93903400D01*
%TO.N,/AdamNetRx*%
X155702000Y-70358000D02*
X160225600Y-74881600D01*
X155702000Y-68478000D02*
X155702000Y-70358000D01*
X156960000Y-67220000D02*
X155702000Y-68478000D01*
D20*
%TO.N,Net-(U1-PadVIN_1)*%
X172200000Y-67220000D02*
X172200000Y-69760000D01*
D19*
%TO.N,/D33*%
X140295000Y-96469200D02*
X139180000Y-97584200D01*
X139180000Y-97584200D02*
X139180000Y-100240000D01*
%TO.N,/D35*%
X150015000Y-94759200D02*
X149464400Y-94208600D01*
X149464400Y-94208600D02*
X139928600Y-94208600D01*
X136640000Y-97497200D02*
X136640000Y-100240000D01*
X139928600Y-94208600D02*
X136640000Y-97497200D01*
%TO.N,/D37*%
X157635000Y-94759200D02*
X155535000Y-92659200D01*
X155535000Y-92659200D02*
X140462000Y-92659200D01*
X140462000Y-92659200D02*
X134100000Y-99021200D01*
X134100000Y-99021200D02*
X134100000Y-100240000D01*
%TO.N,/D43*%
X127155000Y-94759200D02*
X126480000Y-95434200D01*
X126480000Y-95434200D02*
X126480000Y-100240000D01*
%TO.N,/D41*%
X134500800Y-94759200D02*
X129020000Y-100240000D01*
X134775000Y-94759200D02*
X134500800Y-94759200D01*
%TO.N,/D39*%
X140295000Y-88849200D02*
X140295000Y-91835600D01*
X131890600Y-100240000D02*
X131560000Y-100240000D01*
X140295000Y-91835600D02*
X131890600Y-100240000D01*
%TO.N,/AdamNetRx*%
X160225600Y-74909600D02*
X160225600Y-74881600D01*
%TO.N,/AdamNetReset*%
X161340800Y-72999600D02*
X162765600Y-74424400D01*
X156960000Y-69760000D02*
X156960000Y-69787200D01*
X162765600Y-74424400D02*
X162765600Y-76179600D01*
X160172400Y-72999600D02*
X161340800Y-72999600D01*
X156960000Y-69787200D02*
X160172400Y-72999600D01*
D20*
%TO.N,GND*%
X169660000Y-67220000D02*
X169660000Y-69760000D01*
%TO.N,+5V*%
X165912800Y-70967200D02*
X165912800Y-78112400D01*
X167120000Y-67220000D02*
X167120000Y-69760000D01*
X146278600Y-81534000D02*
X136347200Y-81534000D01*
X162765600Y-81259600D02*
X162491200Y-81534000D01*
X165912800Y-78112400D02*
X162765600Y-81259600D01*
X167120000Y-69760000D02*
X165912800Y-70967200D01*
D19*
X144881600Y-75717400D02*
X144881600Y-80137000D01*
D20*
X162491200Y-81534000D02*
X146278600Y-81534000D01*
D19*
X144881600Y-80137000D02*
X146278600Y-81534000D01*
D20*
X133293200Y-78480000D02*
X131220000Y-78480000D01*
X136347200Y-81534000D02*
X133293200Y-78480000D01*
D19*
%TO.N,/RESET*%
X128390000Y-84370000D02*
X157405800Y-84370000D01*
X157405800Y-84370000D02*
X167795000Y-94759200D01*
X123940000Y-79920000D02*
X128390000Y-84370000D01*
%TO.N,/D21*%
X135356600Y-68476600D02*
X135356600Y-71803400D01*
X134100000Y-67220000D02*
X135356600Y-68476600D01*
X135356600Y-71803400D02*
X131220000Y-75940000D01*
%TO.N,/D20*%
X134100000Y-69760000D02*
X131220000Y-72640000D01*
X131220000Y-72640000D02*
X131220000Y-73400000D01*
%TO.N,Net-(D1-Pad2)*%
X136931400Y-71932800D02*
X139065000Y-71932800D01*
D20*
%TO.N,+3.3V*%
X164580000Y-67220000D02*
X164580000Y-69760000D01*
D19*
%TO.N,Net-(P1-Pad2)*%
X148082000Y-95885000D02*
X146812000Y-97155000D01*
X148082000Y-95758000D02*
X148082000Y-95885000D01*
%TO.N,Net-(P1-Pad5)*%
X142875000Y-91567000D02*
X159385000Y-91567000D01*
X159385000Y-91567000D02*
X160147000Y-92329000D01*
%TO.N,/MISO*%
X155448000Y-90652600D02*
X152654000Y-90652600D01*
%TO.N,Net-(P1-Pad8)*%
X155422600Y-89560400D02*
X152679400Y-89560400D01*
%TD*%
%TA.AperFunction,Conductor*%
%TO.N,GND*%
G36*
X174633621Y-66528502D02*
G01*
X174680114Y-66582158D01*
X174691500Y-66634500D01*
X174691500Y-103365500D01*
X174671498Y-103433621D01*
X174617842Y-103480114D01*
X174565500Y-103491500D01*
X160851922Y-103491500D01*
X160783801Y-103471498D01*
X160737308Y-103417842D01*
X160727204Y-103347568D01*
X160737727Y-103312250D01*
X160767995Y-103247340D01*
X160767996Y-103247338D01*
X160770318Y-103242358D01*
X160831306Y-103014745D01*
X160851844Y-102780000D01*
X160831306Y-102545255D01*
X160770318Y-102317642D01*
X160692184Y-102150083D01*
X160673054Y-102109059D01*
X160673052Y-102109056D01*
X160670731Y-102104078D01*
X160535573Y-101911051D01*
X160368949Y-101744427D01*
X160181555Y-101613213D01*
X160137226Y-101557756D01*
X160129917Y-101487137D01*
X160161947Y-101423776D01*
X160181555Y-101406787D01*
X160364437Y-101278732D01*
X160368949Y-101275573D01*
X160535573Y-101108949D01*
X160670731Y-100915922D01*
X160688776Y-100877226D01*
X160767995Y-100707340D01*
X160767996Y-100707338D01*
X160770318Y-100702358D01*
X160831306Y-100474745D01*
X160851844Y-100240000D01*
X160831306Y-100005255D01*
X160770318Y-99777642D01*
X160692184Y-99610083D01*
X160673054Y-99569059D01*
X160673052Y-99569056D01*
X160670731Y-99564078D01*
X160535573Y-99371051D01*
X160368949Y-99204427D01*
X160175922Y-99069269D01*
X160170944Y-99066948D01*
X160170941Y-99066946D01*
X159967340Y-98972005D01*
X159967338Y-98972004D01*
X159962358Y-98969682D01*
X159957050Y-98968260D01*
X159957048Y-98968259D01*
X159740060Y-98910118D01*
X159740059Y-98910118D01*
X159734745Y-98908694D01*
X159500000Y-98888156D01*
X159265255Y-98908694D01*
X159259941Y-98910118D01*
X159259940Y-98910118D01*
X159042952Y-98968259D01*
X159042950Y-98968260D01*
X159037642Y-98969682D01*
X159032662Y-98972004D01*
X159032660Y-98972005D01*
X158829059Y-99066946D01*
X158829056Y-99066948D01*
X158824078Y-99069269D01*
X158631051Y-99204427D01*
X158464427Y-99371051D01*
X158461268Y-99375563D01*
X158333213Y-99558445D01*
X158277756Y-99602774D01*
X158207137Y-99610083D01*
X158143776Y-99578053D01*
X158126787Y-99558445D01*
X157998732Y-99375563D01*
X157995573Y-99371051D01*
X157828949Y-99204427D01*
X157635922Y-99069269D01*
X157630944Y-99066948D01*
X157630941Y-99066946D01*
X157427340Y-98972005D01*
X157427338Y-98972004D01*
X157422358Y-98969682D01*
X157417050Y-98968260D01*
X157417048Y-98968259D01*
X157200060Y-98910118D01*
X157200059Y-98910118D01*
X157194745Y-98908694D01*
X156960000Y-98888156D01*
X156725255Y-98908694D01*
X156719941Y-98910118D01*
X156719940Y-98910118D01*
X156502952Y-98968259D01*
X156502950Y-98968260D01*
X156497642Y-98969682D01*
X156492662Y-98972004D01*
X156492660Y-98972005D01*
X156289059Y-99066946D01*
X156289056Y-99066948D01*
X156284078Y-99069269D01*
X156091051Y-99204427D01*
X155924427Y-99371051D01*
X155921268Y-99375563D01*
X155793213Y-99558445D01*
X155737756Y-99602774D01*
X155667137Y-99610083D01*
X155603776Y-99578053D01*
X155586787Y-99558445D01*
X155458732Y-99375563D01*
X155455573Y-99371051D01*
X155288949Y-99204427D01*
X155095922Y-99069269D01*
X155090944Y-99066948D01*
X155090941Y-99066946D01*
X154887340Y-98972005D01*
X154887338Y-98972004D01*
X154882358Y-98969682D01*
X154877050Y-98968260D01*
X154877048Y-98968259D01*
X154660060Y-98910118D01*
X154660059Y-98910118D01*
X154654745Y-98908694D01*
X154420000Y-98888156D01*
X154185255Y-98908694D01*
X154179941Y-98910118D01*
X154179940Y-98910118D01*
X153962952Y-98968259D01*
X153962950Y-98968260D01*
X153957642Y-98969682D01*
X153952662Y-98972004D01*
X153952660Y-98972005D01*
X153749059Y-99066946D01*
X153749056Y-99066948D01*
X153744078Y-99069269D01*
X153551051Y-99204427D01*
X153384427Y-99371051D01*
X153381268Y-99375563D01*
X153253213Y-99558445D01*
X153197756Y-99602774D01*
X153127137Y-99610083D01*
X153063776Y-99578053D01*
X153046787Y-99558445D01*
X152918732Y-99375563D01*
X152915573Y-99371051D01*
X152748949Y-99204427D01*
X152555922Y-99069269D01*
X152550944Y-99066948D01*
X152550941Y-99066946D01*
X152347340Y-98972005D01*
X152347338Y-98972004D01*
X152342358Y-98969682D01*
X152337050Y-98968260D01*
X152337048Y-98968259D01*
X152120060Y-98910118D01*
X152120059Y-98910118D01*
X152114745Y-98908694D01*
X151880000Y-98888156D01*
X151645255Y-98908694D01*
X151639941Y-98910118D01*
X151639940Y-98910118D01*
X151422952Y-98968259D01*
X151422950Y-98968260D01*
X151417642Y-98969682D01*
X151412662Y-98972004D01*
X151412660Y-98972005D01*
X151209059Y-99066946D01*
X151209056Y-99066948D01*
X151204078Y-99069269D01*
X151011051Y-99204427D01*
X150844427Y-99371051D01*
X150841268Y-99375563D01*
X150713213Y-99558445D01*
X150657756Y-99602774D01*
X150587137Y-99610083D01*
X150523776Y-99578053D01*
X150506787Y-99558445D01*
X150378732Y-99375563D01*
X150375573Y-99371051D01*
X150208949Y-99204427D01*
X150015922Y-99069269D01*
X150010944Y-99066948D01*
X150010941Y-99066946D01*
X149807340Y-98972005D01*
X149807338Y-98972004D01*
X149802358Y-98969682D01*
X149797050Y-98968260D01*
X149797048Y-98968259D01*
X149580060Y-98910118D01*
X149580059Y-98910118D01*
X149574745Y-98908694D01*
X149340000Y-98888156D01*
X149105255Y-98908694D01*
X149099941Y-98910118D01*
X149099940Y-98910118D01*
X148882952Y-98968259D01*
X148882950Y-98968260D01*
X148877642Y-98969682D01*
X148872662Y-98972004D01*
X148872660Y-98972005D01*
X148669059Y-99066946D01*
X148669056Y-99066948D01*
X148664078Y-99069269D01*
X148471051Y-99204427D01*
X148304427Y-99371051D01*
X148301268Y-99375563D01*
X148173213Y-99558445D01*
X148117756Y-99602774D01*
X148047137Y-99610083D01*
X147983776Y-99578053D01*
X147966787Y-99558445D01*
X147838732Y-99375563D01*
X147835573Y-99371051D01*
X147668949Y-99204427D01*
X147475922Y-99069269D01*
X147470944Y-99066948D01*
X147470941Y-99066946D01*
X147267340Y-98972005D01*
X147267338Y-98972004D01*
X147262358Y-98969682D01*
X147257050Y-98968260D01*
X147257048Y-98968259D01*
X147040060Y-98910118D01*
X147040059Y-98910118D01*
X147034745Y-98908694D01*
X146800000Y-98888156D01*
X146565255Y-98908694D01*
X146559941Y-98910118D01*
X146559940Y-98910118D01*
X146342952Y-98968259D01*
X146342950Y-98968260D01*
X146337642Y-98969682D01*
X146332662Y-98972004D01*
X146332660Y-98972005D01*
X146129059Y-99066946D01*
X146129056Y-99066948D01*
X146124078Y-99069269D01*
X145931051Y-99204427D01*
X145764427Y-99371051D01*
X145761268Y-99375563D01*
X145633213Y-99558445D01*
X145577756Y-99602774D01*
X145507137Y-99610083D01*
X145443776Y-99578053D01*
X145426787Y-99558445D01*
X145298732Y-99375563D01*
X145295573Y-99371051D01*
X145128949Y-99204427D01*
X144935922Y-99069269D01*
X144930944Y-99066948D01*
X144930941Y-99066946D01*
X144727340Y-98972005D01*
X144727338Y-98972004D01*
X144722358Y-98969682D01*
X144717050Y-98968260D01*
X144717048Y-98968259D01*
X144500060Y-98910118D01*
X144500059Y-98910118D01*
X144494745Y-98908694D01*
X144260000Y-98888156D01*
X144025255Y-98908694D01*
X144019941Y-98910118D01*
X144019940Y-98910118D01*
X143802952Y-98968259D01*
X143802950Y-98968260D01*
X143797642Y-98969682D01*
X143792662Y-98972004D01*
X143792660Y-98972005D01*
X143589059Y-99066946D01*
X143589056Y-99066948D01*
X143584078Y-99069269D01*
X143391051Y-99204427D01*
X143224427Y-99371051D01*
X143221268Y-99375563D01*
X143093213Y-99558445D01*
X143037756Y-99602774D01*
X142967137Y-99610083D01*
X142903776Y-99578053D01*
X142886787Y-99558445D01*
X142758732Y-99375563D01*
X142755573Y-99371051D01*
X142588949Y-99204427D01*
X142395922Y-99069269D01*
X142390944Y-99066948D01*
X142390941Y-99066946D01*
X142187340Y-98972005D01*
X142187338Y-98972004D01*
X142182358Y-98969682D01*
X142177050Y-98968260D01*
X142177048Y-98968259D01*
X141960060Y-98910118D01*
X141960059Y-98910118D01*
X141954745Y-98908694D01*
X141720000Y-98888156D01*
X141485255Y-98908694D01*
X141479941Y-98910118D01*
X141479940Y-98910118D01*
X141262952Y-98968259D01*
X141262950Y-98968260D01*
X141257642Y-98969682D01*
X141252662Y-98972004D01*
X141252660Y-98972005D01*
X141049059Y-99066946D01*
X141049056Y-99066948D01*
X141044078Y-99069269D01*
X140851051Y-99204427D01*
X140684427Y-99371051D01*
X140681268Y-99375563D01*
X140553213Y-99558445D01*
X140497756Y-99602774D01*
X140427137Y-99610083D01*
X140363776Y-99578053D01*
X140346787Y-99558445D01*
X140218732Y-99375563D01*
X140215573Y-99371051D01*
X140048949Y-99204427D01*
X139867230Y-99077187D01*
X139822901Y-99021730D01*
X139813500Y-98973974D01*
X139813500Y-98118464D01*
X171796907Y-98118464D01*
X171826025Y-98310999D01*
X171828228Y-98316985D01*
X171828229Y-98316991D01*
X171891060Y-98487760D01*
X171891062Y-98487765D01*
X171893263Y-98493746D01*
X171995874Y-98659240D01*
X172129666Y-98800722D01*
X172289175Y-98912411D01*
X172295038Y-98914948D01*
X172462025Y-98987210D01*
X172462029Y-98987211D01*
X172467884Y-98989745D01*
X172474131Y-98991050D01*
X172474134Y-98991051D01*
X172653757Y-99028576D01*
X172653762Y-99028577D01*
X172658493Y-99029565D01*
X172664885Y-99029900D01*
X172807863Y-99029900D01*
X172877151Y-99022862D01*
X172946578Y-99015810D01*
X172946579Y-99015810D01*
X172952927Y-99015165D01*
X173009261Y-98997511D01*
X173132651Y-98958844D01*
X173132656Y-98958842D01*
X173138741Y-98956935D01*
X173261956Y-98888635D01*
X173303471Y-98865623D01*
X173303474Y-98865621D01*
X173309050Y-98862530D01*
X173313891Y-98858381D01*
X173313895Y-98858378D01*
X173452055Y-98739960D01*
X173456898Y-98735809D01*
X173474574Y-98713022D01*
X173572331Y-98586994D01*
X173576246Y-98581947D01*
X173580726Y-98572844D01*
X173659400Y-98412956D01*
X173662218Y-98407229D01*
X173668906Y-98381555D01*
X173709692Y-98224975D01*
X173709692Y-98224972D01*
X173711302Y-98218793D01*
X173719441Y-98063500D01*
X173721159Y-98030717D01*
X173721159Y-98030713D01*
X173721493Y-98024336D01*
X173692375Y-97831801D01*
X173690172Y-97825815D01*
X173690171Y-97825809D01*
X173627340Y-97655040D01*
X173627338Y-97655035D01*
X173625137Y-97649054D01*
X173535305Y-97504170D01*
X173525888Y-97488982D01*
X173525887Y-97488981D01*
X173522526Y-97483560D01*
X173388734Y-97342078D01*
X173383432Y-97338365D01*
X173234459Y-97234054D01*
X173229225Y-97230389D01*
X173166164Y-97203100D01*
X173056375Y-97155590D01*
X173056371Y-97155589D01*
X173050516Y-97153055D01*
X173044269Y-97151750D01*
X173044266Y-97151749D01*
X172864643Y-97114224D01*
X172864638Y-97114223D01*
X172859907Y-97113235D01*
X172853515Y-97112900D01*
X172710537Y-97112900D01*
X172641249Y-97119938D01*
X172571822Y-97126990D01*
X172571821Y-97126990D01*
X172565473Y-97127635D01*
X172511040Y-97144693D01*
X172385749Y-97183956D01*
X172385744Y-97183958D01*
X172379659Y-97185865D01*
X172325605Y-97215828D01*
X172214929Y-97277177D01*
X172214926Y-97277179D01*
X172209350Y-97280270D01*
X172204509Y-97284419D01*
X172204505Y-97284422D01*
X172094899Y-97378366D01*
X172061502Y-97406991D01*
X171942154Y-97560853D01*
X171939338Y-97566576D01*
X171939336Y-97566579D01*
X171870991Y-97705475D01*
X171856182Y-97735571D01*
X171854573Y-97741749D01*
X171854572Y-97741751D01*
X171829567Y-97837749D01*
X171807098Y-97924007D01*
X171804298Y-97977434D01*
X171799788Y-98063500D01*
X171796907Y-98118464D01*
X139813500Y-98118464D01*
X139813500Y-98093638D01*
X139833502Y-98025517D01*
X139887158Y-97979024D01*
X139962746Y-97970266D01*
X139964938Y-97970953D01*
X140038365Y-97977700D01*
X140041263Y-97977700D01*
X140295665Y-97977699D01*
X140551634Y-97977699D01*
X140554492Y-97977436D01*
X140554501Y-97977436D01*
X140590004Y-97974174D01*
X140625062Y-97970953D01*
X140633030Y-97968456D01*
X140781450Y-97921944D01*
X140781452Y-97921943D01*
X140788699Y-97919672D01*
X140935381Y-97830839D01*
X141056639Y-97709581D01*
X141145472Y-97562899D01*
X141151353Y-97544135D01*
X141176072Y-97465255D01*
X141196753Y-97399262D01*
X141203500Y-97325835D01*
X141203500Y-97322905D01*
X143587001Y-97322905D01*
X143587264Y-97328654D01*
X143593132Y-97392515D01*
X143595743Y-97405551D01*
X143642715Y-97555443D01*
X143648921Y-97569188D01*
X143729824Y-97702774D01*
X143739131Y-97714643D01*
X143849557Y-97825069D01*
X143861426Y-97834376D01*
X143995012Y-97915279D01*
X144008757Y-97921485D01*
X144158644Y-97968456D01*
X144171694Y-97971069D01*
X144226586Y-97976113D01*
X144238124Y-97972725D01*
X144239329Y-97971335D01*
X144241000Y-97963652D01*
X144241000Y-97959084D01*
X144749000Y-97959084D01*
X144753475Y-97974323D01*
X144754865Y-97975528D01*
X144759294Y-97976491D01*
X144818315Y-97971068D01*
X144831351Y-97968457D01*
X144981243Y-97921485D01*
X144994988Y-97915279D01*
X145128574Y-97834376D01*
X145140443Y-97825069D01*
X145250869Y-97714643D01*
X145260176Y-97702774D01*
X145341079Y-97569188D01*
X145347285Y-97555443D01*
X145394256Y-97405556D01*
X145396869Y-97392506D01*
X145402734Y-97328679D01*
X145403000Y-97322891D01*
X145403000Y-96741315D01*
X145398525Y-96726076D01*
X145397135Y-96724871D01*
X145389452Y-96723200D01*
X144767115Y-96723200D01*
X144751876Y-96727675D01*
X144750671Y-96729065D01*
X144749000Y-96736748D01*
X144749000Y-97959084D01*
X144241000Y-97959084D01*
X144241000Y-96741315D01*
X144236525Y-96726076D01*
X144235135Y-96724871D01*
X144227452Y-96723200D01*
X143605116Y-96723200D01*
X143589877Y-96727675D01*
X143588672Y-96729065D01*
X143587001Y-96736748D01*
X143587001Y-97322905D01*
X141203500Y-97322905D01*
X141203499Y-95612566D01*
X141203234Y-95609672D01*
X141198834Y-95561794D01*
X141196753Y-95539138D01*
X141154703Y-95404957D01*
X141147744Y-95382750D01*
X141147743Y-95382748D01*
X141145472Y-95375501D01*
X141056639Y-95228819D01*
X140935381Y-95107561D01*
X140883062Y-95075875D01*
X140835156Y-95023479D01*
X140823182Y-94953500D01*
X140850943Y-94888156D01*
X140909624Y-94848193D01*
X140948333Y-94842100D01*
X143842632Y-94842100D01*
X143910753Y-94862102D01*
X143957246Y-94915758D01*
X143967350Y-94986032D01*
X143937856Y-95050612D01*
X143907903Y-95075876D01*
X143861429Y-95104021D01*
X143849557Y-95113331D01*
X143739131Y-95223757D01*
X143729824Y-95235626D01*
X143648921Y-95369212D01*
X143642715Y-95382957D01*
X143595744Y-95532844D01*
X143593131Y-95545894D01*
X143587266Y-95609721D01*
X143587000Y-95615509D01*
X143587000Y-96197085D01*
X143591475Y-96212324D01*
X143592865Y-96213529D01*
X143600548Y-96215200D01*
X145384884Y-96215200D01*
X145400123Y-96210725D01*
X145401328Y-96209335D01*
X145402999Y-96201652D01*
X145402999Y-95615495D01*
X145402736Y-95609746D01*
X145396868Y-95545885D01*
X145394257Y-95532849D01*
X145347285Y-95382957D01*
X145341079Y-95369212D01*
X145260176Y-95235626D01*
X145250869Y-95223757D01*
X145140443Y-95113331D01*
X145128571Y-95104021D01*
X145082097Y-95075876D01*
X145034190Y-95023479D01*
X145022217Y-94953499D01*
X145049978Y-94888155D01*
X145108660Y-94848193D01*
X145147368Y-94842100D01*
X147409208Y-94842100D01*
X147477329Y-94862102D01*
X147523822Y-94915758D01*
X147533926Y-94986032D01*
X147504432Y-95050612D01*
X147483270Y-95070035D01*
X147476094Y-95075249D01*
X147470747Y-95079134D01*
X147466326Y-95084044D01*
X147466325Y-95084045D01*
X147455880Y-95095646D01*
X147342960Y-95221056D01*
X147247473Y-95386444D01*
X147188458Y-95568072D01*
X147187768Y-95574633D01*
X147187768Y-95574635D01*
X147177987Y-95667699D01*
X147168496Y-95758000D01*
X147169186Y-95764565D01*
X147169186Y-95764567D01*
X147175966Y-95829080D01*
X147163193Y-95898918D01*
X147139751Y-95931344D01*
X146861500Y-96209595D01*
X146799188Y-96243621D01*
X146772405Y-96246500D01*
X146716513Y-96246500D01*
X146710061Y-96247872D01*
X146710056Y-96247872D01*
X146623112Y-96266353D01*
X146529712Y-96286206D01*
X146523682Y-96288891D01*
X146523681Y-96288891D01*
X146361278Y-96361197D01*
X146361276Y-96361198D01*
X146355248Y-96363882D01*
X146200747Y-96476134D01*
X146072960Y-96618056D01*
X145977473Y-96783444D01*
X145918458Y-96965072D01*
X145917768Y-96971633D01*
X145917768Y-96971635D01*
X145900170Y-97139074D01*
X145898496Y-97155000D01*
X145899186Y-97161565D01*
X145916748Y-97328654D01*
X145918458Y-97344928D01*
X145977473Y-97526556D01*
X145980776Y-97532278D01*
X145980777Y-97532279D01*
X145994654Y-97556314D01*
X146072960Y-97691944D01*
X146077378Y-97696851D01*
X146077379Y-97696852D01*
X146082711Y-97702774D01*
X146200747Y-97833866D01*
X146355248Y-97946118D01*
X146361276Y-97948802D01*
X146361278Y-97948803D01*
X146523681Y-98021109D01*
X146529712Y-98023794D01*
X146623112Y-98043647D01*
X146710056Y-98062128D01*
X146710061Y-98062128D01*
X146716513Y-98063500D01*
X146907487Y-98063500D01*
X146913939Y-98062128D01*
X146913944Y-98062128D01*
X147000887Y-98043647D01*
X147094288Y-98023794D01*
X147100319Y-98021109D01*
X147262722Y-97948803D01*
X147262724Y-97948802D01*
X147268752Y-97946118D01*
X147423253Y-97833866D01*
X147541289Y-97702774D01*
X147546621Y-97696852D01*
X147546622Y-97696851D01*
X147551040Y-97691944D01*
X147629346Y-97556314D01*
X147643223Y-97532279D01*
X147643224Y-97532278D01*
X147646527Y-97526556D01*
X147705542Y-97344928D01*
X147707253Y-97328654D01*
X147719841Y-97208879D01*
X147722907Y-97179706D01*
X147749920Y-97114050D01*
X147759122Y-97103782D01*
X148175118Y-96687786D01*
X148238015Y-96653635D01*
X148364288Y-96626794D01*
X148394938Y-96613148D01*
X148532722Y-96551803D01*
X148532724Y-96551802D01*
X148538752Y-96549118D01*
X148693253Y-96436866D01*
X148788817Y-96330731D01*
X148816621Y-96299852D01*
X148816622Y-96299851D01*
X148821040Y-96294944D01*
X148916527Y-96129556D01*
X148975542Y-95947928D01*
X148988034Y-95829080D01*
X148993463Y-95777421D01*
X149020476Y-95711765D01*
X149078698Y-95671135D01*
X149130301Y-95665121D01*
X149149140Y-95666852D01*
X149155479Y-95667435D01*
X149155483Y-95667435D01*
X149158365Y-95667700D01*
X149161263Y-95667700D01*
X150017222Y-95667699D01*
X150871634Y-95667699D01*
X150874492Y-95667436D01*
X150874501Y-95667436D01*
X150910004Y-95664174D01*
X150945062Y-95660953D01*
X150951447Y-95658952D01*
X151101450Y-95611944D01*
X151101452Y-95611943D01*
X151108699Y-95609672D01*
X151255381Y-95520839D01*
X151376639Y-95399581D01*
X151465472Y-95252899D01*
X151516753Y-95089262D01*
X151523500Y-95015835D01*
X151523499Y-94502566D01*
X151523234Y-94499674D01*
X151517364Y-94435792D01*
X151516753Y-94429138D01*
X151473479Y-94291051D01*
X151467744Y-94272750D01*
X151467743Y-94272748D01*
X151465472Y-94265501D01*
X151376639Y-94118819D01*
X151255381Y-93997561D01*
X151108699Y-93908728D01*
X151101452Y-93906457D01*
X151101450Y-93906456D01*
X151035164Y-93885683D01*
X150945062Y-93857447D01*
X150871635Y-93850700D01*
X150826272Y-93850700D01*
X150055037Y-93850701D01*
X149986916Y-93830699D01*
X149959388Y-93806291D01*
X149956400Y-93801582D01*
X149906748Y-93754956D01*
X149903907Y-93752202D01*
X149884170Y-93732465D01*
X149880973Y-93729985D01*
X149871951Y-93722280D01*
X149845500Y-93697441D01*
X149839721Y-93692014D01*
X149832775Y-93688195D01*
X149832772Y-93688193D01*
X149821966Y-93682252D01*
X149805447Y-93671401D01*
X149804983Y-93671041D01*
X149789441Y-93658986D01*
X149782172Y-93655841D01*
X149782168Y-93655838D01*
X149748863Y-93641426D01*
X149738213Y-93636209D01*
X149699460Y-93614905D01*
X149679837Y-93609867D01*
X149661134Y-93603463D01*
X149649820Y-93598567D01*
X149649819Y-93598567D01*
X149642545Y-93595419D01*
X149634722Y-93594180D01*
X149634712Y-93594177D01*
X149598876Y-93588501D01*
X149587256Y-93586095D01*
X149552111Y-93577072D01*
X149552110Y-93577072D01*
X149544430Y-93575100D01*
X149524176Y-93575100D01*
X149504465Y-93573549D01*
X149492286Y-93571620D01*
X149484457Y-93570380D01*
X149476565Y-93571126D01*
X149440439Y-93574541D01*
X149428581Y-93575100D01*
X140746194Y-93575100D01*
X140678073Y-93555098D01*
X140631580Y-93501442D01*
X140621476Y-93431168D01*
X140650970Y-93366588D01*
X140657099Y-93360005D01*
X140687499Y-93329605D01*
X140749811Y-93295579D01*
X140776594Y-93292700D01*
X155220406Y-93292700D01*
X155288527Y-93312702D01*
X155309501Y-93329605D01*
X156145094Y-94165198D01*
X156179120Y-94227510D01*
X156176233Y-94291970D01*
X156133247Y-94429138D01*
X156126500Y-94502565D01*
X156126501Y-95015834D01*
X156126764Y-95018692D01*
X156126764Y-95018701D01*
X156129696Y-95050612D01*
X156133247Y-95089262D01*
X156135246Y-95095640D01*
X156135246Y-95095641D01*
X156176982Y-95228819D01*
X156184528Y-95252899D01*
X156273361Y-95399581D01*
X156394619Y-95520839D01*
X156541301Y-95609672D01*
X156548548Y-95611943D01*
X156548550Y-95611944D01*
X156614836Y-95632717D01*
X156704938Y-95660953D01*
X156778365Y-95667700D01*
X156781263Y-95667700D01*
X157637222Y-95667699D01*
X158491634Y-95667699D01*
X158494492Y-95667436D01*
X158494501Y-95667436D01*
X158530004Y-95664174D01*
X158565062Y-95660953D01*
X158571447Y-95658952D01*
X158721450Y-95611944D01*
X158721452Y-95611943D01*
X158728699Y-95609672D01*
X158875381Y-95520839D01*
X158996639Y-95399581D01*
X159085472Y-95252899D01*
X159136753Y-95089262D01*
X159143500Y-95015835D01*
X159143499Y-94502566D01*
X159143234Y-94499674D01*
X159137364Y-94435792D01*
X159136753Y-94429138D01*
X159093479Y-94291051D01*
X159087744Y-94272750D01*
X159087743Y-94272748D01*
X159085472Y-94265501D01*
X158996639Y-94118819D01*
X158875381Y-93997561D01*
X158728699Y-93908728D01*
X158721452Y-93906457D01*
X158721450Y-93906456D01*
X158655164Y-93885683D01*
X158565062Y-93857447D01*
X158491635Y-93850700D01*
X158445908Y-93850700D01*
X157674596Y-93850701D01*
X157606475Y-93830699D01*
X157585501Y-93813796D01*
X156187300Y-92415595D01*
X156153274Y-92353283D01*
X156158339Y-92282468D01*
X156200886Y-92225632D01*
X156267406Y-92200821D01*
X156276395Y-92200500D01*
X159070406Y-92200500D01*
X159138527Y-92220502D01*
X159159501Y-92237405D01*
X159199878Y-92277782D01*
X159233904Y-92340094D01*
X159236092Y-92353703D01*
X159253458Y-92518928D01*
X159312473Y-92700556D01*
X159407960Y-92865944D01*
X159535747Y-93007866D01*
X159690248Y-93120118D01*
X159696276Y-93122802D01*
X159696278Y-93122803D01*
X159858681Y-93195109D01*
X159864712Y-93197794D01*
X159958113Y-93217647D01*
X160045056Y-93236128D01*
X160045061Y-93236128D01*
X160051513Y-93237500D01*
X160242487Y-93237500D01*
X160248939Y-93236128D01*
X160248944Y-93236128D01*
X160335887Y-93217647D01*
X160429288Y-93197794D01*
X160435319Y-93195109D01*
X160597722Y-93122803D01*
X160597724Y-93122802D01*
X160603752Y-93120118D01*
X160758253Y-93007866D01*
X160886040Y-92865944D01*
X160981527Y-92700556D01*
X161040542Y-92518928D01*
X161054016Y-92390735D01*
X161059814Y-92335565D01*
X161060504Y-92329000D01*
X161040542Y-92139072D01*
X160981527Y-91957444D01*
X160886040Y-91792056D01*
X160758253Y-91650134D01*
X160643829Y-91567000D01*
X160609094Y-91541763D01*
X160609093Y-91541762D01*
X160603752Y-91537882D01*
X160597724Y-91535198D01*
X160597722Y-91535197D01*
X160435319Y-91462891D01*
X160435318Y-91462891D01*
X160429288Y-91460206D01*
X160335887Y-91440353D01*
X160248944Y-91421872D01*
X160248939Y-91421872D01*
X160242487Y-91420500D01*
X160186595Y-91420500D01*
X160118474Y-91400498D01*
X160097500Y-91383595D01*
X159888652Y-91174747D01*
X159881112Y-91166461D01*
X159877000Y-91159982D01*
X159827348Y-91113356D01*
X159824507Y-91110602D01*
X159804770Y-91090865D01*
X159801573Y-91088385D01*
X159792551Y-91080680D01*
X159766100Y-91055841D01*
X159760321Y-91050414D01*
X159753375Y-91046595D01*
X159753372Y-91046593D01*
X159742566Y-91040652D01*
X159726047Y-91029801D01*
X159720048Y-91025148D01*
X159710041Y-91017386D01*
X159702772Y-91014241D01*
X159702768Y-91014238D01*
X159669463Y-90999826D01*
X159658813Y-90994609D01*
X159620060Y-90973305D01*
X159600437Y-90968267D01*
X159581734Y-90961863D01*
X159570420Y-90956967D01*
X159570419Y-90956967D01*
X159563145Y-90953819D01*
X159555322Y-90952580D01*
X159555312Y-90952577D01*
X159519476Y-90946901D01*
X159507856Y-90944495D01*
X159472711Y-90935472D01*
X159472710Y-90935472D01*
X159465030Y-90933500D01*
X159444776Y-90933500D01*
X159425065Y-90931949D01*
X159412886Y-90930020D01*
X159405057Y-90928780D01*
X159397165Y-90929526D01*
X159361039Y-90932941D01*
X159349181Y-90933500D01*
X159267326Y-90933500D01*
X159199205Y-90913498D01*
X159152712Y-90859842D01*
X159146430Y-90842997D01*
X159138526Y-90816076D01*
X159137135Y-90814871D01*
X159129452Y-90813200D01*
X157507000Y-90813200D01*
X157438879Y-90793198D01*
X157392386Y-90739542D01*
X157381000Y-90687200D01*
X157381000Y-90287085D01*
X157889000Y-90287085D01*
X157893475Y-90302324D01*
X157894865Y-90303529D01*
X157902548Y-90305200D01*
X159124884Y-90305200D01*
X159140123Y-90300725D01*
X159141328Y-90299335D01*
X159142291Y-90294906D01*
X159136868Y-90235885D01*
X159134257Y-90222849D01*
X159087285Y-90072957D01*
X159081079Y-90059212D01*
X159000176Y-89925626D01*
X158990869Y-89913757D01*
X158880443Y-89803331D01*
X158868574Y-89794024D01*
X158734988Y-89713121D01*
X158721243Y-89706915D01*
X158571356Y-89659944D01*
X158558306Y-89657331D01*
X158494479Y-89651466D01*
X158488691Y-89651200D01*
X157907115Y-89651200D01*
X157891876Y-89655675D01*
X157890671Y-89657065D01*
X157889000Y-89664748D01*
X157889000Y-90287085D01*
X157381000Y-90287085D01*
X157381000Y-89669316D01*
X157376525Y-89654077D01*
X157375135Y-89652872D01*
X157367452Y-89651201D01*
X156781295Y-89651201D01*
X156775546Y-89651464D01*
X156711685Y-89657332D01*
X156698649Y-89659943D01*
X156548757Y-89706915D01*
X156535006Y-89713124D01*
X156522550Y-89720667D01*
X156453920Y-89738845D01*
X156386357Y-89717033D01*
X156341312Y-89662156D01*
X156331971Y-89599720D01*
X156336104Y-89560400D01*
X156331717Y-89518664D01*
X156316832Y-89377035D01*
X156316832Y-89377033D01*
X156316142Y-89370472D01*
X156257127Y-89188844D01*
X156161640Y-89023456D01*
X156033853Y-88881534D01*
X155879352Y-88769282D01*
X155873324Y-88766598D01*
X155873322Y-88766597D01*
X155710919Y-88694291D01*
X155710918Y-88694291D01*
X155704888Y-88691606D01*
X155611488Y-88671753D01*
X155524544Y-88653272D01*
X155524539Y-88653272D01*
X155518087Y-88651900D01*
X155327113Y-88651900D01*
X155320661Y-88653272D01*
X155320656Y-88653272D01*
X155233712Y-88671753D01*
X155140312Y-88691606D01*
X155134282Y-88694291D01*
X155134281Y-88694291D01*
X154971878Y-88766597D01*
X154971876Y-88766598D01*
X154965848Y-88769282D01*
X154811347Y-88881534D01*
X154806932Y-88886437D01*
X154802020Y-88890860D01*
X154800895Y-88889611D01*
X154747586Y-88922451D01*
X154714400Y-88926900D01*
X153387600Y-88926900D01*
X153319479Y-88906898D01*
X153300253Y-88890557D01*
X153299980Y-88890860D01*
X153295068Y-88886437D01*
X153290653Y-88881534D01*
X153136152Y-88769282D01*
X153130124Y-88766598D01*
X153130122Y-88766597D01*
X152967719Y-88694291D01*
X152967718Y-88694291D01*
X152961688Y-88691606D01*
X152868288Y-88671753D01*
X152781344Y-88653272D01*
X152781339Y-88653272D01*
X152774887Y-88651900D01*
X152583913Y-88651900D01*
X152577461Y-88653272D01*
X152577456Y-88653272D01*
X152490512Y-88671753D01*
X152397112Y-88691606D01*
X152391082Y-88694291D01*
X152391081Y-88694291D01*
X152228678Y-88766597D01*
X152228676Y-88766598D01*
X152222648Y-88769282D01*
X152068147Y-88881534D01*
X151940360Y-89023456D01*
X151844873Y-89188844D01*
X151785858Y-89370472D01*
X151785168Y-89377033D01*
X151785168Y-89377035D01*
X151770283Y-89518664D01*
X151765896Y-89560400D01*
X151766586Y-89566962D01*
X151766586Y-89566965D01*
X151784957Y-89741751D01*
X151785858Y-89750328D01*
X151844873Y-89931956D01*
X151848176Y-89937678D01*
X151848177Y-89937679D01*
X151896573Y-90021503D01*
X151913311Y-90090498D01*
X151896573Y-90147503D01*
X151845546Y-90235885D01*
X151819473Y-90281044D01*
X151780481Y-90401049D01*
X151768832Y-90436900D01*
X151728758Y-90495505D01*
X151663361Y-90523142D01*
X151593405Y-90511035D01*
X151541099Y-90463029D01*
X151522999Y-90397963D01*
X151522999Y-90305495D01*
X151522736Y-90299746D01*
X151516868Y-90235885D01*
X151514257Y-90222849D01*
X151467285Y-90072957D01*
X151461079Y-90059212D01*
X151380176Y-89925626D01*
X151370869Y-89913757D01*
X151260443Y-89803331D01*
X151248574Y-89794024D01*
X151114988Y-89713121D01*
X151101243Y-89706915D01*
X150951356Y-89659944D01*
X150938306Y-89657331D01*
X150874479Y-89651466D01*
X150868691Y-89651200D01*
X150287115Y-89651200D01*
X150271876Y-89655675D01*
X150270671Y-89657065D01*
X150269000Y-89664748D01*
X150269000Y-90687200D01*
X150248998Y-90755321D01*
X150195342Y-90801814D01*
X150143000Y-90813200D01*
X148525116Y-90813200D01*
X148509877Y-90817675D01*
X148508672Y-90819065D01*
X148505362Y-90834282D01*
X148471337Y-90896595D01*
X148409025Y-90930620D01*
X148382241Y-90933500D01*
X143583200Y-90933500D01*
X143515079Y-90913498D01*
X143495853Y-90897157D01*
X143495580Y-90897460D01*
X143490668Y-90893037D01*
X143486253Y-90888134D01*
X143445298Y-90858378D01*
X143337094Y-90779763D01*
X143337093Y-90779762D01*
X143331752Y-90775882D01*
X143325724Y-90773198D01*
X143325722Y-90773197D01*
X143163319Y-90700891D01*
X143163318Y-90700891D01*
X143157288Y-90698206D01*
X143063887Y-90678353D01*
X142976944Y-90659872D01*
X142976939Y-90659872D01*
X142970487Y-90658500D01*
X142779513Y-90658500D01*
X142773061Y-90659872D01*
X142773056Y-90659872D01*
X142686113Y-90678353D01*
X142592712Y-90698206D01*
X142586682Y-90700891D01*
X142586681Y-90700891D01*
X142424278Y-90773197D01*
X142424276Y-90773198D01*
X142418248Y-90775882D01*
X142412907Y-90779762D01*
X142412906Y-90779763D01*
X142390441Y-90796085D01*
X142263747Y-90888134D01*
X142259326Y-90893044D01*
X142259325Y-90893045D01*
X142150203Y-91014238D01*
X142135960Y-91030056D01*
X142040473Y-91195444D01*
X141981458Y-91377072D01*
X141980768Y-91383633D01*
X141980768Y-91383635D01*
X141962186Y-91560435D01*
X141961496Y-91567000D01*
X141962186Y-91573565D01*
X141969826Y-91646251D01*
X141981458Y-91756928D01*
X142015197Y-91860765D01*
X142017225Y-91931731D01*
X141980563Y-91992529D01*
X141916850Y-92023854D01*
X141895364Y-92025700D01*
X141054500Y-92025700D01*
X140986379Y-92005698D01*
X140939886Y-91952042D01*
X140928500Y-91899700D01*
X140928500Y-91895369D01*
X140930051Y-91875658D01*
X140931979Y-91863485D01*
X140933219Y-91855657D01*
X140929059Y-91811646D01*
X140928500Y-91799789D01*
X140928500Y-90269910D01*
X140948502Y-90201789D01*
X140965405Y-90180815D01*
X141056639Y-90089581D01*
X141145472Y-89942899D01*
X141148902Y-89931956D01*
X141194752Y-89785646D01*
X141196753Y-89779262D01*
X141203500Y-89705835D01*
X141203500Y-89702905D01*
X143587001Y-89702905D01*
X143587264Y-89708654D01*
X143593132Y-89772515D01*
X143595743Y-89785551D01*
X143642715Y-89935443D01*
X143648921Y-89949188D01*
X143729824Y-90082774D01*
X143739131Y-90094643D01*
X143849557Y-90205069D01*
X143861426Y-90214376D01*
X143995012Y-90295279D01*
X144008757Y-90301485D01*
X144158644Y-90348456D01*
X144171694Y-90351069D01*
X144226586Y-90356113D01*
X144238124Y-90352725D01*
X144239329Y-90351335D01*
X144241000Y-90343652D01*
X144241000Y-90339084D01*
X144749000Y-90339084D01*
X144753475Y-90354323D01*
X144754865Y-90355528D01*
X144759294Y-90356491D01*
X144818315Y-90351068D01*
X144831351Y-90348457D01*
X144981243Y-90301485D01*
X144994988Y-90295279D01*
X145002407Y-90290786D01*
X148508087Y-90290786D01*
X148511475Y-90302324D01*
X148512865Y-90303529D01*
X148520548Y-90305200D01*
X149742885Y-90305200D01*
X149758124Y-90300725D01*
X149759329Y-90299335D01*
X149761000Y-90291652D01*
X149761000Y-89669316D01*
X149756525Y-89654077D01*
X149755135Y-89652872D01*
X149747452Y-89651201D01*
X149161295Y-89651201D01*
X149155546Y-89651464D01*
X149091685Y-89657332D01*
X149078649Y-89659943D01*
X148928757Y-89706915D01*
X148915012Y-89713121D01*
X148781426Y-89794024D01*
X148769557Y-89803331D01*
X148659131Y-89913757D01*
X148649824Y-89925626D01*
X148568921Y-90059212D01*
X148562715Y-90072957D01*
X148515744Y-90222844D01*
X148513131Y-90235894D01*
X148508087Y-90290786D01*
X145002407Y-90290786D01*
X145128574Y-90214376D01*
X145140443Y-90205069D01*
X145250869Y-90094643D01*
X145260176Y-90082774D01*
X145341079Y-89949188D01*
X145347285Y-89935443D01*
X145394256Y-89785556D01*
X145396869Y-89772506D01*
X145402734Y-89708679D01*
X145403000Y-89702891D01*
X145403000Y-89121315D01*
X145398525Y-89106076D01*
X145397135Y-89104871D01*
X145389452Y-89103200D01*
X144767115Y-89103200D01*
X144751876Y-89107675D01*
X144750671Y-89109065D01*
X144749000Y-89116748D01*
X144749000Y-90339084D01*
X144241000Y-90339084D01*
X144241000Y-89121315D01*
X144236525Y-89106076D01*
X144235135Y-89104871D01*
X144227452Y-89103200D01*
X143605116Y-89103200D01*
X143589877Y-89107675D01*
X143588672Y-89109065D01*
X143587001Y-89116748D01*
X143587001Y-89702905D01*
X141203500Y-89702905D01*
X141203499Y-88577085D01*
X143587000Y-88577085D01*
X143591475Y-88592324D01*
X143592865Y-88593529D01*
X143600548Y-88595200D01*
X144222885Y-88595200D01*
X144238124Y-88590725D01*
X144239329Y-88589335D01*
X144241000Y-88581652D01*
X144241000Y-88577085D01*
X144749000Y-88577085D01*
X144753475Y-88592324D01*
X144754865Y-88593529D01*
X144762548Y-88595200D01*
X145384884Y-88595200D01*
X145400123Y-88590725D01*
X145401328Y-88589335D01*
X145402999Y-88581652D01*
X145402999Y-87995495D01*
X145402736Y-87989746D01*
X145396868Y-87925885D01*
X145394257Y-87912849D01*
X145347285Y-87762957D01*
X145341079Y-87749212D01*
X145260176Y-87615626D01*
X145250869Y-87603757D01*
X145140443Y-87493331D01*
X145128574Y-87484024D01*
X144994988Y-87403121D01*
X144981243Y-87396915D01*
X144831356Y-87349944D01*
X144818306Y-87347331D01*
X144763414Y-87342287D01*
X144751876Y-87345675D01*
X144750671Y-87347065D01*
X144749000Y-87354748D01*
X144749000Y-88577085D01*
X144241000Y-88577085D01*
X144241000Y-87359316D01*
X144236525Y-87344077D01*
X144235135Y-87342872D01*
X144230706Y-87341909D01*
X144171685Y-87347332D01*
X144158649Y-87349943D01*
X144008757Y-87396915D01*
X143995012Y-87403121D01*
X143861426Y-87484024D01*
X143849557Y-87493331D01*
X143739131Y-87603757D01*
X143729824Y-87615626D01*
X143648921Y-87749212D01*
X143642715Y-87762957D01*
X143595744Y-87912844D01*
X143593131Y-87925894D01*
X143587266Y-87989721D01*
X143587000Y-87995509D01*
X143587000Y-88577085D01*
X141203499Y-88577085D01*
X141203499Y-87992566D01*
X141203234Y-87989674D01*
X141199974Y-87954196D01*
X141196753Y-87919138D01*
X141145472Y-87755501D01*
X141056639Y-87608819D01*
X140935381Y-87487561D01*
X140788699Y-87398728D01*
X140781452Y-87396457D01*
X140781450Y-87396456D01*
X140715164Y-87375683D01*
X140625062Y-87347447D01*
X140551635Y-87340700D01*
X140548737Y-87340700D01*
X140294335Y-87340701D01*
X140038366Y-87340701D01*
X140035508Y-87340964D01*
X140035499Y-87340964D01*
X140001619Y-87344077D01*
X139964938Y-87347447D01*
X139958560Y-87349446D01*
X139958559Y-87349446D01*
X139808550Y-87396456D01*
X139808548Y-87396457D01*
X139801301Y-87398728D01*
X139654619Y-87487561D01*
X139533361Y-87608819D01*
X139444528Y-87755501D01*
X139393247Y-87919138D01*
X139386500Y-87992565D01*
X139386501Y-89705834D01*
X139386764Y-89708692D01*
X139386764Y-89708701D01*
X139388707Y-89729844D01*
X139393247Y-89779262D01*
X139395246Y-89785640D01*
X139395246Y-89785641D01*
X139441099Y-89931956D01*
X139444528Y-89942899D01*
X139533361Y-90089581D01*
X139624595Y-90180815D01*
X139658621Y-90243127D01*
X139661500Y-90269910D01*
X139661500Y-91521005D01*
X139641498Y-91589126D01*
X139624595Y-91610100D01*
X136498594Y-94736101D01*
X136436282Y-94770127D01*
X136365467Y-94765062D01*
X136308631Y-94722515D01*
X136283820Y-94655995D01*
X136283499Y-94647006D01*
X136283499Y-94502566D01*
X136283234Y-94499674D01*
X136277364Y-94435792D01*
X136276753Y-94429138D01*
X136233479Y-94291051D01*
X136227744Y-94272750D01*
X136227743Y-94272748D01*
X136225472Y-94265501D01*
X136136639Y-94118819D01*
X136015381Y-93997561D01*
X135868699Y-93908728D01*
X135861452Y-93906457D01*
X135861450Y-93906456D01*
X135795164Y-93885683D01*
X135705062Y-93857447D01*
X135631635Y-93850700D01*
X135628737Y-93850700D01*
X134772778Y-93850701D01*
X133918366Y-93850701D01*
X133915508Y-93850964D01*
X133915499Y-93850964D01*
X133879996Y-93854226D01*
X133844938Y-93857447D01*
X133838560Y-93859446D01*
X133838559Y-93859446D01*
X133688550Y-93906456D01*
X133688548Y-93906457D01*
X133681301Y-93908728D01*
X133534619Y-93997561D01*
X133413361Y-94118819D01*
X133324528Y-94265501D01*
X133322257Y-94272748D01*
X133322256Y-94272750D01*
X133316521Y-94291051D01*
X133273247Y-94429138D01*
X133266500Y-94502565D01*
X133266501Y-95015834D01*
X133266764Y-95018697D01*
X133266765Y-95018718D01*
X133267974Y-95031874D01*
X133254289Y-95101539D01*
X133231598Y-95132498D01*
X129464438Y-98899657D01*
X129402126Y-98933683D01*
X129342733Y-98932269D01*
X129260063Y-98910119D01*
X129260064Y-98910119D01*
X129254745Y-98908694D01*
X129020000Y-98888156D01*
X128785255Y-98908694D01*
X128779941Y-98910118D01*
X128779940Y-98910118D01*
X128562952Y-98968259D01*
X128562950Y-98968260D01*
X128557642Y-98969682D01*
X128552662Y-98972004D01*
X128552660Y-98972005D01*
X128349059Y-99066946D01*
X128349056Y-99066948D01*
X128344078Y-99069269D01*
X128151051Y-99204427D01*
X127984427Y-99371051D01*
X127981268Y-99375563D01*
X127853213Y-99558445D01*
X127797756Y-99602774D01*
X127727137Y-99610083D01*
X127663776Y-99578053D01*
X127646787Y-99558445D01*
X127518732Y-99375563D01*
X127515573Y-99371051D01*
X127348949Y-99204427D01*
X127167230Y-99077187D01*
X127122901Y-99021730D01*
X127113500Y-98973974D01*
X127113500Y-95793700D01*
X127133502Y-95725579D01*
X127187158Y-95679086D01*
X127239500Y-95667700D01*
X127986569Y-95667699D01*
X128011634Y-95667699D01*
X128014492Y-95667436D01*
X128014501Y-95667436D01*
X128050004Y-95664174D01*
X128085062Y-95660953D01*
X128091447Y-95658952D01*
X128241450Y-95611944D01*
X128241452Y-95611943D01*
X128248699Y-95609672D01*
X128395381Y-95520839D01*
X128516639Y-95399581D01*
X128605472Y-95252899D01*
X128656753Y-95089262D01*
X128663500Y-95015835D01*
X128663499Y-94502566D01*
X128663234Y-94499674D01*
X128657364Y-94435792D01*
X128656753Y-94429138D01*
X128613479Y-94291051D01*
X128607744Y-94272750D01*
X128607743Y-94272748D01*
X128605472Y-94265501D01*
X128516639Y-94118819D01*
X128395381Y-93997561D01*
X128248699Y-93908728D01*
X128241452Y-93906457D01*
X128241450Y-93906456D01*
X128175164Y-93885683D01*
X128085062Y-93857447D01*
X128011635Y-93850700D01*
X128008737Y-93850700D01*
X127152778Y-93850701D01*
X126298366Y-93850701D01*
X126295508Y-93850964D01*
X126295499Y-93850964D01*
X126259996Y-93854226D01*
X126224938Y-93857447D01*
X126218560Y-93859446D01*
X126218559Y-93859446D01*
X126068550Y-93906456D01*
X126068548Y-93906457D01*
X126061301Y-93908728D01*
X125914619Y-93997561D01*
X125793361Y-94118819D01*
X125704528Y-94265501D01*
X125702257Y-94272748D01*
X125702256Y-94272750D01*
X125696521Y-94291051D01*
X125653247Y-94429138D01*
X125646500Y-94502565D01*
X125646501Y-95015834D01*
X125646764Y-95018692D01*
X125646764Y-95018701D01*
X125649696Y-95050612D01*
X125653247Y-95089262D01*
X125655246Y-95095640D01*
X125655246Y-95095641D01*
X125696982Y-95228819D01*
X125704528Y-95252899D01*
X125793361Y-95399581D01*
X125809595Y-95415815D01*
X125843621Y-95478127D01*
X125846500Y-95504910D01*
X125846500Y-98973974D01*
X125826498Y-99042095D01*
X125792770Y-99077187D01*
X125611051Y-99204427D01*
X125444427Y-99371051D01*
X125441268Y-99375563D01*
X125313213Y-99558445D01*
X125257756Y-99602774D01*
X125187137Y-99610083D01*
X125123776Y-99578053D01*
X125106787Y-99558445D01*
X124978732Y-99375563D01*
X124975573Y-99371051D01*
X124808949Y-99204427D01*
X124621555Y-99073213D01*
X124577226Y-99017756D01*
X124569917Y-98947137D01*
X124601947Y-98883776D01*
X124621555Y-98866787D01*
X124722528Y-98796085D01*
X124808949Y-98735573D01*
X124975573Y-98568949D01*
X125110731Y-98375922D01*
X125128776Y-98337226D01*
X125207995Y-98167340D01*
X125207996Y-98167338D01*
X125210318Y-98162358D01*
X125220387Y-98124782D01*
X125269882Y-97940060D01*
X125269882Y-97940059D01*
X125271306Y-97934745D01*
X125291844Y-97700000D01*
X125271306Y-97465255D01*
X125267145Y-97449724D01*
X125211741Y-97242952D01*
X125211740Y-97242950D01*
X125210318Y-97237642D01*
X125185284Y-97183956D01*
X125113054Y-97029059D01*
X125113052Y-97029056D01*
X125110731Y-97024078D01*
X124975573Y-96831051D01*
X124808949Y-96664427D01*
X124621555Y-96533213D01*
X124577226Y-96477756D01*
X124569917Y-96407137D01*
X124601947Y-96343776D01*
X124621555Y-96326787D01*
X124740329Y-96243621D01*
X124808949Y-96195573D01*
X124975573Y-96028949D01*
X125110731Y-95835922D01*
X125113922Y-95829080D01*
X125207995Y-95627340D01*
X125207996Y-95627338D01*
X125210318Y-95622358D01*
X125213109Y-95611944D01*
X125269882Y-95400060D01*
X125269882Y-95400059D01*
X125271306Y-95394745D01*
X125291844Y-95160000D01*
X125271306Y-94925255D01*
X125261647Y-94889206D01*
X125211741Y-94702952D01*
X125211740Y-94702950D01*
X125210318Y-94697642D01*
X125119352Y-94502565D01*
X125113054Y-94489059D01*
X125113052Y-94489056D01*
X125110731Y-94484078D01*
X124975573Y-94291051D01*
X124808949Y-94124427D01*
X124635442Y-94002937D01*
X124621555Y-93993213D01*
X124577226Y-93937756D01*
X124569917Y-93867137D01*
X124601947Y-93803776D01*
X124621555Y-93786787D01*
X124770847Y-93682252D01*
X124808949Y-93655573D01*
X124975573Y-93488949D01*
X125110731Y-93295922D01*
X125155850Y-93199166D01*
X125207995Y-93087340D01*
X125207996Y-93087338D01*
X125210318Y-93082358D01*
X125229238Y-93011749D01*
X125269882Y-92860060D01*
X125269882Y-92860059D01*
X125271306Y-92854745D01*
X125291844Y-92620000D01*
X125271306Y-92385255D01*
X125254474Y-92322435D01*
X125211741Y-92162952D01*
X125211740Y-92162950D01*
X125210318Y-92157642D01*
X125148792Y-92025700D01*
X125113054Y-91949059D01*
X125113052Y-91949056D01*
X125110731Y-91944078D01*
X124975573Y-91751051D01*
X124808949Y-91584427D01*
X124615922Y-91449269D01*
X124610944Y-91446948D01*
X124610941Y-91446946D01*
X124497835Y-91394204D01*
X124444550Y-91347287D01*
X124425089Y-91279009D01*
X124445631Y-91211049D01*
X124461990Y-91190914D01*
X124829410Y-90823494D01*
X125647709Y-90823494D01*
X125653132Y-90882515D01*
X125655743Y-90895551D01*
X125702715Y-91045443D01*
X125708921Y-91059188D01*
X125789824Y-91192774D01*
X125799131Y-91204643D01*
X125909557Y-91315069D01*
X125921426Y-91324376D01*
X126055012Y-91405279D01*
X126068757Y-91411485D01*
X126218644Y-91458456D01*
X126231694Y-91461069D01*
X126295521Y-91466934D01*
X126301309Y-91467200D01*
X126882885Y-91467200D01*
X126898124Y-91462725D01*
X126899329Y-91461335D01*
X126901000Y-91453652D01*
X126901000Y-91449084D01*
X127409000Y-91449084D01*
X127413475Y-91464323D01*
X127414865Y-91465528D01*
X127422548Y-91467199D01*
X128008705Y-91467199D01*
X128014454Y-91466936D01*
X128078315Y-91461068D01*
X128091351Y-91458457D01*
X128241243Y-91411485D01*
X128254988Y-91405279D01*
X128388574Y-91324376D01*
X128400443Y-91315069D01*
X128510869Y-91204643D01*
X128520176Y-91192774D01*
X128601079Y-91059188D01*
X128607285Y-91045443D01*
X128654256Y-90895556D01*
X128656869Y-90882506D01*
X128661913Y-90827614D01*
X128660703Y-90823494D01*
X133267709Y-90823494D01*
X133273132Y-90882515D01*
X133275743Y-90895551D01*
X133322715Y-91045443D01*
X133328921Y-91059188D01*
X133409824Y-91192774D01*
X133419131Y-91204643D01*
X133529557Y-91315069D01*
X133541426Y-91324376D01*
X133675012Y-91405279D01*
X133688757Y-91411485D01*
X133838644Y-91458456D01*
X133851694Y-91461069D01*
X133915521Y-91466934D01*
X133921309Y-91467200D01*
X134502885Y-91467200D01*
X134518124Y-91462725D01*
X134519329Y-91461335D01*
X134521000Y-91453652D01*
X134521000Y-91449084D01*
X135029000Y-91449084D01*
X135033475Y-91464323D01*
X135034865Y-91465528D01*
X135042548Y-91467199D01*
X135628705Y-91467199D01*
X135634454Y-91466936D01*
X135698315Y-91461068D01*
X135711351Y-91458457D01*
X135861243Y-91411485D01*
X135874988Y-91405279D01*
X136008574Y-91324376D01*
X136020443Y-91315069D01*
X136130869Y-91204643D01*
X136140176Y-91192774D01*
X136221079Y-91059188D01*
X136227285Y-91045443D01*
X136274256Y-90895556D01*
X136276869Y-90882506D01*
X136281913Y-90827614D01*
X136278525Y-90816076D01*
X136277135Y-90814871D01*
X136269452Y-90813200D01*
X135047115Y-90813200D01*
X135031876Y-90817675D01*
X135030671Y-90819065D01*
X135029000Y-90826748D01*
X135029000Y-91449084D01*
X134521000Y-91449084D01*
X134521000Y-90831315D01*
X134516525Y-90816076D01*
X134515135Y-90814871D01*
X134507452Y-90813200D01*
X133285116Y-90813200D01*
X133269877Y-90817675D01*
X133268672Y-90819065D01*
X133267709Y-90823494D01*
X128660703Y-90823494D01*
X128658525Y-90816076D01*
X128657135Y-90814871D01*
X128649452Y-90813200D01*
X127427115Y-90813200D01*
X127411876Y-90817675D01*
X127410671Y-90819065D01*
X127409000Y-90826748D01*
X127409000Y-91449084D01*
X126901000Y-91449084D01*
X126901000Y-90831315D01*
X126896525Y-90816076D01*
X126895135Y-90814871D01*
X126887452Y-90813200D01*
X125665116Y-90813200D01*
X125649877Y-90817675D01*
X125648672Y-90819065D01*
X125647709Y-90823494D01*
X124829410Y-90823494D01*
X125433016Y-90219888D01*
X125495328Y-90185862D01*
X125566143Y-90190927D01*
X125622979Y-90233474D01*
X125643007Y-90273485D01*
X125651475Y-90302324D01*
X125652865Y-90303529D01*
X125660548Y-90305200D01*
X126882885Y-90305200D01*
X126898124Y-90300725D01*
X126899329Y-90299335D01*
X126901000Y-90291652D01*
X126901000Y-90287085D01*
X127409000Y-90287085D01*
X127413475Y-90302324D01*
X127414865Y-90303529D01*
X127422548Y-90305200D01*
X128644884Y-90305200D01*
X128660123Y-90300725D01*
X128661328Y-90299335D01*
X128662291Y-90294906D01*
X128661912Y-90290786D01*
X133268087Y-90290786D01*
X133271475Y-90302324D01*
X133272865Y-90303529D01*
X133280548Y-90305200D01*
X134502885Y-90305200D01*
X134518124Y-90300725D01*
X134519329Y-90299335D01*
X134521000Y-90291652D01*
X134521000Y-90287085D01*
X135029000Y-90287085D01*
X135033475Y-90302324D01*
X135034865Y-90303529D01*
X135042548Y-90305200D01*
X136264884Y-90305200D01*
X136280123Y-90300725D01*
X136281328Y-90299335D01*
X136282291Y-90294906D01*
X136276868Y-90235885D01*
X136274257Y-90222849D01*
X136227285Y-90072957D01*
X136221079Y-90059212D01*
X136140176Y-89925626D01*
X136130869Y-89913757D01*
X136020443Y-89803331D01*
X136008574Y-89794024D01*
X135874988Y-89713121D01*
X135861243Y-89706915D01*
X135711356Y-89659944D01*
X135698306Y-89657331D01*
X135634479Y-89651466D01*
X135628691Y-89651200D01*
X135047115Y-89651200D01*
X135031876Y-89655675D01*
X135030671Y-89657065D01*
X135029000Y-89664748D01*
X135029000Y-90287085D01*
X134521000Y-90287085D01*
X134521000Y-89669316D01*
X134516525Y-89654077D01*
X134515135Y-89652872D01*
X134507452Y-89651201D01*
X133921295Y-89651201D01*
X133915546Y-89651464D01*
X133851685Y-89657332D01*
X133838649Y-89659943D01*
X133688757Y-89706915D01*
X133675012Y-89713121D01*
X133541426Y-89794024D01*
X133529557Y-89803331D01*
X133419131Y-89913757D01*
X133409824Y-89925626D01*
X133328921Y-90059212D01*
X133322715Y-90072957D01*
X133275744Y-90222844D01*
X133273131Y-90235894D01*
X133268087Y-90290786D01*
X128661912Y-90290786D01*
X128656868Y-90235885D01*
X128654257Y-90222849D01*
X128607285Y-90072957D01*
X128601079Y-90059212D01*
X128520176Y-89925626D01*
X128510869Y-89913757D01*
X128400443Y-89803331D01*
X128388574Y-89794024D01*
X128254988Y-89713121D01*
X128241243Y-89706915D01*
X128091356Y-89659944D01*
X128078306Y-89657331D01*
X128014479Y-89651466D01*
X128008691Y-89651200D01*
X127427115Y-89651200D01*
X127411876Y-89655675D01*
X127410671Y-89657065D01*
X127409000Y-89664748D01*
X127409000Y-90287085D01*
X126901000Y-90287085D01*
X126901000Y-89669316D01*
X126896525Y-89654077D01*
X126895135Y-89652872D01*
X126887452Y-89651201D01*
X126305893Y-89651201D01*
X126237772Y-89631199D01*
X126191279Y-89577543D01*
X126181175Y-89507269D01*
X126210669Y-89442689D01*
X126216798Y-89436106D01*
X129638499Y-86014405D01*
X129700811Y-85980379D01*
X129727594Y-85977500D01*
X144452800Y-85977500D01*
X144520921Y-85997502D01*
X144540147Y-86013843D01*
X144540420Y-86013540D01*
X144545332Y-86017963D01*
X144549747Y-86022866D01*
X144704248Y-86135118D01*
X144710276Y-86137802D01*
X144710278Y-86137803D01*
X144731409Y-86147211D01*
X144878712Y-86212794D01*
X144972113Y-86232647D01*
X145059056Y-86251128D01*
X145059061Y-86251128D01*
X145065513Y-86252500D01*
X145256487Y-86252500D01*
X145262939Y-86251128D01*
X145262944Y-86251128D01*
X145349887Y-86232647D01*
X145443288Y-86212794D01*
X145590591Y-86147211D01*
X145611722Y-86137803D01*
X145611724Y-86137802D01*
X145617752Y-86135118D01*
X145772253Y-86022866D01*
X145795091Y-85997502D01*
X145895621Y-85885852D01*
X145895622Y-85885851D01*
X145900040Y-85880944D01*
X145995527Y-85715556D01*
X146054542Y-85533928D01*
X146074504Y-85344000D01*
X146061324Y-85218595D01*
X146055233Y-85160643D01*
X146055232Y-85160640D01*
X146054542Y-85154072D01*
X146054351Y-85153484D01*
X146059582Y-85084910D01*
X146102396Y-85028276D01*
X146169033Y-85003780D01*
X146177428Y-85003500D01*
X157091206Y-85003500D01*
X157159327Y-85023502D01*
X157180301Y-85040405D01*
X166305094Y-94165198D01*
X166339120Y-94227510D01*
X166336233Y-94291970D01*
X166293247Y-94429138D01*
X166286500Y-94502565D01*
X166286501Y-95015834D01*
X166286764Y-95018692D01*
X166286764Y-95018701D01*
X166289696Y-95050612D01*
X166293247Y-95089262D01*
X166295246Y-95095640D01*
X166295246Y-95095641D01*
X166336982Y-95228819D01*
X166344528Y-95252899D01*
X166433361Y-95399581D01*
X166554619Y-95520839D01*
X166701301Y-95609672D01*
X166708548Y-95611943D01*
X166708550Y-95611944D01*
X166774836Y-95632717D01*
X166864938Y-95660953D01*
X166938365Y-95667700D01*
X166941263Y-95667700D01*
X167797222Y-95667699D01*
X168651634Y-95667699D01*
X168654492Y-95667436D01*
X168654501Y-95667436D01*
X168690004Y-95664174D01*
X168725062Y-95660953D01*
X168731447Y-95658952D01*
X168881450Y-95611944D01*
X168881452Y-95611943D01*
X168888699Y-95609672D01*
X169035381Y-95520839D01*
X169156639Y-95399581D01*
X169245472Y-95252899D01*
X169296753Y-95089262D01*
X169303500Y-95015835D01*
X169303499Y-94502566D01*
X169303234Y-94499674D01*
X169297364Y-94435792D01*
X169296753Y-94429138D01*
X169253479Y-94291051D01*
X169247744Y-94272750D01*
X169247743Y-94272748D01*
X169245472Y-94265501D01*
X169156639Y-94118819D01*
X169035381Y-93997561D01*
X168888699Y-93908728D01*
X168881452Y-93906457D01*
X168881450Y-93906456D01*
X168815164Y-93885683D01*
X168725062Y-93857447D01*
X168651635Y-93850700D01*
X168605908Y-93850700D01*
X167834595Y-93850701D01*
X167766474Y-93830699D01*
X167745500Y-93813796D01*
X164755199Y-90823494D01*
X166287709Y-90823494D01*
X166293132Y-90882515D01*
X166295743Y-90895551D01*
X166342715Y-91045443D01*
X166348921Y-91059188D01*
X166429824Y-91192774D01*
X166439131Y-91204643D01*
X166549557Y-91315069D01*
X166561426Y-91324376D01*
X166695012Y-91405279D01*
X166708757Y-91411485D01*
X166858644Y-91458456D01*
X166871694Y-91461069D01*
X166935521Y-91466934D01*
X166941309Y-91467200D01*
X167522885Y-91467200D01*
X167538124Y-91462725D01*
X167539329Y-91461335D01*
X167541000Y-91453652D01*
X167541000Y-91449084D01*
X168049000Y-91449084D01*
X168053475Y-91464323D01*
X168054865Y-91465528D01*
X168062548Y-91467199D01*
X168648705Y-91467199D01*
X168654454Y-91466936D01*
X168718315Y-91461068D01*
X168731351Y-91458457D01*
X168881243Y-91411485D01*
X168894988Y-91405279D01*
X169028574Y-91324376D01*
X169040443Y-91315069D01*
X169150869Y-91204643D01*
X169160176Y-91192774D01*
X169241079Y-91059188D01*
X169247285Y-91045443D01*
X169294256Y-90895556D01*
X169296869Y-90882506D01*
X169301913Y-90827614D01*
X169298525Y-90816076D01*
X169297135Y-90814871D01*
X169289452Y-90813200D01*
X168067115Y-90813200D01*
X168051876Y-90817675D01*
X168050671Y-90819065D01*
X168049000Y-90826748D01*
X168049000Y-91449084D01*
X167541000Y-91449084D01*
X167541000Y-90831315D01*
X167536525Y-90816076D01*
X167535135Y-90814871D01*
X167527452Y-90813200D01*
X166305116Y-90813200D01*
X166289877Y-90817675D01*
X166288672Y-90819065D01*
X166287709Y-90823494D01*
X164755199Y-90823494D01*
X164222491Y-90290786D01*
X166288087Y-90290786D01*
X166291475Y-90302324D01*
X166292865Y-90303529D01*
X166300548Y-90305200D01*
X167522885Y-90305200D01*
X167538124Y-90300725D01*
X167539329Y-90299335D01*
X167541000Y-90291652D01*
X167541000Y-90287085D01*
X168049000Y-90287085D01*
X168053475Y-90302324D01*
X168054865Y-90303529D01*
X168062548Y-90305200D01*
X169284884Y-90305200D01*
X169300123Y-90300725D01*
X169301328Y-90299335D01*
X169302291Y-90294906D01*
X169296868Y-90235885D01*
X169294257Y-90222849D01*
X169261546Y-90118464D01*
X171796907Y-90118464D01*
X171826025Y-90310999D01*
X171828228Y-90316985D01*
X171828229Y-90316991D01*
X171891060Y-90487760D01*
X171891062Y-90487765D01*
X171893263Y-90493746D01*
X171944400Y-90576221D01*
X171985301Y-90642187D01*
X171995874Y-90659240D01*
X172129666Y-90800722D01*
X172134896Y-90804384D01*
X172134897Y-90804385D01*
X172189371Y-90842528D01*
X172289175Y-90912411D01*
X172295038Y-90914948D01*
X172462025Y-90987210D01*
X172462029Y-90987211D01*
X172467884Y-90989745D01*
X172474131Y-90991050D01*
X172474134Y-90991051D01*
X172653757Y-91028576D01*
X172653762Y-91028577D01*
X172658493Y-91029565D01*
X172664885Y-91029900D01*
X172807863Y-91029900D01*
X172931062Y-91017386D01*
X172946578Y-91015810D01*
X172946579Y-91015810D01*
X172952927Y-91015165D01*
X173034043Y-90989745D01*
X173132651Y-90958844D01*
X173132656Y-90958842D01*
X173138741Y-90956935D01*
X173225675Y-90908746D01*
X173303471Y-90865623D01*
X173303474Y-90865621D01*
X173309050Y-90862530D01*
X173313891Y-90858381D01*
X173313895Y-90858378D01*
X173452055Y-90739960D01*
X173456898Y-90735809D01*
X173576246Y-90581947D01*
X173616979Y-90499168D01*
X173659400Y-90412956D01*
X173662218Y-90407229D01*
X173664632Y-90397963D01*
X173709692Y-90224975D01*
X173709692Y-90224972D01*
X173711302Y-90218793D01*
X173717792Y-90094957D01*
X173721159Y-90030717D01*
X173721159Y-90030713D01*
X173721493Y-90024336D01*
X173692375Y-89831801D01*
X173690172Y-89825815D01*
X173690171Y-89825809D01*
X173627340Y-89655040D01*
X173627338Y-89655035D01*
X173625137Y-89649054D01*
X173556314Y-89538054D01*
X173525888Y-89488982D01*
X173525887Y-89488981D01*
X173522526Y-89483560D01*
X173483877Y-89442689D01*
X173393119Y-89346715D01*
X173388734Y-89342078D01*
X173229225Y-89230389D01*
X173147744Y-89195129D01*
X173056375Y-89155590D01*
X173056371Y-89155589D01*
X173050516Y-89153055D01*
X173044269Y-89151750D01*
X173044266Y-89151749D01*
X172864643Y-89114224D01*
X172864638Y-89114223D01*
X172859907Y-89113235D01*
X172853515Y-89112900D01*
X172710537Y-89112900D01*
X172672654Y-89116748D01*
X172571822Y-89126990D01*
X172571821Y-89126990D01*
X172565473Y-89127635D01*
X172509139Y-89145289D01*
X172385749Y-89183956D01*
X172385744Y-89183958D01*
X172379659Y-89185865D01*
X172362947Y-89195129D01*
X172214929Y-89277177D01*
X172214926Y-89277179D01*
X172209350Y-89280270D01*
X172204509Y-89284419D01*
X172204505Y-89284422D01*
X172141511Y-89338415D01*
X172061502Y-89406991D01*
X171942154Y-89560853D01*
X171939338Y-89566576D01*
X171939336Y-89566579D01*
X171869404Y-89708701D01*
X171856182Y-89735571D01*
X171854573Y-89741749D01*
X171854572Y-89741751D01*
X171809142Y-89916161D01*
X171807098Y-89924007D01*
X171802696Y-90007997D01*
X171798373Y-90090498D01*
X171796907Y-90118464D01*
X169261546Y-90118464D01*
X169247285Y-90072957D01*
X169241079Y-90059212D01*
X169160176Y-89925626D01*
X169150869Y-89913757D01*
X169040443Y-89803331D01*
X169028574Y-89794024D01*
X168894988Y-89713121D01*
X168881243Y-89706915D01*
X168731356Y-89659944D01*
X168718306Y-89657331D01*
X168654479Y-89651466D01*
X168648691Y-89651200D01*
X168067115Y-89651200D01*
X168051876Y-89655675D01*
X168050671Y-89657065D01*
X168049000Y-89664748D01*
X168049000Y-90287085D01*
X167541000Y-90287085D01*
X167541000Y-89669316D01*
X167536525Y-89654077D01*
X167535135Y-89652872D01*
X167527452Y-89651201D01*
X166941295Y-89651201D01*
X166935546Y-89651464D01*
X166871685Y-89657332D01*
X166858649Y-89659943D01*
X166708757Y-89706915D01*
X166695012Y-89713121D01*
X166561426Y-89794024D01*
X166549557Y-89803331D01*
X166439131Y-89913757D01*
X166429824Y-89925626D01*
X166348921Y-90059212D01*
X166342715Y-90072957D01*
X166295744Y-90222844D01*
X166293131Y-90235894D01*
X166288087Y-90290786D01*
X164222491Y-90290786D01*
X162838603Y-88906898D01*
X157909452Y-83977747D01*
X157901912Y-83969461D01*
X157897800Y-83962982D01*
X157848148Y-83916356D01*
X157845307Y-83913602D01*
X157825570Y-83893865D01*
X157822373Y-83891385D01*
X157813351Y-83883680D01*
X157786900Y-83858841D01*
X157781121Y-83853414D01*
X157774175Y-83849595D01*
X157774172Y-83849593D01*
X157763366Y-83843652D01*
X157746847Y-83832801D01*
X157742293Y-83829269D01*
X157730841Y-83820386D01*
X157723572Y-83817241D01*
X157723568Y-83817238D01*
X157690263Y-83802826D01*
X157679613Y-83797609D01*
X157640860Y-83776305D01*
X157621237Y-83771267D01*
X157602534Y-83764863D01*
X157591220Y-83759967D01*
X157591219Y-83759967D01*
X157583945Y-83756819D01*
X157576122Y-83755580D01*
X157576112Y-83755577D01*
X157540276Y-83749901D01*
X157528656Y-83747495D01*
X157493511Y-83738472D01*
X157493510Y-83738472D01*
X157485830Y-83736500D01*
X157465576Y-83736500D01*
X157445865Y-83734949D01*
X157433686Y-83733020D01*
X157425857Y-83731780D01*
X157417965Y-83732526D01*
X157381839Y-83735941D01*
X157369981Y-83736500D01*
X128704595Y-83736500D01*
X128636474Y-83716498D01*
X128615500Y-83699595D01*
X128209782Y-83293877D01*
X166981335Y-83293877D01*
X167019305Y-83582287D01*
X167096065Y-83862876D01*
X167097749Y-83866824D01*
X167141042Y-83968322D01*
X167210196Y-84130452D01*
X167359585Y-84380062D01*
X167362269Y-84383413D01*
X167362271Y-84383415D01*
X167376922Y-84401702D01*
X167541467Y-84607089D01*
X167692979Y-84750868D01*
X167726252Y-84782443D01*
X167752478Y-84807331D01*
X167988713Y-84977083D01*
X168013292Y-84990097D01*
X168192364Y-85084910D01*
X168245800Y-85113203D01*
X168249823Y-85114675D01*
X168249827Y-85114677D01*
X168514951Y-85211699D01*
X168518982Y-85213174D01*
X168803204Y-85275144D01*
X168832250Y-85277430D01*
X169028897Y-85292907D01*
X169028904Y-85292907D01*
X169031353Y-85293100D01*
X169188721Y-85293100D01*
X169190857Y-85292954D01*
X169190868Y-85292954D01*
X169401549Y-85278591D01*
X169401555Y-85278590D01*
X169405826Y-85278299D01*
X169410021Y-85277430D01*
X169410023Y-85277430D01*
X169590477Y-85240060D01*
X169690681Y-85219309D01*
X169964895Y-85122205D01*
X170156128Y-85023502D01*
X170219586Y-84990749D01*
X170219587Y-84990749D01*
X170223393Y-84988784D01*
X170226894Y-84986323D01*
X170226898Y-84986321D01*
X170363370Y-84890406D01*
X170461392Y-84821515D01*
X170674488Y-84623494D01*
X170685495Y-84610047D01*
X170856023Y-84401702D01*
X170858739Y-84398384D01*
X171010733Y-84150352D01*
X171019469Y-84130452D01*
X171114038Y-83915016D01*
X171127659Y-83883986D01*
X171133673Y-83862876D01*
X171164237Y-83755577D01*
X171207354Y-83604216D01*
X171209886Y-83586429D01*
X171247737Y-83320470D01*
X171248342Y-83316219D01*
X171249145Y-83162832D01*
X171249843Y-83029609D01*
X171249843Y-83029603D01*
X171249865Y-83025323D01*
X171211895Y-82736913D01*
X171135135Y-82456324D01*
X171091054Y-82352977D01*
X171022690Y-82192700D01*
X171022688Y-82192696D01*
X171021004Y-82188748D01*
X170871615Y-81939138D01*
X170856937Y-81920816D01*
X170692423Y-81715469D01*
X170689733Y-81712111D01*
X170478722Y-81511869D01*
X170242487Y-81342117D01*
X169985400Y-81205997D01*
X169981377Y-81204525D01*
X169981373Y-81204523D01*
X169716249Y-81107501D01*
X169716247Y-81107500D01*
X169712218Y-81106026D01*
X169427996Y-81044056D01*
X169384198Y-81040609D01*
X169202303Y-81026293D01*
X169202296Y-81026293D01*
X169199847Y-81026100D01*
X169042479Y-81026100D01*
X169040343Y-81026246D01*
X169040332Y-81026246D01*
X168829651Y-81040609D01*
X168829645Y-81040610D01*
X168825374Y-81040901D01*
X168821179Y-81041770D01*
X168821177Y-81041770D01*
X168805730Y-81044969D01*
X168540519Y-81099891D01*
X168266305Y-81196995D01*
X168007807Y-81330416D01*
X168004306Y-81332877D01*
X168004302Y-81332879D01*
X167991158Y-81342117D01*
X167769808Y-81497685D01*
X167766667Y-81500604D01*
X167563068Y-81689800D01*
X167556712Y-81695706D01*
X167553998Y-81699022D01*
X167553995Y-81699025D01*
X167541624Y-81714140D01*
X167372461Y-81920816D01*
X167220467Y-82168848D01*
X167218748Y-82172765D01*
X167218746Y-82172768D01*
X167181669Y-82257232D01*
X167103541Y-82435214D01*
X167102365Y-82439342D01*
X167102364Y-82439345D01*
X167081618Y-82512176D01*
X167023846Y-82714984D01*
X167023242Y-82719226D01*
X167023241Y-82719232D01*
X167020725Y-82736913D01*
X166982858Y-83002981D01*
X166981335Y-83293877D01*
X128209782Y-83293877D01*
X126994682Y-82078777D01*
X130525777Y-82078777D01*
X130535074Y-82090793D01*
X130578069Y-82120898D01*
X130587555Y-82126376D01*
X130778993Y-82215645D01*
X130789285Y-82219391D01*
X130993309Y-82274059D01*
X131004104Y-82275962D01*
X131214525Y-82294372D01*
X131225475Y-82294372D01*
X131435896Y-82275962D01*
X131446691Y-82274059D01*
X131650715Y-82219391D01*
X131661007Y-82215645D01*
X131852445Y-82126376D01*
X131861931Y-82120898D01*
X131905764Y-82090207D01*
X131914139Y-82079729D01*
X131907071Y-82066281D01*
X131232812Y-81392022D01*
X131218868Y-81384408D01*
X131217035Y-81384539D01*
X131210420Y-81388790D01*
X130532207Y-82067003D01*
X130525777Y-82078777D01*
X126994682Y-82078777D01*
X125941380Y-81025475D01*
X129945628Y-81025475D01*
X129964038Y-81235896D01*
X129965941Y-81246691D01*
X130020609Y-81450715D01*
X130024355Y-81461007D01*
X130113623Y-81652441D01*
X130119103Y-81661932D01*
X130149794Y-81705765D01*
X130160271Y-81714140D01*
X130173718Y-81707072D01*
X130847978Y-81032812D01*
X130854356Y-81021132D01*
X131584408Y-81021132D01*
X131584539Y-81022965D01*
X131588790Y-81029580D01*
X132267003Y-81707793D01*
X132278777Y-81714223D01*
X132290793Y-81704926D01*
X132320897Y-81661932D01*
X132326377Y-81652441D01*
X132415645Y-81461007D01*
X132419391Y-81450715D01*
X132474059Y-81246691D01*
X132475962Y-81235896D01*
X132494372Y-81025475D01*
X132494372Y-81014525D01*
X132475962Y-80804104D01*
X132474059Y-80793309D01*
X132419391Y-80589285D01*
X132415645Y-80578993D01*
X132326377Y-80387559D01*
X132320897Y-80378068D01*
X132290206Y-80334235D01*
X132279729Y-80325860D01*
X132266282Y-80332928D01*
X131592022Y-81007188D01*
X131584408Y-81021132D01*
X130854356Y-81021132D01*
X130855592Y-81018868D01*
X130855461Y-81017035D01*
X130851210Y-81010420D01*
X130172997Y-80332207D01*
X130161223Y-80325777D01*
X130149207Y-80335074D01*
X130119103Y-80378068D01*
X130113623Y-80387559D01*
X130024355Y-80578993D01*
X130020609Y-80589285D01*
X129965941Y-80793309D01*
X129964038Y-80804104D01*
X129945628Y-81014525D01*
X129945628Y-81025475D01*
X125941380Y-81025475D01*
X125280343Y-80364438D01*
X125246317Y-80302126D01*
X125247731Y-80242733D01*
X125269881Y-80160063D01*
X125271306Y-80154745D01*
X125291844Y-79920000D01*
X125271306Y-79685255D01*
X125258130Y-79636081D01*
X125211741Y-79462952D01*
X125211740Y-79462950D01*
X125210318Y-79457642D01*
X125207995Y-79452660D01*
X125113054Y-79249059D01*
X125113052Y-79249056D01*
X125110731Y-79244078D01*
X124975573Y-79051051D01*
X124808949Y-78884427D01*
X124771509Y-78858211D01*
X124727182Y-78802757D01*
X124719873Y-78732137D01*
X124751903Y-78668777D01*
X124813104Y-78632791D01*
X124843781Y-78629000D01*
X125000685Y-78629000D01*
X125015924Y-78624525D01*
X125017129Y-78623135D01*
X125018800Y-78615452D01*
X125018800Y-78610884D01*
X125526800Y-78610884D01*
X125531275Y-78626123D01*
X125532665Y-78627328D01*
X125540348Y-78628999D01*
X126217469Y-78628999D01*
X126224290Y-78628629D01*
X126275152Y-78623105D01*
X126290404Y-78619479D01*
X126410854Y-78574324D01*
X126426449Y-78565786D01*
X126528524Y-78489285D01*
X126541085Y-78476724D01*
X126617586Y-78374649D01*
X126626124Y-78359054D01*
X126671278Y-78238606D01*
X126674905Y-78223351D01*
X126680431Y-78172486D01*
X126680800Y-78165672D01*
X126680800Y-77493115D01*
X126676325Y-77477876D01*
X126674935Y-77476671D01*
X126667252Y-77475000D01*
X125544915Y-77475000D01*
X125529676Y-77479475D01*
X125528471Y-77480865D01*
X125526800Y-77488548D01*
X125526800Y-78610884D01*
X125018800Y-78610884D01*
X125018800Y-77493115D01*
X125014325Y-77477876D01*
X125012935Y-77476671D01*
X125005252Y-77475000D01*
X123882916Y-77475000D01*
X123867677Y-77479475D01*
X123866472Y-77480865D01*
X123864801Y-77488548D01*
X123864801Y-78165669D01*
X123865171Y-78172490D01*
X123870695Y-78223352D01*
X123874321Y-78238604D01*
X123919476Y-78359054D01*
X123928015Y-78374650D01*
X123928948Y-78375895D01*
X123929489Y-78377342D01*
X123932322Y-78382517D01*
X123931575Y-78382926D01*
X123953798Y-78442400D01*
X123938747Y-78511783D01*
X123888574Y-78562015D01*
X123839106Y-78576982D01*
X123710747Y-78588213D01*
X123710741Y-78588214D01*
X123705255Y-78588694D01*
X123699941Y-78590118D01*
X123699940Y-78590118D01*
X123482952Y-78648259D01*
X123482950Y-78648260D01*
X123477642Y-78649682D01*
X123472662Y-78652004D01*
X123472660Y-78652005D01*
X123269059Y-78746946D01*
X123269056Y-78746948D01*
X123264078Y-78749269D01*
X123071051Y-78884427D01*
X122904427Y-79051051D01*
X122814471Y-79179523D01*
X122772908Y-79238881D01*
X122717451Y-79283209D01*
X122646832Y-79290518D01*
X122583471Y-79258488D01*
X122566482Y-79238881D01*
X122524919Y-79179523D01*
X122514442Y-79171148D01*
X122500996Y-79178215D01*
X121772021Y-79907189D01*
X121764408Y-79921132D01*
X121764539Y-79922966D01*
X121768790Y-79929580D01*
X122501720Y-80662509D01*
X122513490Y-80668936D01*
X122525504Y-80659642D01*
X122566482Y-80601119D01*
X122621939Y-80556791D01*
X122692558Y-80549482D01*
X122755919Y-80581513D01*
X122772908Y-80601119D01*
X122904427Y-80788949D01*
X123071051Y-80955573D01*
X123161446Y-81018868D01*
X123258445Y-81086787D01*
X123302774Y-81142244D01*
X123310083Y-81212863D01*
X123278053Y-81276224D01*
X123258445Y-81293213D01*
X123201796Y-81332879D01*
X123071051Y-81424427D01*
X122904427Y-81591051D01*
X122901268Y-81595563D01*
X122773213Y-81778445D01*
X122717756Y-81822774D01*
X122647137Y-81830083D01*
X122583776Y-81798053D01*
X122566787Y-81778445D01*
X122438732Y-81595563D01*
X122435573Y-81591051D01*
X122268949Y-81424427D01*
X122081119Y-81292908D01*
X122036791Y-81237451D01*
X122029482Y-81166832D01*
X122061512Y-81103471D01*
X122081119Y-81086482D01*
X122140477Y-81044919D01*
X122148852Y-81034442D01*
X122141784Y-81020995D01*
X121129885Y-80009095D01*
X121095859Y-79946783D01*
X121100924Y-79875967D01*
X121129885Y-79830905D01*
X121400000Y-79560790D01*
X122142505Y-78818284D01*
X122148935Y-78806509D01*
X122139639Y-78794494D01*
X122080179Y-78752860D01*
X122070684Y-78747377D01*
X121867168Y-78652477D01*
X121856876Y-78648731D01*
X121639973Y-78590612D01*
X121629178Y-78588709D01*
X121405475Y-78569137D01*
X121394525Y-78569137D01*
X121170822Y-78588709D01*
X121160027Y-78590612D01*
X120943124Y-78648731D01*
X120932832Y-78652477D01*
X120729316Y-78747377D01*
X120719822Y-78752859D01*
X120706770Y-78761998D01*
X120639496Y-78784685D01*
X120570635Y-78767399D01*
X120522052Y-78715629D01*
X120508500Y-78658784D01*
X120508500Y-74646469D01*
X123859895Y-74646469D01*
X123860192Y-74651622D01*
X123860192Y-74651625D01*
X123865867Y-74750041D01*
X123873227Y-74877697D01*
X123874364Y-74882743D01*
X123874365Y-74882749D01*
X123902826Y-75009038D01*
X123924146Y-75103642D01*
X123926088Y-75108424D01*
X123926089Y-75108428D01*
X123966545Y-75208058D01*
X124011284Y-75318237D01*
X124037557Y-75361110D01*
X124121947Y-75498822D01*
X124132301Y-75515719D01*
X124135682Y-75519622D01*
X124244453Y-75645191D01*
X124273935Y-75709776D01*
X124263820Y-75780049D01*
X124217319Y-75833697D01*
X124193446Y-75845670D01*
X124134744Y-75867677D01*
X124119151Y-75876214D01*
X124017076Y-75952715D01*
X124004515Y-75965276D01*
X123928014Y-76067351D01*
X123919476Y-76082946D01*
X123874322Y-76203394D01*
X123870695Y-76218649D01*
X123865169Y-76269514D01*
X123864800Y-76276328D01*
X123864800Y-76948885D01*
X123869275Y-76964124D01*
X123870665Y-76965329D01*
X123878348Y-76967000D01*
X126662684Y-76967000D01*
X126677923Y-76962525D01*
X126679128Y-76961135D01*
X126680799Y-76953452D01*
X126680799Y-76276331D01*
X126680429Y-76269510D01*
X126674905Y-76218648D01*
X126671279Y-76203396D01*
X126626124Y-76082946D01*
X126617586Y-76067351D01*
X126541085Y-75965276D01*
X126528524Y-75952715D01*
X126426449Y-75876214D01*
X126410852Y-75867675D01*
X126352215Y-75845693D01*
X126295450Y-75803052D01*
X126270750Y-75736490D01*
X126285957Y-75667141D01*
X126307503Y-75638461D01*
X126345441Y-75600654D01*
X126349103Y-75597005D01*
X126484258Y-75408917D01*
X126496421Y-75384308D01*
X126584584Y-75205922D01*
X126584585Y-75205920D01*
X126586878Y-75201280D01*
X126654208Y-74979671D01*
X126684440Y-74750041D01*
X126684711Y-74738959D01*
X126686045Y-74684365D01*
X126686045Y-74684361D01*
X126686127Y-74681000D01*
X126674075Y-74534411D01*
X126667573Y-74455318D01*
X126667572Y-74455312D01*
X126667149Y-74450167D01*
X126628309Y-74295537D01*
X126611984Y-74230544D01*
X126611983Y-74230540D01*
X126610725Y-74225533D01*
X126605391Y-74213265D01*
X126520430Y-74017868D01*
X126520428Y-74017865D01*
X126518370Y-74013131D01*
X126392564Y-73818665D01*
X126236687Y-73647358D01*
X126232636Y-73644159D01*
X126232632Y-73644155D01*
X126058977Y-73507011D01*
X126058972Y-73507008D01*
X126054923Y-73503810D01*
X126050407Y-73501317D01*
X126050404Y-73501315D01*
X125856679Y-73394373D01*
X125856675Y-73394371D01*
X125852155Y-73391876D01*
X125847286Y-73390152D01*
X125847282Y-73390150D01*
X125638703Y-73316288D01*
X125638699Y-73316287D01*
X125633828Y-73314562D01*
X125628735Y-73313655D01*
X125628732Y-73313654D01*
X125410895Y-73274851D01*
X125410889Y-73274850D01*
X125405806Y-73273945D01*
X125332896Y-73273054D01*
X125179381Y-73271179D01*
X125179379Y-73271179D01*
X125174211Y-73271116D01*
X124945264Y-73306150D01*
X124725114Y-73378106D01*
X124720526Y-73380494D01*
X124720522Y-73380496D01*
X124569272Y-73459232D01*
X124519672Y-73485052D01*
X124515539Y-73488155D01*
X124515536Y-73488157D01*
X124349553Y-73612781D01*
X124334455Y-73624117D01*
X124308592Y-73651181D01*
X124263147Y-73698737D01*
X124174439Y-73791564D01*
X124171525Y-73795836D01*
X124171524Y-73795837D01*
X124155952Y-73818665D01*
X124043919Y-73982899D01*
X123946402Y-74192981D01*
X123884507Y-74416169D01*
X123859895Y-74646469D01*
X120508500Y-74646469D01*
X120508500Y-71021825D01*
X120528502Y-70953704D01*
X120582158Y-70907211D01*
X120652432Y-70897107D01*
X120706767Y-70918610D01*
X120724078Y-70930731D01*
X120729056Y-70933052D01*
X120729059Y-70933054D01*
X120932660Y-71027995D01*
X120937642Y-71030318D01*
X120942950Y-71031740D01*
X120942952Y-71031741D01*
X121159940Y-71089882D01*
X121165255Y-71091306D01*
X121400000Y-71111844D01*
X121634745Y-71091306D01*
X121640060Y-71089882D01*
X121857048Y-71031741D01*
X121857050Y-71031740D01*
X121862358Y-71030318D01*
X121867340Y-71027995D01*
X122070941Y-70933054D01*
X122070944Y-70933052D01*
X122075922Y-70930731D01*
X122268949Y-70795573D01*
X122435573Y-70628949D01*
X122566786Y-70441555D01*
X122622244Y-70397226D01*
X122692863Y-70389917D01*
X122756224Y-70421947D01*
X122773213Y-70441555D01*
X122904427Y-70628949D01*
X123071051Y-70795573D01*
X123264078Y-70930731D01*
X123269056Y-70933052D01*
X123269059Y-70933054D01*
X123472660Y-71027995D01*
X123477642Y-71030318D01*
X123482950Y-71031740D01*
X123482952Y-71031741D01*
X123699940Y-71089882D01*
X123705255Y-71091306D01*
X123940000Y-71111844D01*
X124174745Y-71091306D01*
X124180060Y-71089882D01*
X124397048Y-71031741D01*
X124397050Y-71031740D01*
X124402358Y-71030318D01*
X124407340Y-71027995D01*
X124610941Y-70933054D01*
X124610944Y-70933052D01*
X124615922Y-70930731D01*
X124808949Y-70795573D01*
X124975573Y-70628949D01*
X125106786Y-70441555D01*
X125162244Y-70397226D01*
X125232863Y-70389917D01*
X125296224Y-70421947D01*
X125313213Y-70441555D01*
X125444427Y-70628949D01*
X125611051Y-70795573D01*
X125804078Y-70930731D01*
X125809056Y-70933052D01*
X125809059Y-70933054D01*
X126012660Y-71027995D01*
X126017642Y-71030318D01*
X126022950Y-71031740D01*
X126022952Y-71031741D01*
X126239940Y-71089882D01*
X126245255Y-71091306D01*
X126480000Y-71111844D01*
X126714745Y-71091306D01*
X126720060Y-71089882D01*
X126937048Y-71031741D01*
X126937050Y-71031740D01*
X126942358Y-71030318D01*
X126947340Y-71027995D01*
X127150941Y-70933054D01*
X127150944Y-70933052D01*
X127155922Y-70930731D01*
X127348949Y-70795573D01*
X127515573Y-70628949D01*
X127646786Y-70441555D01*
X127702244Y-70397226D01*
X127772863Y-70389917D01*
X127836224Y-70421947D01*
X127853213Y-70441555D01*
X127984427Y-70628949D01*
X128151051Y-70795573D01*
X128344078Y-70930731D01*
X128349056Y-70933052D01*
X128349059Y-70933054D01*
X128552660Y-71027995D01*
X128557642Y-71030318D01*
X128562950Y-71031740D01*
X128562952Y-71031741D01*
X128779940Y-71089882D01*
X128785255Y-71091306D01*
X129020000Y-71111844D01*
X129254745Y-71091306D01*
X129260060Y-71089882D01*
X129477048Y-71031741D01*
X129477050Y-71031740D01*
X129482358Y-71030318D01*
X129487340Y-71027995D01*
X129690941Y-70933054D01*
X129690944Y-70933052D01*
X129695922Y-70930731D01*
X129888949Y-70795573D01*
X130055573Y-70628949D01*
X130186786Y-70441555D01*
X130242244Y-70397226D01*
X130312863Y-70389917D01*
X130376224Y-70421947D01*
X130393213Y-70441555D01*
X130524427Y-70628949D01*
X130691051Y-70795573D01*
X130884078Y-70930731D01*
X130889056Y-70933052D01*
X130889059Y-70933054D01*
X131092660Y-71027995D01*
X131097642Y-71030318D01*
X131102950Y-71031740D01*
X131102952Y-71031741D01*
X131319940Y-71089882D01*
X131325255Y-71091306D01*
X131330741Y-71091786D01*
X131330747Y-71091787D01*
X131559560Y-71111807D01*
X131625678Y-71137670D01*
X131667318Y-71195174D01*
X131671258Y-71266061D01*
X131637673Y-71326422D01*
X130827747Y-72136348D01*
X130819461Y-72143888D01*
X130812982Y-72148000D01*
X130807557Y-72153777D01*
X130784133Y-72178721D01*
X130774146Y-72189357D01*
X130766357Y-72197651D01*
X130763602Y-72200493D01*
X130759663Y-72204432D01*
X130723818Y-72229532D01*
X130587311Y-72293186D01*
X130587306Y-72293189D01*
X130582324Y-72295512D01*
X130577817Y-72298668D01*
X130577815Y-72298669D01*
X130404730Y-72419864D01*
X130404727Y-72419866D01*
X130400219Y-72423023D01*
X130243023Y-72580219D01*
X130239866Y-72584727D01*
X130239864Y-72584730D01*
X130118669Y-72757815D01*
X130118668Y-72757817D01*
X130115512Y-72762324D01*
X130113189Y-72767306D01*
X130113186Y-72767311D01*
X130065484Y-72869609D01*
X130021560Y-72963804D01*
X129964022Y-73178537D01*
X129944647Y-73400000D01*
X129964022Y-73621463D01*
X129971985Y-73651181D01*
X130018027Y-73823009D01*
X130021560Y-73836196D01*
X130023882Y-73841177D01*
X130023883Y-73841178D01*
X130113186Y-74032689D01*
X130113189Y-74032694D01*
X130115512Y-74037676D01*
X130118668Y-74042183D01*
X130118669Y-74042185D01*
X130227740Y-74197954D01*
X130243023Y-74219781D01*
X130400219Y-74376977D01*
X130404727Y-74380134D01*
X130404730Y-74380136D01*
X130416674Y-74388499D01*
X130582323Y-74504488D01*
X130587305Y-74506811D01*
X130587310Y-74506814D01*
X130692373Y-74555805D01*
X130745658Y-74602722D01*
X130765119Y-74670999D01*
X130744577Y-74738959D01*
X130692373Y-74784195D01*
X130587311Y-74833186D01*
X130587306Y-74833189D01*
X130582324Y-74835512D01*
X130577817Y-74838668D01*
X130577815Y-74838669D01*
X130404730Y-74959864D01*
X130404727Y-74959866D01*
X130400219Y-74963023D01*
X130243023Y-75120219D01*
X130239866Y-75124727D01*
X130239864Y-75124730D01*
X130118669Y-75297815D01*
X130115512Y-75302324D01*
X130113189Y-75307306D01*
X130113186Y-75307311D01*
X130043581Y-75456579D01*
X130021560Y-75503804D01*
X130020138Y-75509112D01*
X130020137Y-75509114D01*
X130012285Y-75538419D01*
X129964022Y-75718537D01*
X129944647Y-75940000D01*
X129964022Y-76161463D01*
X130021560Y-76376196D01*
X130023882Y-76381177D01*
X130023883Y-76381178D01*
X130113186Y-76572689D01*
X130113189Y-76572694D01*
X130115512Y-76577676D01*
X130118668Y-76582183D01*
X130118669Y-76582185D01*
X130141724Y-76615110D01*
X130243023Y-76759781D01*
X130400219Y-76916977D01*
X130404727Y-76920134D01*
X130404730Y-76920136D01*
X130463283Y-76961135D01*
X130582323Y-77044488D01*
X130587305Y-77046811D01*
X130587310Y-77046814D01*
X130692373Y-77095805D01*
X130745658Y-77142722D01*
X130765119Y-77210999D01*
X130744577Y-77278959D01*
X130692373Y-77324195D01*
X130587311Y-77373186D01*
X130587306Y-77373189D01*
X130582324Y-77375512D01*
X130577817Y-77378668D01*
X130577815Y-77378669D01*
X130404730Y-77499864D01*
X130404727Y-77499866D01*
X130400219Y-77503023D01*
X130243023Y-77660219D01*
X130239866Y-77664727D01*
X130239864Y-77664730D01*
X130118669Y-77837815D01*
X130115512Y-77842324D01*
X130113189Y-77847306D01*
X130113186Y-77847311D01*
X130087583Y-77902217D01*
X130021560Y-78043804D01*
X129964022Y-78258537D01*
X129944647Y-78480000D01*
X129964022Y-78701463D01*
X130021560Y-78916196D01*
X130023882Y-78921177D01*
X130023883Y-78921178D01*
X130113186Y-79112689D01*
X130113189Y-79112694D01*
X130115512Y-79117676D01*
X130118668Y-79122183D01*
X130118669Y-79122185D01*
X130158818Y-79179523D01*
X130243023Y-79299781D01*
X130400219Y-79456977D01*
X130404727Y-79460134D01*
X130404730Y-79460136D01*
X130408752Y-79462952D01*
X130582323Y-79584488D01*
X130587305Y-79586811D01*
X130587310Y-79586814D01*
X130692965Y-79636081D01*
X130746250Y-79682998D01*
X130765711Y-79751275D01*
X130745169Y-79819235D01*
X130692965Y-79864471D01*
X130587559Y-79913623D01*
X130578068Y-79919103D01*
X130534235Y-79949794D01*
X130525860Y-79960271D01*
X130532928Y-79973718D01*
X131207188Y-80647978D01*
X131221132Y-80655592D01*
X131222965Y-80655461D01*
X131229580Y-80651210D01*
X131907793Y-79972997D01*
X131914223Y-79961223D01*
X131904926Y-79949207D01*
X131861931Y-79919102D01*
X131852445Y-79913624D01*
X131747035Y-79864471D01*
X131693750Y-79817554D01*
X131674289Y-79749277D01*
X131694831Y-79681317D01*
X131747035Y-79636081D01*
X131852690Y-79586814D01*
X131852695Y-79586811D01*
X131857677Y-79584488D01*
X132031248Y-79462952D01*
X132035270Y-79460136D01*
X132035273Y-79460134D01*
X132039781Y-79456977D01*
X132121353Y-79375405D01*
X132183665Y-79341379D01*
X132210448Y-79338500D01*
X132885408Y-79338500D01*
X132953529Y-79358502D01*
X132974503Y-79375405D01*
X135710874Y-82111776D01*
X135718016Y-82119542D01*
X135751671Y-82159367D01*
X135757090Y-82163510D01*
X135757092Y-82163512D01*
X135816208Y-82208710D01*
X135818629Y-82210609D01*
X135876618Y-82257232D01*
X135881938Y-82261509D01*
X135888050Y-82264543D01*
X135890844Y-82266330D01*
X135891204Y-82266582D01*
X135891573Y-82266785D01*
X135894434Y-82268517D01*
X135899852Y-82272660D01*
X135973477Y-82306992D01*
X135976248Y-82308326D01*
X136049014Y-82344447D01*
X136055635Y-82346098D01*
X136058763Y-82347249D01*
X136059156Y-82347413D01*
X136059561Y-82347532D01*
X136062725Y-82348609D01*
X136068904Y-82351490D01*
X136127891Y-82364675D01*
X136148202Y-82369215D01*
X136151200Y-82369924D01*
X136230001Y-82389572D01*
X136236822Y-82389763D01*
X136240125Y-82390215D01*
X136241009Y-82390374D01*
X136245892Y-82391052D01*
X136250940Y-82392180D01*
X136256663Y-82392500D01*
X136333044Y-82392500D01*
X136336563Y-82392549D01*
X136416457Y-82394781D01*
X136423161Y-82393502D01*
X136429962Y-82392955D01*
X136430004Y-82393475D01*
X136440325Y-82392500D01*
X162165652Y-82392500D01*
X162218902Y-82404305D01*
X162276761Y-82431285D01*
X162330090Y-82456153D01*
X162335398Y-82457575D01*
X162335400Y-82457576D01*
X162539171Y-82512176D01*
X162539173Y-82512176D01*
X162544486Y-82513600D01*
X162765600Y-82532945D01*
X162986714Y-82513600D01*
X162992027Y-82512176D01*
X162992029Y-82512176D01*
X163195800Y-82457576D01*
X163195802Y-82457575D01*
X163201110Y-82456153D01*
X163254440Y-82431285D01*
X163397286Y-82364675D01*
X163397291Y-82364672D01*
X163402273Y-82362349D01*
X163546287Y-82261509D01*
X163579579Y-82238198D01*
X163579582Y-82238196D01*
X163584090Y-82235039D01*
X163741039Y-82078090D01*
X163748803Y-82067003D01*
X163865192Y-81900781D01*
X163865193Y-81900779D01*
X163868349Y-81896272D01*
X163870672Y-81891290D01*
X163870675Y-81891285D01*
X163959830Y-81700092D01*
X163959831Y-81700090D01*
X163962153Y-81695110D01*
X163988827Y-81595563D01*
X164018176Y-81486029D01*
X164018176Y-81486027D01*
X164019600Y-81480714D01*
X164038945Y-81259600D01*
X164038466Y-81254125D01*
X164038466Y-81253026D01*
X164058468Y-81184905D01*
X164075371Y-81163931D01*
X165265585Y-79973718D01*
X166490583Y-78748720D01*
X166498350Y-78741577D01*
X166509521Y-78732137D01*
X166538167Y-78707929D01*
X166587479Y-78643431D01*
X166589373Y-78641015D01*
X166601347Y-78626123D01*
X166640310Y-78577662D01*
X166643347Y-78571543D01*
X166645135Y-78568748D01*
X166645388Y-78568387D01*
X166645590Y-78568020D01*
X166647321Y-78565162D01*
X166651460Y-78559748D01*
X166685786Y-78486136D01*
X166687120Y-78483364D01*
X166720214Y-78416696D01*
X166723247Y-78410586D01*
X166724898Y-78403965D01*
X166726049Y-78400837D01*
X166726213Y-78400444D01*
X166726332Y-78400039D01*
X166727409Y-78396875D01*
X166730290Y-78390696D01*
X166748015Y-78311398D01*
X166748724Y-78308402D01*
X166766721Y-78236221D01*
X166766721Y-78236220D01*
X166768372Y-78229599D01*
X166768563Y-78222778D01*
X166769015Y-78219475D01*
X166769174Y-78218591D01*
X166769852Y-78213708D01*
X166770980Y-78208660D01*
X166771300Y-78202937D01*
X166771300Y-78126556D01*
X166771349Y-78123037D01*
X166772522Y-78081035D01*
X166773581Y-78043143D01*
X166772302Y-78036439D01*
X166771755Y-78029638D01*
X166772275Y-78029596D01*
X166771300Y-78019275D01*
X166771300Y-73453199D01*
X166791302Y-73385078D01*
X166844958Y-73338585D01*
X166915232Y-73328481D01*
X166979812Y-73357975D01*
X167018196Y-73417701D01*
X167019278Y-73422079D01*
X167019305Y-73422287D01*
X167019552Y-73423191D01*
X167019556Y-73423206D01*
X167034875Y-73479202D01*
X167096065Y-73702876D01*
X167210196Y-73970452D01*
X167359585Y-74220062D01*
X167362269Y-74223413D01*
X167362271Y-74223415D01*
X167427679Y-74305058D01*
X167541467Y-74447089D01*
X167656030Y-74555805D01*
X167746161Y-74641336D01*
X167752478Y-74647331D01*
X167988713Y-74817083D01*
X168245800Y-74953203D01*
X168249823Y-74954675D01*
X168249827Y-74954677D01*
X168492396Y-75043445D01*
X168518982Y-75053174D01*
X168803204Y-75115144D01*
X168818172Y-75116322D01*
X169028897Y-75132907D01*
X169028904Y-75132907D01*
X169031353Y-75133100D01*
X169188721Y-75133100D01*
X169190857Y-75132954D01*
X169190868Y-75132954D01*
X169401549Y-75118591D01*
X169401555Y-75118590D01*
X169405826Y-75118299D01*
X169410021Y-75117430D01*
X169410023Y-75117430D01*
X169548254Y-75088804D01*
X169690681Y-75059309D01*
X169964895Y-74962205D01*
X170223393Y-74828784D01*
X170226894Y-74826323D01*
X170226898Y-74826321D01*
X170351201Y-74738959D01*
X170461392Y-74661515D01*
X170598172Y-74534411D01*
X170671345Y-74466415D01*
X170671348Y-74466412D01*
X170674488Y-74463494D01*
X170685495Y-74450047D01*
X170856023Y-74241702D01*
X170858739Y-74238384D01*
X171010733Y-73990352D01*
X171017851Y-73974138D01*
X171070622Y-73853920D01*
X171127659Y-73723986D01*
X171133673Y-73702876D01*
X171164876Y-73593334D01*
X171207354Y-73444216D01*
X171210345Y-73423206D01*
X171247737Y-73160470D01*
X171248342Y-73156219D01*
X171249322Y-72969114D01*
X171249843Y-72869609D01*
X171249843Y-72869603D01*
X171249865Y-72865323D01*
X171246703Y-72841300D01*
X171230738Y-72720037D01*
X171211895Y-72576913D01*
X171209362Y-72567652D01*
X171169796Y-72423023D01*
X171135135Y-72296324D01*
X171094260Y-72200493D01*
X171022690Y-72032700D01*
X171022688Y-72032696D01*
X171021004Y-72028748D01*
X170871615Y-71779138D01*
X170856937Y-71760816D01*
X170781693Y-71666897D01*
X170689733Y-71552111D01*
X170478722Y-71351869D01*
X170242487Y-71182117D01*
X170243521Y-71180678D01*
X170201049Y-71133215D01*
X170189824Y-71063112D01*
X170218282Y-70998068D01*
X170261563Y-70964854D01*
X170330680Y-70932625D01*
X170340179Y-70927140D01*
X170400477Y-70884919D01*
X170408852Y-70874442D01*
X170401785Y-70860996D01*
X169672811Y-70132021D01*
X169658868Y-70124408D01*
X169657034Y-70124539D01*
X169650420Y-70128790D01*
X168937047Y-70842164D01*
X168874734Y-70876189D01*
X168856523Y-70878777D01*
X168829652Y-70880609D01*
X168829647Y-70880610D01*
X168825374Y-70880901D01*
X168540519Y-70939891D01*
X168266305Y-71036995D01*
X168262496Y-71038961D01*
X168084932Y-71130609D01*
X168007807Y-71170416D01*
X168004306Y-71172877D01*
X168004302Y-71172879D01*
X167888973Y-71253934D01*
X167769808Y-71337685D01*
X167556712Y-71535706D01*
X167553998Y-71539022D01*
X167553995Y-71539025D01*
X167440026Y-71678268D01*
X167372461Y-71760816D01*
X167220467Y-72008848D01*
X167218748Y-72012765D01*
X167218746Y-72012768D01*
X167209997Y-72032700D01*
X167103541Y-72275214D01*
X167102365Y-72279342D01*
X167102364Y-72279345D01*
X167093609Y-72310079D01*
X167023846Y-72554984D01*
X167023241Y-72559232D01*
X167023241Y-72559234D01*
X167022043Y-72567652D01*
X166992643Y-72632275D01*
X166932972Y-72670744D01*
X166861975Y-72670846D01*
X166802194Y-72632548D01*
X166772608Y-72568009D01*
X166771300Y-72549899D01*
X166771300Y-71374992D01*
X166791302Y-71306871D01*
X166808205Y-71285897D01*
X166951794Y-71142308D01*
X167014106Y-71108282D01*
X167051871Y-71105883D01*
X167120000Y-71111844D01*
X167125475Y-71111365D01*
X167125478Y-71111365D01*
X167210287Y-71103945D01*
X167354745Y-71091306D01*
X167360060Y-71089882D01*
X167577048Y-71031741D01*
X167577050Y-71031740D01*
X167582358Y-71030318D01*
X167587340Y-71027995D01*
X167790941Y-70933054D01*
X167790944Y-70933052D01*
X167795922Y-70930731D01*
X167988949Y-70795573D01*
X168155573Y-70628949D01*
X168287092Y-70441119D01*
X168342549Y-70396791D01*
X168413168Y-70389482D01*
X168476529Y-70421512D01*
X168493518Y-70441119D01*
X168535081Y-70500477D01*
X168545558Y-70508852D01*
X168559004Y-70501785D01*
X169287979Y-69772811D01*
X169295592Y-69758868D01*
X169295461Y-69757034D01*
X169291210Y-69750420D01*
X168558280Y-69017491D01*
X168546510Y-69011064D01*
X168534496Y-69020358D01*
X168493518Y-69078881D01*
X168438061Y-69123209D01*
X168367442Y-69130518D01*
X168304081Y-69098487D01*
X168287092Y-69078881D01*
X168245529Y-69019523D01*
X168155573Y-68891051D01*
X168015405Y-68750883D01*
X167981379Y-68688571D01*
X167978500Y-68661788D01*
X167978500Y-68333490D01*
X168911064Y-68333490D01*
X168920358Y-68345504D01*
X168979316Y-68386787D01*
X169023644Y-68442244D01*
X169030953Y-68512864D01*
X168998922Y-68576224D01*
X168979316Y-68593213D01*
X168919523Y-68635081D01*
X168911148Y-68645558D01*
X168918215Y-68659004D01*
X169647189Y-69387979D01*
X169661132Y-69395592D01*
X169662966Y-69395461D01*
X169669580Y-69391210D01*
X170402509Y-68658280D01*
X170408936Y-68646510D01*
X170399642Y-68634496D01*
X170340684Y-68593213D01*
X170296356Y-68537756D01*
X170289047Y-68467136D01*
X170321078Y-68403776D01*
X170340684Y-68386787D01*
X170400477Y-68344919D01*
X170408852Y-68334442D01*
X170401785Y-68320996D01*
X169672811Y-67592021D01*
X169658868Y-67584408D01*
X169657034Y-67584539D01*
X169650420Y-67588790D01*
X168917491Y-68321720D01*
X168911064Y-68333490D01*
X167978500Y-68333490D01*
X167978500Y-68318212D01*
X167998502Y-68250091D01*
X168015405Y-68229117D01*
X168155573Y-68088949D01*
X168287092Y-67901119D01*
X168342549Y-67856791D01*
X168413168Y-67849482D01*
X168476529Y-67881512D01*
X168493518Y-67901119D01*
X168535081Y-67960477D01*
X168545558Y-67968852D01*
X168559005Y-67961784D01*
X169570905Y-66949885D01*
X169633217Y-66915859D01*
X169704033Y-66920924D01*
X169749095Y-66949885D01*
X170761716Y-67962505D01*
X170773492Y-67968935D01*
X170785504Y-67959642D01*
X170826482Y-67901119D01*
X170881939Y-67856791D01*
X170952558Y-67849482D01*
X171015919Y-67881513D01*
X171032908Y-67901119D01*
X171164427Y-68088949D01*
X171304595Y-68229117D01*
X171338621Y-68291429D01*
X171341500Y-68318212D01*
X171341500Y-68661788D01*
X171321498Y-68729909D01*
X171304595Y-68750883D01*
X171164427Y-68891051D01*
X171074471Y-69019523D01*
X171032908Y-69078881D01*
X170977451Y-69123209D01*
X170906832Y-69130518D01*
X170843471Y-69098488D01*
X170826482Y-69078881D01*
X170784919Y-69019523D01*
X170774442Y-69011148D01*
X170760996Y-69018215D01*
X170032021Y-69747189D01*
X170024408Y-69761132D01*
X170024539Y-69762966D01*
X170028790Y-69769580D01*
X170761720Y-70502509D01*
X170773490Y-70508936D01*
X170785504Y-70499642D01*
X170826482Y-70441119D01*
X170881939Y-70396791D01*
X170952558Y-70389482D01*
X171015919Y-70421513D01*
X171032908Y-70441119D01*
X171164427Y-70628949D01*
X171331051Y-70795573D01*
X171524078Y-70930731D01*
X171529056Y-70933052D01*
X171529059Y-70933054D01*
X171732660Y-71027995D01*
X171737642Y-71030318D01*
X171742950Y-71031740D01*
X171742952Y-71031741D01*
X171959940Y-71089882D01*
X171965255Y-71091306D01*
X172200000Y-71111844D01*
X172434745Y-71091306D01*
X172440060Y-71089882D01*
X172657048Y-71031741D01*
X172657050Y-71031740D01*
X172662358Y-71030318D01*
X172667340Y-71027995D01*
X172870941Y-70933054D01*
X172870944Y-70933052D01*
X172875922Y-70930731D01*
X173068949Y-70795573D01*
X173235573Y-70628949D01*
X173370731Y-70435922D01*
X173388776Y-70397226D01*
X173467995Y-70227340D01*
X173467996Y-70227338D01*
X173470318Y-70222358D01*
X173494524Y-70132021D01*
X173529882Y-70000060D01*
X173529882Y-70000059D01*
X173531306Y-69994745D01*
X173551844Y-69760000D01*
X173531306Y-69525255D01*
X173495389Y-69391210D01*
X173471741Y-69302952D01*
X173471740Y-69302950D01*
X173470318Y-69297642D01*
X173467995Y-69292660D01*
X173373054Y-69089059D01*
X173373052Y-69089056D01*
X173370731Y-69084078D01*
X173235573Y-68891051D01*
X173095405Y-68750883D01*
X173061379Y-68688571D01*
X173058500Y-68661788D01*
X173058500Y-68318212D01*
X173078502Y-68250091D01*
X173095405Y-68229117D01*
X173235573Y-68088949D01*
X173370731Y-67895922D01*
X173388776Y-67857226D01*
X173467995Y-67687340D01*
X173467996Y-67687338D01*
X173470318Y-67682358D01*
X173494524Y-67592021D01*
X173529882Y-67460060D01*
X173529882Y-67460059D01*
X173531306Y-67454745D01*
X173551844Y-67220000D01*
X173531306Y-66985255D01*
X173470318Y-66757642D01*
X173437727Y-66687750D01*
X173427066Y-66617558D01*
X173456046Y-66552745D01*
X173515466Y-66513889D01*
X173551922Y-66508500D01*
X174565500Y-66508500D01*
X174633621Y-66528502D01*
G37*
%TD.AperFunction*%
%TA.AperFunction,Conductor*%
G36*
X163396224Y-70421947D02*
G01*
X163413213Y-70441555D01*
X163544427Y-70628949D01*
X163711051Y-70795573D01*
X163904078Y-70930731D01*
X163909056Y-70933052D01*
X163909059Y-70933054D01*
X164112660Y-71027995D01*
X164117642Y-71030318D01*
X164122950Y-71031740D01*
X164122952Y-71031741D01*
X164339940Y-71089882D01*
X164345255Y-71091306D01*
X164580000Y-71111844D01*
X164814745Y-71091306D01*
X164820064Y-71089881D01*
X164839821Y-71084587D01*
X164895690Y-71069617D01*
X164966665Y-71071307D01*
X165025461Y-71111101D01*
X165053409Y-71176365D01*
X165054300Y-71191324D01*
X165054300Y-77704607D01*
X165034298Y-77772728D01*
X165017395Y-77793702D01*
X164233778Y-78577319D01*
X164171466Y-78611345D01*
X164100651Y-78606280D01*
X164043815Y-78563733D01*
X164022937Y-78509050D01*
X164020542Y-78509472D01*
X164017683Y-78493260D01*
X163963105Y-78289572D01*
X163959359Y-78279280D01*
X163870241Y-78088165D01*
X163864758Y-78078669D01*
X163834370Y-78035271D01*
X163823893Y-78026896D01*
X163810445Y-78033965D01*
X162079243Y-79765167D01*
X162072813Y-79776942D01*
X162082109Y-79788957D01*
X162124669Y-79818758D01*
X162134165Y-79824241D01*
X162243297Y-79875130D01*
X162296582Y-79922048D01*
X162316043Y-79990325D01*
X162295501Y-80058285D01*
X162243298Y-80103519D01*
X162189478Y-80128616D01*
X162133915Y-80154525D01*
X162133910Y-80154528D01*
X162128928Y-80156851D01*
X162124421Y-80160007D01*
X162124419Y-80160008D01*
X161951621Y-80281002D01*
X161951618Y-80281004D01*
X161947110Y-80284161D01*
X161790161Y-80441110D01*
X161787004Y-80445618D01*
X161787002Y-80445621D01*
X161663661Y-80621771D01*
X161608204Y-80666099D01*
X161560448Y-80675500D01*
X161502624Y-80675500D01*
X161434503Y-80655498D01*
X161388010Y-80601842D01*
X161377906Y-80531568D01*
X161388429Y-80496251D01*
X161419357Y-80429925D01*
X161423105Y-80419628D01*
X161477683Y-80215940D01*
X161479586Y-80205147D01*
X161497965Y-79995075D01*
X161497965Y-79984125D01*
X161479586Y-79774053D01*
X161477683Y-79763260D01*
X161423105Y-79559572D01*
X161419359Y-79549280D01*
X161330241Y-79358165D01*
X161324758Y-79348669D01*
X161294370Y-79305271D01*
X161283893Y-79296896D01*
X161270445Y-79303965D01*
X160314695Y-80259715D01*
X160252383Y-80293741D01*
X160181568Y-80288676D01*
X160136505Y-80259715D01*
X159180033Y-79303243D01*
X159168258Y-79296813D01*
X159156243Y-79306109D01*
X159126442Y-79348669D01*
X159120959Y-79358165D01*
X159031841Y-79549280D01*
X159028095Y-79559572D01*
X158973517Y-79763260D01*
X158971614Y-79774053D01*
X158953235Y-79984125D01*
X158953235Y-79995075D01*
X158971614Y-80205147D01*
X158973517Y-80215940D01*
X159028095Y-80419628D01*
X159031843Y-80429925D01*
X159062771Y-80496251D01*
X159073432Y-80566442D01*
X159044452Y-80631255D01*
X158985032Y-80670111D01*
X158948576Y-80675500D01*
X146368195Y-80675500D01*
X146300074Y-80655498D01*
X146279100Y-80638595D01*
X145552005Y-79911500D01*
X145517979Y-79849188D01*
X145515100Y-79822405D01*
X145515100Y-78506942D01*
X159532813Y-78506942D01*
X159542109Y-78518957D01*
X159584669Y-78548758D01*
X159594165Y-78554241D01*
X159703888Y-78605405D01*
X159757173Y-78652322D01*
X159776634Y-78720599D01*
X159756092Y-78788559D01*
X159703888Y-78833795D01*
X159594165Y-78884959D01*
X159584669Y-78890442D01*
X159541271Y-78920830D01*
X159532896Y-78931307D01*
X159539965Y-78944755D01*
X160212788Y-79617578D01*
X160226732Y-79625192D01*
X160228565Y-79625061D01*
X160235180Y-79620810D01*
X160911957Y-78944033D01*
X160918387Y-78932258D01*
X160909091Y-78920243D01*
X160866531Y-78890442D01*
X160857035Y-78884959D01*
X160747312Y-78833795D01*
X160694027Y-78786878D01*
X160676411Y-78725075D01*
X161493235Y-78725075D01*
X161511614Y-78935147D01*
X161513517Y-78945940D01*
X161568095Y-79149628D01*
X161571841Y-79159920D01*
X161660959Y-79351035D01*
X161666442Y-79360531D01*
X161696830Y-79403929D01*
X161707307Y-79412304D01*
X161720755Y-79405235D01*
X162393578Y-78732412D01*
X162401192Y-78718468D01*
X162401061Y-78716635D01*
X162396810Y-78710020D01*
X161720033Y-78033243D01*
X161708258Y-78026813D01*
X161696243Y-78036109D01*
X161666442Y-78078669D01*
X161660959Y-78088165D01*
X161571841Y-78279280D01*
X161568095Y-78289572D01*
X161513517Y-78493260D01*
X161511614Y-78504053D01*
X161493235Y-78714125D01*
X161493235Y-78725075D01*
X160676411Y-78725075D01*
X160674566Y-78718601D01*
X160695108Y-78650641D01*
X160747312Y-78605405D01*
X160857035Y-78554241D01*
X160866531Y-78548758D01*
X160909929Y-78518370D01*
X160918304Y-78507893D01*
X160911235Y-78494445D01*
X160238412Y-77821622D01*
X160224468Y-77814008D01*
X160222635Y-77814139D01*
X160216020Y-77818390D01*
X159539243Y-78495167D01*
X159532813Y-78506942D01*
X145515100Y-78506942D01*
X145515100Y-77455075D01*
X158953235Y-77455075D01*
X158971614Y-77665147D01*
X158973517Y-77675940D01*
X159028095Y-77879628D01*
X159031841Y-77889920D01*
X159120959Y-78081035D01*
X159126442Y-78090531D01*
X159156830Y-78133929D01*
X159167307Y-78142304D01*
X159180755Y-78135235D01*
X159853578Y-77462412D01*
X159859956Y-77450732D01*
X160590008Y-77450732D01*
X160590139Y-77452565D01*
X160594390Y-77459180D01*
X161271167Y-78135957D01*
X161282942Y-78142387D01*
X161294957Y-78133091D01*
X161324758Y-78090531D01*
X161330241Y-78081035D01*
X161419359Y-77889920D01*
X161423105Y-77879628D01*
X161477683Y-77675940D01*
X161479586Y-77665147D01*
X161497965Y-77455075D01*
X161497965Y-77444125D01*
X161479586Y-77234053D01*
X161477683Y-77223260D01*
X161423105Y-77019572D01*
X161419359Y-77009280D01*
X161330241Y-76818165D01*
X161324758Y-76808669D01*
X161294370Y-76765271D01*
X161283893Y-76756896D01*
X161270445Y-76763965D01*
X160597622Y-77436788D01*
X160590008Y-77450732D01*
X159859956Y-77450732D01*
X159861192Y-77448468D01*
X159861061Y-77446635D01*
X159856810Y-77440020D01*
X159180033Y-76763243D01*
X159168258Y-76756813D01*
X159156243Y-76766109D01*
X159126442Y-76808669D01*
X159120959Y-76818165D01*
X159031841Y-77009280D01*
X159028095Y-77019572D01*
X158973517Y-77223260D01*
X158971614Y-77234053D01*
X158953235Y-77444125D01*
X158953235Y-77455075D01*
X145515100Y-77455075D01*
X145515100Y-76419924D01*
X145535102Y-76351803D01*
X145547458Y-76335621D01*
X145620640Y-76254344D01*
X145716127Y-76088956D01*
X145775142Y-75907328D01*
X145779310Y-75867677D01*
X145794414Y-75723965D01*
X145795104Y-75717400D01*
X145777291Y-75547915D01*
X145775832Y-75534035D01*
X145775832Y-75534033D01*
X145775142Y-75527472D01*
X145716127Y-75345844D01*
X145620640Y-75180456D01*
X145566403Y-75120219D01*
X145497275Y-75043445D01*
X145497274Y-75043444D01*
X145492853Y-75038534D01*
X145385090Y-74960239D01*
X145343694Y-74930163D01*
X145343693Y-74930162D01*
X145338352Y-74926282D01*
X145332324Y-74923598D01*
X145332322Y-74923597D01*
X145169919Y-74851291D01*
X145169918Y-74851291D01*
X145163888Y-74848606D01*
X145059046Y-74826321D01*
X144983544Y-74810272D01*
X144983539Y-74810272D01*
X144977087Y-74808900D01*
X144786113Y-74808900D01*
X144779661Y-74810272D01*
X144779656Y-74810272D01*
X144704154Y-74826321D01*
X144599312Y-74848606D01*
X144593282Y-74851291D01*
X144593281Y-74851291D01*
X144430878Y-74923597D01*
X144430876Y-74923598D01*
X144424848Y-74926282D01*
X144419507Y-74930162D01*
X144419506Y-74930163D01*
X144378110Y-74960239D01*
X144270347Y-75038534D01*
X144265926Y-75043444D01*
X144265925Y-75043445D01*
X144196798Y-75120219D01*
X144142560Y-75180456D01*
X144047073Y-75345844D01*
X143988058Y-75527472D01*
X143987368Y-75534033D01*
X143987368Y-75534035D01*
X143985909Y-75547915D01*
X143968096Y-75717400D01*
X143968786Y-75723965D01*
X143983891Y-75867677D01*
X143988058Y-75907328D01*
X144047073Y-76088956D01*
X144142560Y-76254344D01*
X144215737Y-76335615D01*
X144246453Y-76399621D01*
X144248100Y-76419924D01*
X144248100Y-80058233D01*
X144247573Y-80069416D01*
X144245898Y-80076909D01*
X144246147Y-80084835D01*
X144246147Y-80084836D01*
X144248038Y-80144986D01*
X144248100Y-80148945D01*
X144248100Y-80176856D01*
X144248597Y-80180790D01*
X144248597Y-80180791D01*
X144248605Y-80180856D01*
X144249538Y-80192693D01*
X144250927Y-80236889D01*
X144256578Y-80256339D01*
X144260587Y-80275700D01*
X144263126Y-80295797D01*
X144266045Y-80303168D01*
X144266045Y-80303170D01*
X144279404Y-80336912D01*
X144283249Y-80348142D01*
X144293371Y-80382983D01*
X144295582Y-80390593D01*
X144299615Y-80397412D01*
X144299617Y-80397417D01*
X144305893Y-80408028D01*
X144314588Y-80425776D01*
X144322048Y-80444617D01*
X144326712Y-80451037D01*
X144326714Y-80451040D01*
X144344441Y-80475440D01*
X144368300Y-80542307D01*
X144352219Y-80611459D01*
X144301305Y-80660939D01*
X144242505Y-80675500D01*
X136754992Y-80675500D01*
X136686871Y-80655498D01*
X136665897Y-80638595D01*
X135310512Y-79283209D01*
X133929520Y-77902217D01*
X133922377Y-77894450D01*
X133893135Y-77859847D01*
X133888729Y-77854633D01*
X133879153Y-77847311D01*
X133824238Y-77805326D01*
X133821815Y-77803427D01*
X133763783Y-77756768D01*
X133763782Y-77756767D01*
X133758462Y-77752490D01*
X133752343Y-77749453D01*
X133749548Y-77747665D01*
X133749187Y-77747412D01*
X133748820Y-77747210D01*
X133745962Y-77745479D01*
X133740548Y-77741340D01*
X133666936Y-77707014D01*
X133664164Y-77705680D01*
X133662003Y-77704607D01*
X133591386Y-77669553D01*
X133584765Y-77667902D01*
X133581637Y-77666751D01*
X133581244Y-77666587D01*
X133580839Y-77666468D01*
X133577675Y-77665391D01*
X133571496Y-77662510D01*
X133492200Y-77644785D01*
X133489202Y-77644076D01*
X133417021Y-77626079D01*
X133417020Y-77626079D01*
X133410399Y-77624428D01*
X133403578Y-77624237D01*
X133400275Y-77623785D01*
X133399391Y-77623626D01*
X133394508Y-77622948D01*
X133389460Y-77621820D01*
X133383737Y-77621500D01*
X133307356Y-77621500D01*
X133303837Y-77621451D01*
X133223943Y-77619219D01*
X133217239Y-77620498D01*
X133210438Y-77621045D01*
X133210396Y-77620525D01*
X133200075Y-77621500D01*
X132210448Y-77621500D01*
X132142327Y-77601498D01*
X132121353Y-77584595D01*
X132039781Y-77503023D01*
X132035273Y-77499866D01*
X132035270Y-77499864D01*
X131867798Y-77382599D01*
X131857677Y-77375512D01*
X131852695Y-77373189D01*
X131852690Y-77373186D01*
X131747627Y-77324195D01*
X131694342Y-77277278D01*
X131674881Y-77209001D01*
X131695423Y-77141041D01*
X131747627Y-77095805D01*
X131852690Y-77046814D01*
X131852695Y-77046811D01*
X131857677Y-77044488D01*
X131976717Y-76961135D01*
X132035270Y-76920136D01*
X132035273Y-76920134D01*
X132039781Y-76916977D01*
X132196977Y-76759781D01*
X132298277Y-76615110D01*
X132321331Y-76582185D01*
X132321332Y-76582183D01*
X132324488Y-76577676D01*
X132326811Y-76572694D01*
X132326814Y-76572689D01*
X132416117Y-76381178D01*
X132416118Y-76381177D01*
X132418440Y-76376196D01*
X132475978Y-76161463D01*
X132495353Y-75940000D01*
X132475978Y-75718537D01*
X132465514Y-75679484D01*
X132467204Y-75608507D01*
X132498126Y-75557778D01*
X134104783Y-73951122D01*
X135748853Y-72307052D01*
X135757139Y-72299512D01*
X135763618Y-72295400D01*
X135810244Y-72245748D01*
X135812998Y-72242907D01*
X135832735Y-72223170D01*
X135835215Y-72219973D01*
X135842920Y-72210951D01*
X135852741Y-72200493D01*
X135863198Y-72189357D01*
X135924410Y-72153392D01*
X135995350Y-72156229D01*
X136053494Y-72196970D01*
X136074881Y-72236673D01*
X136096873Y-72304356D01*
X136192360Y-72469744D01*
X136196778Y-72474651D01*
X136196779Y-72474652D01*
X136310635Y-72601102D01*
X136320147Y-72611666D01*
X136474648Y-72723918D01*
X136480676Y-72726602D01*
X136480678Y-72726603D01*
X136643081Y-72798909D01*
X136649112Y-72801594D01*
X136742512Y-72821447D01*
X136829456Y-72839928D01*
X136829461Y-72839928D01*
X136835913Y-72841300D01*
X137026887Y-72841300D01*
X137033339Y-72839928D01*
X137033344Y-72839928D01*
X137120288Y-72821447D01*
X137213688Y-72801594D01*
X137219719Y-72798909D01*
X137382122Y-72726603D01*
X137382124Y-72726602D01*
X137388152Y-72723918D01*
X137461340Y-72670744D01*
X137521071Y-72627346D01*
X137542653Y-72611666D01*
X137547068Y-72606763D01*
X137551980Y-72602340D01*
X137553105Y-72603589D01*
X137606414Y-72570749D01*
X137639600Y-72566300D01*
X138356800Y-72566300D01*
X138424921Y-72586302D01*
X138444147Y-72602643D01*
X138444420Y-72602340D01*
X138449332Y-72606763D01*
X138453747Y-72611666D01*
X138475329Y-72627346D01*
X138535061Y-72670744D01*
X138608248Y-72723918D01*
X138614276Y-72726602D01*
X138614278Y-72726603D01*
X138776681Y-72798909D01*
X138782712Y-72801594D01*
X138876112Y-72821447D01*
X138963056Y-72839928D01*
X138963061Y-72839928D01*
X138969513Y-72841300D01*
X139160487Y-72841300D01*
X139166939Y-72839928D01*
X139166944Y-72839928D01*
X139253888Y-72821447D01*
X139347288Y-72801594D01*
X139353319Y-72798909D01*
X139515722Y-72726603D01*
X139515724Y-72726602D01*
X139521752Y-72723918D01*
X139676253Y-72611666D01*
X139685765Y-72601102D01*
X139799621Y-72474652D01*
X139799622Y-72474651D01*
X139804040Y-72469744D01*
X139899527Y-72304356D01*
X139958542Y-72122728D01*
X139962780Y-72082411D01*
X139977814Y-71939365D01*
X139978504Y-71932800D01*
X139958542Y-71742872D01*
X139899527Y-71561244D01*
X139804040Y-71395856D01*
X139741522Y-71326422D01*
X139680675Y-71258845D01*
X139680674Y-71258844D01*
X139676253Y-71253934D01*
X139648591Y-71233836D01*
X139605238Y-71177612D01*
X139599164Y-71106876D01*
X139632297Y-71044085D01*
X139669404Y-71017706D01*
X139850941Y-70933054D01*
X139850944Y-70933052D01*
X139855922Y-70930731D01*
X140048949Y-70795573D01*
X140215573Y-70628949D01*
X140346786Y-70441555D01*
X140402244Y-70397226D01*
X140472863Y-70389917D01*
X140536224Y-70421947D01*
X140553213Y-70441555D01*
X140684427Y-70628949D01*
X140851051Y-70795573D01*
X141044078Y-70930731D01*
X141049056Y-70933052D01*
X141049059Y-70933054D01*
X141252660Y-71027995D01*
X141257642Y-71030318D01*
X141262950Y-71031740D01*
X141262952Y-71031741D01*
X141479940Y-71089882D01*
X141485255Y-71091306D01*
X141720000Y-71111844D01*
X141954745Y-71091306D01*
X141960060Y-71089882D01*
X142177048Y-71031741D01*
X142177050Y-71031740D01*
X142182358Y-71030318D01*
X142187340Y-71027995D01*
X142390941Y-70933054D01*
X142390944Y-70933052D01*
X142395922Y-70930731D01*
X142588949Y-70795573D01*
X142755573Y-70628949D01*
X142886786Y-70441555D01*
X142942244Y-70397226D01*
X143012863Y-70389917D01*
X143076224Y-70421947D01*
X143093213Y-70441555D01*
X143224427Y-70628949D01*
X143391051Y-70795573D01*
X143584078Y-70930731D01*
X143589056Y-70933052D01*
X143589059Y-70933054D01*
X143792660Y-71027995D01*
X143797642Y-71030318D01*
X143802950Y-71031740D01*
X143802952Y-71031741D01*
X144019940Y-71089882D01*
X144025255Y-71091306D01*
X144260000Y-71111844D01*
X144494745Y-71091306D01*
X144500060Y-71089882D01*
X144717048Y-71031741D01*
X144717050Y-71031740D01*
X144722358Y-71030318D01*
X144727340Y-71027995D01*
X144930941Y-70933054D01*
X144930944Y-70933052D01*
X144935922Y-70930731D01*
X145128949Y-70795573D01*
X145295573Y-70628949D01*
X145426786Y-70441555D01*
X145482244Y-70397226D01*
X145552863Y-70389917D01*
X145616224Y-70421947D01*
X145633213Y-70441555D01*
X145764427Y-70628949D01*
X145931051Y-70795573D01*
X146124078Y-70930731D01*
X146129056Y-70933052D01*
X146129059Y-70933054D01*
X146332660Y-71027995D01*
X146337642Y-71030318D01*
X146342950Y-71031740D01*
X146342952Y-71031741D01*
X146559940Y-71089882D01*
X146565255Y-71091306D01*
X146800000Y-71111844D01*
X147034745Y-71091306D01*
X147040060Y-71089882D01*
X147257048Y-71031741D01*
X147257050Y-71031740D01*
X147262358Y-71030318D01*
X147267340Y-71027995D01*
X147470941Y-70933054D01*
X147470944Y-70933052D01*
X147475922Y-70930731D01*
X147668949Y-70795573D01*
X147835573Y-70628949D01*
X147966786Y-70441555D01*
X148022244Y-70397226D01*
X148092863Y-70389917D01*
X148156224Y-70421947D01*
X148173213Y-70441555D01*
X148304427Y-70628949D01*
X148471051Y-70795573D01*
X148664078Y-70930731D01*
X148669056Y-70933052D01*
X148669059Y-70933054D01*
X148872660Y-71027995D01*
X148877642Y-71030318D01*
X148882950Y-71031740D01*
X148882952Y-71031741D01*
X149099940Y-71089882D01*
X149105255Y-71091306D01*
X149340000Y-71111844D01*
X149574745Y-71091306D01*
X149580060Y-71089882D01*
X149797048Y-71031741D01*
X149797050Y-71031740D01*
X149802358Y-71030318D01*
X149807340Y-71027995D01*
X150010941Y-70933054D01*
X150010944Y-70933052D01*
X150015922Y-70930731D01*
X150208949Y-70795573D01*
X150375573Y-70628949D01*
X150506786Y-70441555D01*
X150562244Y-70397226D01*
X150632863Y-70389917D01*
X150696224Y-70421947D01*
X150713213Y-70441555D01*
X150844427Y-70628949D01*
X151011051Y-70795573D01*
X151204078Y-70930731D01*
X151209056Y-70933052D01*
X151209059Y-70933054D01*
X151412660Y-71027995D01*
X151417642Y-71030318D01*
X151422950Y-71031740D01*
X151422952Y-71031741D01*
X151639940Y-71089882D01*
X151645255Y-71091306D01*
X151880000Y-71111844D01*
X152114745Y-71091306D01*
X152120060Y-71089882D01*
X152337048Y-71031741D01*
X152337050Y-71031740D01*
X152342358Y-71030318D01*
X152347340Y-71027995D01*
X152550941Y-70933054D01*
X152550944Y-70933052D01*
X152555922Y-70930731D01*
X152748949Y-70795573D01*
X152915573Y-70628949D01*
X153046786Y-70441555D01*
X153102244Y-70397226D01*
X153172863Y-70389917D01*
X153236224Y-70421947D01*
X153253213Y-70441555D01*
X153384427Y-70628949D01*
X153551051Y-70795573D01*
X153744078Y-70930731D01*
X153749056Y-70933052D01*
X153749059Y-70933054D01*
X153952660Y-71027995D01*
X153957642Y-71030318D01*
X153962950Y-71031740D01*
X153962952Y-71031741D01*
X154179940Y-71089882D01*
X154185255Y-71091306D01*
X154420000Y-71111844D01*
X154654745Y-71091306D01*
X154660060Y-71089882D01*
X154877048Y-71031741D01*
X154877050Y-71031740D01*
X154882358Y-71030318D01*
X154887340Y-71027995D01*
X155090941Y-70933054D01*
X155090944Y-70933052D01*
X155095922Y-70930731D01*
X155175714Y-70874861D01*
X155242984Y-70852174D01*
X155311845Y-70869459D01*
X155337076Y-70888980D01*
X158920195Y-74472099D01*
X158954221Y-74534411D01*
X158957100Y-74561194D01*
X158957100Y-75717734D01*
X158963855Y-75779916D01*
X159014985Y-75916305D01*
X159102339Y-76032861D01*
X159218895Y-76120215D01*
X159355284Y-76171345D01*
X159417466Y-76178100D01*
X159441297Y-76178100D01*
X159509418Y-76198102D01*
X159555911Y-76251758D01*
X159566015Y-76322032D01*
X159539719Y-76382770D01*
X159532896Y-76391306D01*
X159539965Y-76404755D01*
X160212788Y-77077578D01*
X160226732Y-77085192D01*
X160228565Y-77085061D01*
X160235180Y-77080810D01*
X160911957Y-76404033D01*
X160918387Y-76392258D01*
X160909832Y-76381200D01*
X160883969Y-76315082D01*
X160897957Y-76245477D01*
X160947356Y-76194485D01*
X161009489Y-76178100D01*
X161033734Y-76178100D01*
X161095916Y-76171345D01*
X161232305Y-76120215D01*
X161291169Y-76076099D01*
X161357676Y-76051251D01*
X161427058Y-76066304D01*
X161477288Y-76116478D01*
X161492552Y-76176211D01*
X161492255Y-76179600D01*
X161511600Y-76400714D01*
X161513024Y-76406027D01*
X161513024Y-76406029D01*
X161559017Y-76577676D01*
X161569047Y-76615110D01*
X161571369Y-76620090D01*
X161571370Y-76620092D01*
X161660525Y-76811285D01*
X161660528Y-76811290D01*
X161662851Y-76816272D01*
X161666007Y-76820779D01*
X161666008Y-76820781D01*
X161768392Y-76967000D01*
X161790161Y-76998090D01*
X161947110Y-77155039D01*
X161951618Y-77158196D01*
X161951621Y-77158198D01*
X162025602Y-77210000D01*
X162128927Y-77282349D01*
X162133909Y-77284672D01*
X162133914Y-77284675D01*
X162243297Y-77335681D01*
X162296582Y-77382599D01*
X162316043Y-77450876D01*
X162295501Y-77518836D01*
X162243296Y-77564071D01*
X162134169Y-77614957D01*
X162124669Y-77620442D01*
X162081271Y-77650830D01*
X162072896Y-77661307D01*
X162079965Y-77674755D01*
X162752788Y-78347578D01*
X162766732Y-78355192D01*
X162768565Y-78355061D01*
X162775180Y-78350810D01*
X163451957Y-77674033D01*
X163458387Y-77662258D01*
X163449091Y-77650243D01*
X163406531Y-77620442D01*
X163397031Y-77614957D01*
X163287904Y-77564071D01*
X163234618Y-77517154D01*
X163215157Y-77448877D01*
X163235699Y-77380917D01*
X163287903Y-77335681D01*
X163397286Y-77284675D01*
X163397291Y-77284672D01*
X163402273Y-77282349D01*
X163505598Y-77210000D01*
X163579579Y-77158198D01*
X163579582Y-77158196D01*
X163584090Y-77155039D01*
X163741039Y-76998090D01*
X163762809Y-76967000D01*
X163865192Y-76820781D01*
X163865193Y-76820779D01*
X163868349Y-76816272D01*
X163870672Y-76811290D01*
X163870675Y-76811285D01*
X163959830Y-76620092D01*
X163959831Y-76620090D01*
X163962153Y-76615110D01*
X163972184Y-76577676D01*
X164018176Y-76406029D01*
X164018176Y-76406027D01*
X164019600Y-76400714D01*
X164038945Y-76179600D01*
X164019600Y-75958486D01*
X164008298Y-75916305D01*
X163963576Y-75749400D01*
X163963575Y-75749398D01*
X163962153Y-75744090D01*
X163952792Y-75724016D01*
X163870675Y-75547915D01*
X163870672Y-75547910D01*
X163868349Y-75542928D01*
X163849297Y-75515719D01*
X163744198Y-75365621D01*
X163744196Y-75365618D01*
X163741039Y-75361110D01*
X163584090Y-75204161D01*
X163579582Y-75201004D01*
X163579579Y-75201002D01*
X163464209Y-75120219D01*
X163452829Y-75112251D01*
X163408501Y-75056794D01*
X163399100Y-75009038D01*
X163399100Y-74503163D01*
X163399627Y-74491979D01*
X163401301Y-74484491D01*
X163399162Y-74416432D01*
X163399100Y-74412475D01*
X163399100Y-74384544D01*
X163398594Y-74380538D01*
X163397661Y-74368692D01*
X163396522Y-74332437D01*
X163396273Y-74324510D01*
X163390622Y-74305058D01*
X163386614Y-74285706D01*
X163385068Y-74273468D01*
X163385067Y-74273466D01*
X163384074Y-74265603D01*
X163367794Y-74224486D01*
X163363959Y-74213285D01*
X163351618Y-74170806D01*
X163347585Y-74163987D01*
X163347583Y-74163982D01*
X163341307Y-74153371D01*
X163332610Y-74135621D01*
X163325152Y-74116783D01*
X163314024Y-74101466D01*
X163299172Y-74081025D01*
X163292653Y-74071101D01*
X163274178Y-74039860D01*
X163274174Y-74039855D01*
X163270142Y-74033037D01*
X163255818Y-74018713D01*
X163242976Y-74003678D01*
X163235946Y-73994002D01*
X163231072Y-73987293D01*
X163197006Y-73959111D01*
X163188227Y-73951122D01*
X161844452Y-72607347D01*
X161836912Y-72599061D01*
X161832800Y-72592582D01*
X161826113Y-72586302D01*
X161783149Y-72545957D01*
X161780307Y-72543202D01*
X161760570Y-72523465D01*
X161757373Y-72520985D01*
X161748351Y-72513280D01*
X161721900Y-72488441D01*
X161716121Y-72483014D01*
X161709175Y-72479195D01*
X161709172Y-72479193D01*
X161698366Y-72473252D01*
X161681847Y-72462401D01*
X161681383Y-72462041D01*
X161665841Y-72449986D01*
X161658572Y-72446841D01*
X161658568Y-72446838D01*
X161625263Y-72432426D01*
X161614613Y-72427209D01*
X161575860Y-72405905D01*
X161556237Y-72400867D01*
X161537534Y-72394463D01*
X161526220Y-72389567D01*
X161526219Y-72389567D01*
X161518945Y-72386419D01*
X161511122Y-72385180D01*
X161511112Y-72385177D01*
X161475276Y-72379501D01*
X161463656Y-72377095D01*
X161428511Y-72368072D01*
X161428510Y-72368072D01*
X161420830Y-72366100D01*
X161400576Y-72366100D01*
X161380865Y-72364549D01*
X161368686Y-72362620D01*
X161360857Y-72361380D01*
X161352965Y-72362126D01*
X161316839Y-72365541D01*
X161304981Y-72366100D01*
X160486994Y-72366100D01*
X160418873Y-72346098D01*
X160397899Y-72329195D01*
X159394709Y-71326004D01*
X159360683Y-71263692D01*
X159365748Y-71192876D01*
X159408295Y-71136041D01*
X159474815Y-71111230D01*
X159491875Y-71111365D01*
X159494525Y-71111365D01*
X159500000Y-71111844D01*
X159734745Y-71091306D01*
X159740060Y-71089882D01*
X159957048Y-71031741D01*
X159957050Y-71031740D01*
X159962358Y-71030318D01*
X159967340Y-71027995D01*
X160170941Y-70933054D01*
X160170944Y-70933052D01*
X160175922Y-70930731D01*
X160368949Y-70795573D01*
X160535573Y-70628949D01*
X160666786Y-70441555D01*
X160722244Y-70397226D01*
X160792863Y-70389917D01*
X160856224Y-70421947D01*
X160873213Y-70441555D01*
X161004427Y-70628949D01*
X161171051Y-70795573D01*
X161364078Y-70930731D01*
X161369056Y-70933052D01*
X161369059Y-70933054D01*
X161572660Y-71027995D01*
X161577642Y-71030318D01*
X161582950Y-71031740D01*
X161582952Y-71031741D01*
X161799940Y-71089882D01*
X161805255Y-71091306D01*
X162040000Y-71111844D01*
X162274745Y-71091306D01*
X162280060Y-71089882D01*
X162497048Y-71031741D01*
X162497050Y-71031740D01*
X162502358Y-71030318D01*
X162507340Y-71027995D01*
X162710941Y-70933054D01*
X162710944Y-70933052D01*
X162715922Y-70930731D01*
X162908949Y-70795573D01*
X163075573Y-70628949D01*
X163206786Y-70441555D01*
X163262244Y-70397226D01*
X163332863Y-70389917D01*
X163396224Y-70421947D01*
G37*
%TD.AperFunction*%
%TD*%
M02*
