M48
; DRILL file {KiCad (6.0.8)} date Sat Nov 19 01:29:12 2022
; FORMAT={-:-/ absolute / inch / decimal}
; #@! TF.CreationDate,2022-11-19T01:29:12-06:00
; #@! TF.GenerationSoftware,Kicad,Pcbnew,(6.0.8)
; #@! TF.FileFunction,MixedPlating,1,2
FMAT,2
INCH
; #@! TA.AperFunction,Plated,PTH,ViaDrill
T1C0.0157
; #@! TA.AperFunction,Plated,PTH,ComponentDrill
T2C0.0299
; #@! TA.AperFunction,Plated,PTH,ComponentDrill
T3C0.0300
; #@! TA.AperFunction,Plated,PTH,ComponentDrill
T4C0.0315
; #@! TA.AperFunction,Plated,PTH,ComponentDrill
T5C0.0354
; #@! TA.AperFunction,NonPlated,NPTH,ComponentDrill
T6C0.0354
; #@! TA.AperFunction,NonPlated,NPTH,ComponentDrill
T7C0.1260
; #@! TA.AperFunction,NonPlated,NPTH,ComponentDrill
T8C0.1280
%
G90
G05
T1
X5.01Y-3.65
X5.01Y-3.785
X5.391Y-2.832
X5.445Y-3.57
X5.475Y-2.832
X5.625Y-3.605
X5.704Y-2.981
X5.715Y-3.36
X5.78Y-3.825
X5.83Y-3.77
X6.01Y-3.569
X6.011Y-3.526
X6.119Y-3.526
X6.12Y-3.569
X6.305Y-3.635
T2
X6.3081Y-2.9492
X6.3081Y-3.0492
X6.3081Y-3.1492
X6.4081Y-2.9992
X6.4081Y-3.0992
X6.4081Y-3.1992
T3
X5.1661Y-2.8898
X5.1661Y-2.9898
X5.1661Y-3.0898
X5.1661Y-3.1898
T4
X4.7795Y-2.6465
X4.7795Y-2.7465
X4.7795Y-3.1465
X4.7795Y-3.2465
X4.7795Y-3.3465
X4.7795Y-3.6465
X4.7795Y-3.7465
X4.7795Y-3.8465
X4.7795Y-3.9465
X4.7795Y-4.0465
X4.8795Y-2.6465
X4.8795Y-2.7465
X4.8795Y-3.1465
X4.8795Y-3.2465
X4.8795Y-3.3465
X4.8795Y-3.6465
X4.8795Y-3.7465
X4.8795Y-3.8465
X4.8795Y-3.9465
X4.8795Y-4.0465
X4.9795Y-2.6465
X4.9795Y-2.7465
X4.9795Y-3.9465
X4.9795Y-4.0465
X5.0795Y-2.6465
X5.0795Y-2.7465
X5.0795Y-3.9465
X5.0795Y-4.0465
X5.1795Y-2.6465
X5.1795Y-2.7465
X5.1795Y-3.9465
X5.1795Y-4.0465
X5.2795Y-2.6465
X5.2795Y-2.7465
X5.2795Y-3.9465
X5.2795Y-4.0465
X5.3795Y-2.6465
X5.3795Y-2.7465
X5.3795Y-3.9465
X5.3795Y-4.0465
X5.4795Y-2.6465
X5.4795Y-2.7465
X5.4795Y-3.9465
X5.4795Y-4.0465
X5.5795Y-2.6465
X5.5795Y-2.7465
X5.5795Y-3.9465
X5.5795Y-4.0465
X5.6795Y-2.6465
X5.6795Y-2.7465
X5.6795Y-3.9465
X5.6795Y-4.0465
X5.7795Y-2.6465
X5.7795Y-2.7465
X5.7795Y-3.9465
X5.7795Y-4.0465
X5.8795Y-2.6465
X5.8795Y-2.7465
X5.8795Y-3.9465
X5.8795Y-4.0465
X5.9795Y-2.6465
X5.9795Y-2.7465
X5.9795Y-3.9465
X5.9795Y-4.0465
X6.0795Y-2.6465
X6.0795Y-2.7465
X6.0795Y-3.9465
X6.0795Y-4.0465
X6.1795Y-2.6465
X6.1795Y-2.7465
X6.1795Y-3.9465
X6.1795Y-4.0465
X6.2795Y-2.6465
X6.2795Y-2.7465
X6.2795Y-3.9465
X6.2795Y-4.0465
X6.3795Y-2.6465
X6.3795Y-2.7465
X6.4795Y-2.6465
X6.4795Y-2.7465
X6.5795Y-2.6465
X6.5795Y-2.7465
X6.6795Y-2.6465
X6.6795Y-2.7465
X6.7795Y-2.6465
X6.7795Y-2.7465
T5
X4.932Y-2.9402
X4.932Y-3.0402
T6
X6.8015Y-3.5461
X6.8015Y-3.8611
T7
X4.8295Y-3.4925
T8
X6.6581Y-2.874
X6.6581Y-3.274
T0
M30
